<svg width="18" height="18" viewBox="0 0 18 18" fill="none" xmlns="http://www.w3.org/2000/svg">
<path d="M9.18882 12.5152C9.29442 12.6198 9.37825 12.7443 9.43545 12.8813C9.49265 13.0184 9.52209 13.1654 9.52209 13.3139C9.52209 13.4624 9.49265 13.6095 9.43545 13.7465C9.37825 13.8836 9.29442 14.008 9.18882 14.1126L5.54969 17.6785C5.33908 17.8846 5.05595 18 4.76105 18C4.46614 18 4.18297 17.8846 3.97237 17.6785L0.333274 14.1126C0.227674 14.008 0.143844 13.8836 0.0866447 13.7465C0.0294456 13.6095 -1.98343e-07 13.4624 -2.04834e-07 13.3139C-2.11325e-07 13.1654 0.0294455 13.0184 0.0866446 12.8813C0.143844 12.7443 0.227674 12.6198 0.333274 12.5152C0.544368 12.3057 0.829907 12.1882 1.12755 12.1882C1.4252 12.1882 1.71074 12.3057 1.92184 12.5152L3.64563 14.2138L3.64563 6.76713C3.64563 6.46879 3.76434 6.18269 3.97563 5.97174C4.18692 5.76078 4.47348 5.64225 4.77229 5.64225C5.0711 5.64225 5.35769 5.76078 5.56898 5.97174C5.78027 6.18269 5.89895 6.46879 5.89895 6.76713L5.89895 14.2138L7.62277 12.5152C7.83286 12.3125 8.11359 12.1992 8.40578 12.1992C8.69796 12.1992 8.97873 12.3125 9.18882 12.5152ZM16.084 5.50727L14.3602 3.81995L14.3602 11.2554C14.3602 11.5537 14.2415 11.8398 14.0302 12.0508C13.8189 12.2617 13.5323 12.3803 13.2335 12.3803C12.9347 12.3803 12.6482 12.2617 12.4369 12.0508C12.2256 11.8398 12.1069 11.5537 12.1069 11.2554L12.1069 3.80869L10.3831 5.49601C10.2773 5.59941 10.1521 5.68099 10.0148 5.7361C9.87739 5.79122 9.73051 5.81882 9.58247 5.81726C9.43443 5.81569 9.28816 5.78498 9.15199 5.72697C9.01582 5.66896 8.89241 5.58474 8.78884 5.47912C8.68527 5.3735 8.60357 5.24854 8.54836 5.11139C8.49316 4.97424 8.46555 4.82762 8.46712 4.67981C8.46869 4.53201 8.49941 4.38597 8.55751 4.25002C8.61561 4.11406 8.69997 3.99085 8.80575 3.88744L12.4449 0.32159C12.6555 0.115482 12.9386 -5.65565e-07 13.2335 -5.78456e-07C13.5284 -5.91347e-07 13.8116 0.115482 14.0222 0.32159L17.6613 3.88744C17.7671 3.99084 17.8514 4.11406 17.9095 4.25002C17.9676 4.38597 17.9984 4.53201 17.9999 4.67981C18.0015 4.82761 17.9739 4.97424 17.9187 5.11139C17.8635 5.24854 17.7818 5.3735 17.6782 5.47912C17.5746 5.58474 17.4513 5.66896 17.3151 5.72697C17.1789 5.78498 17.0326 5.81569 16.8846 5.81726C16.7366 5.81882 16.5897 5.79122 16.4523 5.7361C16.3149 5.68099 16.1898 5.59941 16.084 5.49601L16.084 5.50727Z" fill="#1F8FEB"/>
</svg>
