<svg width="16" height="16" viewBox="0 0 16 16" fill="none" xmlns="http://www.w3.org/2000/svg">
<g clip-path="url(#clip0_867_1491)">
<path d="M7.2 14H11.76C11.5234 14.5913 11.1148 15.098 10.5871 15.4545C10.0594 15.8111 9.43685 16.0011 8.79998 16H3.19999C2.77973 16.0001 2.36356 15.9174 1.97527 15.7566C1.58697 15.5959 1.23416 15.3602 0.936991 15.063C0.639821 14.7658 0.404116 14.413 0.243344 14.0247C0.0825713 13.6364 -0.000118122 13.2203 1.26646e-07 12.8V6.39998C0.000946869 5.62072 0.285713 4.86849 0.801044 4.28396C1.31638 3.69943 2.02698 3.32263 2.79998 3.22403V9.6C2.79998 12.024 4.77596 14 7.2 14ZM14 3.39998H15.696C15.6468 3.32788 15.5905 3.26088 15.528 3.19999L12.8 0.471863C12.7411 0.40958 12.6738 0.355813 12.6 0.312113V1.99999C12.6018 2.37074 12.7498 2.72581 13.012 2.98798C13.2742 3.25015 13.6292 3.39821 14 3.39998ZM14 4.59998C13.3108 4.59865 12.6503 4.32429 12.163 3.83699C11.6757 3.34968 11.4013 2.68914 11.4 1.99999V1.26641e-07H7.2C6.77974 -0.00011812 6.36357 0.0825711 5.97527 0.243343C5.58698 0.404115 5.23416 0.63982 4.93699 0.936989C4.63982 1.23416 4.40411 1.58697 4.24333 1.97526C4.08256 2.36356 3.99986 2.77972 3.99998 3.19999V9.6C3.99987 10.0203 4.08257 10.4364 4.24334 10.8247C4.40412 11.213 4.63983 11.5658 4.937 11.863C5.23417 12.1602 5.58699 12.3959 5.97528 12.5566C6.36357 12.7174 6.77974 12.8001 7.2 12.8H12.8C13.2203 12.8001 13.6364 12.7174 14.0247 12.5566C14.413 12.3959 14.7658 12.1602 15.063 11.863C15.3601 11.5658 15.5959 11.213 15.7566 10.8247C15.9174 10.4364 16.0001 10.0203 16 9.6V4.59998H14Z" fill="#1F8FEB"/>
</g>
<defs>
<clipPath id="clip0_867_1491">
<rect width="16" height="16" fill="white"/>
</clipPath>
</defs>
</svg>
