<svg width="16" height="16" viewBox="0 0 16 16" fill="none" xmlns="http://www.w3.org/2000/svg">
<path d="M12.883 6.31213C12.883 6.31213 12.521 10.8021 12.311 12.6935C12.211 13.5968 11.653 14.1261 10.739 14.1428C8.9997 14.1741 7.25836 14.1761 5.5197 14.1395C4.64036 14.1215 4.0917 13.5855 3.9937 12.6981C3.78236 10.7901 3.42236 6.31213 3.42236 6.31213" stroke="white" stroke-linecap="round" stroke-linejoin="round"/>
<path d="M13.8053 4.15981H2.5" stroke="white" stroke-linecap="round" stroke-linejoin="round"/>
<path d="M11.6269 4.1598C11.1036 4.1598 10.6529 3.7898 10.5502 3.27713L10.3882 2.46647C10.2882 2.09247 9.94956 1.8338 9.56356 1.8338H6.74156C6.35556 1.8338 6.01689 2.09247 5.91689 2.46647L5.75489 3.27713C5.65222 3.7898 5.20156 4.1598 4.67822 4.1598" stroke="white" stroke-linecap="round" stroke-linejoin="round"/>
</svg>
