<svg width="16" height="16" viewBox="0 0 16 16" fill="none" xmlns="http://www.w3.org/2000/svg">
<circle cx="8" cy="8" r="8" fill="#1F8FEB"/>
<path d="M8.02283 4.76901C7.76942 4.76901 7.55987 4.69103 7.39418 4.53509C7.22848 4.37914 7.14564 4.16959 7.14564 3.90643C7.14564 3.80897 7.17 3.67739 7.21874 3.5117C7.28696 3.32651 7.36006 3.19493 7.43804 3.11696C7.52576 3.03899 7.63784 3 7.77429 3C7.88151 3 7.99846 3.01949 8.12517 3.05848C8.34934 3.10721 8.52965 3.1998 8.66611 3.33626C8.85129 3.4922 8.94388 3.70175 8.94388 3.96491C8.94388 4.04288 8.92439 4.1501 8.8854 4.28655C8.82693 4.43275 8.71971 4.54971 8.56377 4.63743C8.40782 4.72515 8.22751 4.76901 8.02283 4.76901ZM8.06669 12.9854H7.45266C7.0433 12.9659 6.74603 12.9561 6.56084 12.9561C6.50236 12.9464 6.4585 12.9366 6.42926 12.9269C6.40977 12.9074 6.40002 12.8733 6.40002 12.8246C6.40002 12.7563 6.44876 12.7125 6.54622 12.693C6.64369 12.6735 6.78014 12.6345 6.95558 12.576C7.11153 12.5273 7.21386 12.4103 7.2626 12.2251C7.32108 11.9912 7.35032 11.8158 7.35032 11.6988L7.3357 8.70176V8.38012C7.34544 8.16569 7.34544 7.95127 7.3357 7.73684C7.32595 7.50292 7.28209 7.15205 7.20412 6.68421C7.19437 6.60624 7.14564 6.54288 7.05792 6.49415C6.97995 6.43567 6.8971 6.40643 6.80938 6.40643C6.71192 6.42593 6.63394 6.43567 6.57546 6.43567C6.478 6.41618 6.42926 6.36745 6.42926 6.28947C6.42926 6.18226 6.46825 6.12378 6.54622 6.11403C6.6242 6.09454 6.69242 6.0848 6.7509 6.0848C7.55987 5.99708 8.13492 5.93372 8.47605 5.89474H8.57839C8.67585 5.89474 8.74408 5.9191 8.78307 5.96784C8.8318 6.01657 8.85616 6.09942 8.85616 6.21637C8.83667 6.9961 8.82693 7.5809 8.82693 7.97076V9.27193H8.84154L8.8854 11.7573L8.87078 12.2398V12.2836C8.87078 12.3811 8.89028 12.4542 8.92926 12.5029C8.96825 12.5419 9.04135 12.576 9.14856 12.6053C9.20704 12.6248 9.29476 12.6442 9.41172 12.6637C9.51893 12.693 9.57254 12.7563 9.57254 12.8538C9.57254 12.922 9.55792 12.9659 9.52868 12.9854C9.49944 12.9951 9.45071 13 9.38248 13L8.06669 12.9854Z" fill="white"/>
</svg>
