<svg width="16" height="16" viewBox="0 0 16 16" fill="none" xmlns="http://www.w3.org/2000/svg">
<g clip-path="url(#clip0_940_81)">
<path d="M3.60008 0.666687C1.98005 0.666687 0.666748 1.97998 0.666748 3.60002V7.26669H8.42967L6.74821 5.58523C6.46184 5.29885 6.46184 4.83453 6.74821 4.54814C7.03457 4.26176 7.49892 4.26176 7.78529 4.54814L10.7181 7.48097L10.7234 7.48632C10.7914 7.55547 10.8428 7.63482 10.8778 7.7193C10.9134 7.80517 10.9331 7.89919 10.9334 7.99782V8.00002V8.00222C10.9328 8.20139 10.8528 8.38194 10.7234 8.51372L10.7181 8.51907L7.78529 11.4519C7.49892 11.7383 7.03457 11.7383 6.74821 11.4519C6.46184 11.1655 6.46184 10.7012 6.74821 10.4148L8.42967 8.73335H0.666748V12.4C0.666748 14.02 1.98005 15.3334 3.60008 15.3334H12.4001C14.0201 15.3334 15.3334 14.02 15.3334 12.4V3.60002C15.3334 1.97998 14.0201 0.666687 12.4001 0.666687H3.60008Z" fill="#4990FE"/>
</g>
<defs>
<clipPath id="clip0_940_81">
<rect width="16" height="16" fill="white"/>
</clipPath>
</defs>
</svg>
