<svg width="18" height="18" viewBox="0 0 18 18" fill="none" xmlns="http://www.w3.org/2000/svg">
<g clip-path="url(#clip0_940_73)">
<circle cx="9" cy="9" r="9" fill="#50AF95"/>
<path fill-rule="evenodd" clip-rule="evenodd" d="M10.159 9.40288C10.0953 9.40768 9.76656 9.42742 9.03316 9.42742C8.44983 9.42742 8.03566 9.40982 7.89036 9.40288C5.63605 9.30313 3.9534 8.90841 3.9534 8.43581C3.9534 7.96321 5.63605 7.56902 7.89036 7.46767V9.00976C8.03778 9.02043 8.4599 9.0455 9.04323 9.0455C9.74323 9.0455 10.0938 9.01616 10.1569 9.01029V7.46874C12.4064 7.56955 14.0853 7.96428 14.0853 8.43581C14.0853 8.90734 12.4069 9.30207 10.1569 9.40235L10.159 9.40288ZM10.159 7.30925V5.92932H13.2984V3.82501H4.75098V5.92932H7.88983V7.30871C5.33855 7.4266 3.41992 7.93494 3.41992 8.54409C3.41992 9.15325 5.33855 9.66105 7.88983 9.77947V14.2014H10.1585V9.77787C12.7039 9.65999 14.6193 9.15218 14.6193 8.54356C14.6193 7.93494 12.7055 7.42713 10.1585 7.30871L10.159 7.30925Z" fill="white"/>
</g>
<defs>
<clipPath id="clip0_940_73">
<rect width="18" height="18" fill="white"/>
</clipPath>
</defs>
</svg>
