<svg viewBox="0 0 48 48" fill="none" xmlns="http://www.w3.org/2000/svg">
<rect width="48" height="48" rx="24" fill="#1F8FEB" fill-opacity="0.15"/>
<g clip-path="url(#clip0_1914_2941)">
<path d="M33.5005 14.4999C31.6215 12.621 29.2276 11.3414 26.6214 10.823C24.0153 10.3046 21.3139 10.5707 18.859 11.5875C16.404 12.6044 14.3057 14.3264 12.8295 16.5358C11.3532 18.7452 10.5652 21.3428 10.5652 24C10.5652 26.6572 11.3532 29.2548 12.8295 31.4642C14.3057 33.6736 16.404 35.3956 18.859 36.4125C21.3139 37.4293 24.0153 37.6954 26.6214 37.177C29.2276 36.6586 31.6215 35.379 33.5005 33.5001L29.4154 29.415C28.3444 30.486 26.9799 31.2154 25.4944 31.5109C24.0089 31.8064 22.4691 31.6547 21.0698 31.0751C19.6705 30.4955 18.4744 29.5139 17.633 28.2546C16.7915 26.9952 16.3424 25.5146 16.3424 24C16.3424 22.4854 16.7915 21.0048 17.633 19.7454C18.4744 18.4861 19.6705 17.5045 21.0698 16.9249C22.4691 16.3453 24.0089 16.1936 25.4944 16.4891C26.9799 16.7846 28.3444 17.514 29.4154 18.585L33.5005 14.4999Z" fill="white"/>
<path d="M34.0764 20.6406L36.9852 22.32V25.6788L34.0764 27.3582L31.1676 25.6788V22.32L34.0764 20.6406Z" fill="white"/>
</g>
<defs>
<clipPath id="clip0_1914_2941">
<rect width="28" height="28" fill="white" transform="translate(10 10)"/>
</clipPath>
</defs>
</svg>
