<svg width="18" height="18" viewBox="0 0 18 18" fill="none" xmlns="http://www.w3.org/2000/svg">
<g clip-path="url(#clip0_940_45)">
<circle cx="9" cy="9" r="9" fill="url(#paint0_radial_940_45)"/>
<path fill-rule="evenodd" clip-rule="evenodd" d="M9.94345 3.60001H11.1958C11.6248 3.6 11.9857 3.59999 12.2811 3.62426C12.5902 3.64964 12.8845 3.70481 13.1642 3.84804C13.5901 4.06623 13.9364 4.41437 14.1534 4.84257C14.2958 5.12368 14.3507 5.41962 14.376 5.73031C14.4001 6.02734 14.4001 6.39019 14.4001 6.82146V8.0157C14.4001 8.44697 14.4001 8.80982 14.376 9.10684C14.3507 9.41753 14.2958 9.71347 14.1534 9.99459C13.9364 10.4228 13.5901 10.7709 13.1642 10.9891C12.8845 11.1323 12.5902 11.1875 12.2811 11.2129C11.9857 11.2372 11.6248 11.2372 11.1958 11.2371H7.45587C7.19317 11.2371 6.95611 11.0787 6.85446 10.8352C6.7528 10.5916 6.80641 10.3105 6.99044 10.1221L10.0789 6.95922L11.0097 7.87794L9.01014 9.92572H11.1697C11.6317 9.92572 11.9389 9.92521 12.1749 9.90583C12.4033 9.88707 12.5069 9.85395 12.572 9.82062C12.7524 9.72817 12.8992 9.58065 12.9911 9.39921C13.0243 9.33379 13.0572 9.22964 13.0759 9.00005C13.0951 8.76281 13.0957 8.4539 13.0957 7.98944V6.84772C13.0957 6.38326 13.0951 6.07435 13.0759 5.8371C13.0572 5.60752 13.0243 5.50337 12.9911 5.43794C12.8992 5.2565 12.7524 5.10899 12.572 5.01654C12.5069 4.9832 12.4033 4.95009 12.1749 4.93133C11.9389 4.91195 11.6317 4.91144 11.1697 4.91144H9.96977C9.50273 4.91144 9.19188 4.91195 8.9533 4.93164C8.72226 4.95072 8.61782 4.98439 8.55253 5.01814C8.37097 5.11199 8.22393 5.26163 8.1328 5.44529C8.10003 5.51135 8.06781 5.61675 8.05166 5.84924C8.03498 6.08932 8.03826 6.40182 8.04395 6.87133L8.05049 7.41058L6.74615 7.42657L6.73929 6.86086C6.73399 6.42477 6.72953 6.05808 6.75039 5.75787C6.77219 5.44403 6.82423 5.1447 6.96552 4.85991C7.18058 4.42647 7.52759 4.07332 7.95607 3.85184C8.2376 3.70632 8.53467 3.65036 8.84656 3.62461C9.14489 3.59999 9.50965 3.6 9.94345 3.60001Z" fill="white"/>
<path fill-rule="evenodd" clip-rule="evenodd" d="M5.82526 13.0687C6.06124 13.0881 6.36851 13.0886 6.83049 13.0886H8.05053C8.47179 13.0886 8.75194 13.0881 8.96775 13.0719C9.1769 13.0562 9.27281 13.0284 9.33287 13.0007C9.54157 12.9045 9.709 12.7362 9.80474 12.5263C9.83229 12.466 9.85994 12.3695 9.87556 12.1593C9.89167 11.9423 9.89209 11.6606 9.89209 11.2371H11.1965L11.1965 11.2611C11.1965 11.6544 11.1965 11.9853 11.1764 12.2569C11.1553 12.5407 11.1096 12.8119 10.9904 13.0732C10.7644 13.5683 10.3693 13.9656 9.87677 14.1927C9.61693 14.3126 9.34715 14.3585 9.06486 14.3797C8.79469 14.4 8.46553 14.4 8.07433 14.4L6.80435 14.4C6.37539 14.4 6.01448 14.4 5.71904 14.3757C5.41001 14.3504 5.11564 14.2952 4.83603 14.152C4.41011 13.9338 4.06382 13.5856 3.84681 13.1574C3.70434 12.8763 3.64946 12.5804 3.62421 12.2697C3.60007 11.9727 3.60008 11.6098 3.60009 11.1785V9.9843C3.60008 9.55303 3.60007 9.19018 3.62421 8.89315C3.64946 8.58247 3.70434 8.28652 3.84681 8.00541C4.06382 7.57721 4.41011 7.22907 4.83603 7.01089C5.11564 6.86765 5.41001 6.81248 5.71904 6.7871C6.01448 6.76283 6.3754 6.76284 6.80438 6.76285H10.5443C10.9045 6.76285 11.1965 7.05642 11.1965 7.41856C11.1965 7.78071 10.9045 8.07428 10.5443 8.07428H6.8305C6.36851 8.07428 6.06124 8.07479 5.82527 8.09417C5.5969 8.11293 5.49331 8.14604 5.42823 8.17938C5.24776 8.27183 5.10103 8.41935 5.00907 8.60079C4.97591 8.66621 4.94298 8.77036 4.92432 8.99995C4.90504 9.23719 4.90453 9.5461 4.90453 10.0106V11.1523C4.90453 11.6167 4.90504 11.9257 4.92432 12.1629C4.94298 12.3925 4.97591 12.4966 5.00907 12.5621C5.10103 12.7435 5.24776 12.891 5.42823 12.9835C5.49331 13.0168 5.5969 13.0499 5.82526 13.0687Z" fill="white"/>
</g>
<defs>
<radialGradient id="paint0_radial_940_45" cx="0" cy="0" r="1" gradientUnits="userSpaceOnUse" gradientTransform="rotate(45) scale(25.4558 32.3589)">
<stop stop-color="#16D1D6"/>
<stop offset="1" stop-color="#274CFF"/>
</radialGradient>
<clipPath id="clip0_940_45">
<rect width="18" height="18" fill="white"/>
</clipPath>
</defs>
</svg>
