<svg width="16" height="16" viewBox="0 0 16 16" fill="none" xmlns="http://www.w3.org/2000/svg">
<g clip-path="url(#clip0_867_1806)">
<g clip-path="url(#clip1_867_1806)">
<path fill-rule="evenodd" clip-rule="evenodd" d="M9.25868 0.888886H10.9006C11.463 0.888873 11.9362 0.888862 12.3236 0.920819C12.7287 0.954247 13.1146 1.0269 13.4812 1.21552C14.0397 1.50284 14.4937 1.96129 14.7782 2.52518C14.965 2.89537 15.0369 3.28509 15.07 3.69423C15.1017 4.08537 15.1017 4.5632 15.1016 5.13113V6.70379C15.1017 7.27172 15.1017 7.74955 15.07 8.14069C15.0369 8.54983 14.965 8.93954 14.7782 9.30973C14.4937 9.87362 14.0397 10.3321 13.4812 10.6194C13.1146 10.808 12.7287 10.8807 12.3236 10.9141C11.9362 10.9461 11.463 10.946 10.9006 10.946H5.99729C5.65287 10.946 5.34207 10.7374 5.2088 10.4167C5.07552 10.096 5.1458 9.72581 5.38708 9.47762L9.43626 5.31254L10.6567 6.52238L8.03504 9.21904H10.8664C11.4721 9.21904 11.8749 9.21837 12.1843 9.19285C12.4837 9.16815 12.6195 9.12454 12.7048 9.08064C12.9414 8.9589 13.1338 8.76464 13.2544 8.5257C13.2978 8.43954 13.341 8.30239 13.3655 8.00006C13.3908 7.68764 13.3914 7.28084 13.3914 6.66921V5.16571C13.3914 4.55407 13.3908 4.14728 13.3655 3.83486C13.341 3.53252 13.2978 3.39537 13.2544 3.30922C13.1338 3.07028 12.9414 2.87602 12.7048 2.75427C12.6195 2.71038 12.4837 2.66677 12.1843 2.64207C11.8749 2.61654 11.4721 2.61587 10.8664 2.61587H9.29319C8.68086 2.61587 8.27332 2.61655 7.96053 2.64248C7.65762 2.6676 7.52069 2.71194 7.43508 2.75639C7.19704 2.87998 7.00427 3.07703 6.88479 3.31889C6.84182 3.40588 6.79958 3.54468 6.77841 3.85085C6.75654 4.167 6.76084 4.57851 6.76831 5.19681L6.77688 5.90693L5.0668 5.92799L5.0578 5.18301C5.05085 4.60874 5.04501 4.12585 5.07235 3.73052C5.10094 3.31723 5.16916 2.92305 5.35441 2.54802C5.63637 1.97723 6.09133 1.51218 6.65309 1.22052C7.02219 1.02889 7.41168 0.955196 7.82058 0.921292C8.21171 0.888862 8.68994 0.888873 9.25868 0.888886Z" fill="url(#paint0_linear_867_1806)"/>
<path fill-rule="evenodd" clip-rule="evenodd" d="M9.25868 0.888886H10.9006C11.463 0.888873 11.9362 0.888862 12.3236 0.920819C12.7287 0.954247 13.1146 1.0269 13.4812 1.21552C14.0397 1.50284 14.4937 1.96129 14.7782 2.52518C14.965 2.89537 15.0369 3.28509 15.07 3.69423C15.1017 4.08537 15.1017 4.5632 15.1016 5.13113V6.70379C15.1017 7.27172 15.1017 7.74955 15.07 8.14069C15.0369 8.54983 14.965 8.93954 14.7782 9.30973C14.4937 9.87362 14.0397 10.3321 13.4812 10.6194C13.1146 10.808 12.7287 10.8807 12.3236 10.9141C11.9362 10.9461 11.463 10.946 10.9006 10.946H5.99729C5.65287 10.946 5.34207 10.7374 5.2088 10.4167C5.07552 10.096 5.1458 9.72581 5.38708 9.47762L9.43626 5.31254L10.6567 6.52238L8.03504 9.21904H10.8664C11.4721 9.21904 11.8749 9.21837 12.1843 9.19285C12.4837 9.16815 12.6195 9.12454 12.7048 9.08064C12.9414 8.9589 13.1338 8.76464 13.2544 8.5257C13.2978 8.43954 13.341 8.30239 13.3655 8.00006C13.3908 7.68764 13.3914 7.28084 13.3914 6.66921V5.16571C13.3914 4.55407 13.3908 4.14728 13.3655 3.83486C13.341 3.53252 13.2978 3.39537 13.2544 3.30922C13.1338 3.07028 12.9414 2.87602 12.7048 2.75427C12.6195 2.71038 12.4837 2.66677 12.1843 2.64207C11.8749 2.61654 11.4721 2.61587 10.8664 2.61587H9.29319C8.68086 2.61587 8.27332 2.61655 7.96053 2.64248C7.65762 2.6676 7.52069 2.71194 7.43508 2.75639C7.19704 2.87998 7.00427 3.07703 6.88479 3.31889C6.84182 3.40588 6.79958 3.54468 6.77841 3.85085C6.75654 4.167 6.76084 4.57851 6.76831 5.19681L6.77688 5.90693L5.0668 5.92799L5.0578 5.18301C5.05085 4.60874 5.04501 4.12585 5.07235 3.73052C5.10094 3.31723 5.16916 2.92305 5.35441 2.54802C5.63637 1.97723 6.09133 1.51218 6.65309 1.22052C7.02219 1.02889 7.41168 0.955196 7.82058 0.921292C8.21171 0.888862 8.68994 0.888873 9.25868 0.888886Z" fill="url(#paint1_radial_867_1806)"/>
<path fill-rule="evenodd" clip-rule="evenodd" d="M9.25868 0.888886H10.9006C11.463 0.888873 11.9362 0.888862 12.3236 0.920819C12.7287 0.954247 13.1146 1.0269 13.4812 1.21552C14.0397 1.50284 14.4937 1.96129 14.7782 2.52518C14.965 2.89537 15.0369 3.28509 15.07 3.69423C15.1017 4.08537 15.1017 4.5632 15.1016 5.13113V6.70379C15.1017 7.27172 15.1017 7.74955 15.07 8.14069C15.0369 8.54983 14.965 8.93954 14.7782 9.30973C14.4937 9.87362 14.0397 10.3321 13.4812 10.6194C13.1146 10.808 12.7287 10.8807 12.3236 10.9141C11.9362 10.9461 11.463 10.946 10.9006 10.946H5.99729C5.65287 10.946 5.34207 10.7374 5.2088 10.4167C5.07552 10.096 5.1458 9.72581 5.38708 9.47762L9.43626 5.31254L10.6567 6.52238L8.03504 9.21904H10.8664C11.4721 9.21904 11.8749 9.21837 12.1843 9.19285C12.4837 9.16815 12.6195 9.12454 12.7048 9.08064C12.9414 8.9589 13.1338 8.76464 13.2544 8.5257C13.2978 8.43954 13.341 8.30239 13.3655 8.00006C13.3908 7.68764 13.3914 7.28084 13.3914 6.66921V5.16571C13.3914 4.55407 13.3908 4.14728 13.3655 3.83486C13.341 3.53252 13.2978 3.39537 13.2544 3.30922C13.1338 3.07028 12.9414 2.87602 12.7048 2.75427C12.6195 2.71038 12.4837 2.66677 12.1843 2.64207C11.8749 2.61654 11.4721 2.61587 10.8664 2.61587H9.29319C8.68086 2.61587 8.27332 2.61655 7.96053 2.64248C7.65762 2.6676 7.52069 2.71194 7.43508 2.75639C7.19704 2.87998 7.00427 3.07703 6.88479 3.31889C6.84182 3.40588 6.79958 3.54468 6.77841 3.85085C6.75654 4.167 6.76084 4.57851 6.76831 5.19681L6.77688 5.90693L5.0668 5.92799L5.0578 5.18301C5.05085 4.60874 5.04501 4.12585 5.07235 3.73052C5.10094 3.31723 5.16916 2.92305 5.35441 2.54802C5.63637 1.97723 6.09133 1.51218 6.65309 1.22052C7.02219 1.02889 7.41168 0.955196 7.82058 0.921292C8.21171 0.888862 8.68994 0.888873 9.25868 0.888886Z" fill="url(#paint2_radial_867_1806)"/>
<path fill-rule="evenodd" clip-rule="evenodd" d="M9.25868 0.888886H10.9006C11.463 0.888873 11.9362 0.888862 12.3236 0.920819C12.7287 0.954247 13.1146 1.0269 13.4812 1.21552C14.0397 1.50284 14.4937 1.96129 14.7782 2.52518C14.965 2.89537 15.0369 3.28509 15.07 3.69423C15.1017 4.08537 15.1017 4.5632 15.1016 5.13113V6.70379C15.1017 7.27172 15.1017 7.74955 15.07 8.14069C15.0369 8.54983 14.965 8.93954 14.7782 9.30973C14.4937 9.87362 14.0397 10.3321 13.4812 10.6194C13.1146 10.808 12.7287 10.8807 12.3236 10.9141C11.9362 10.9461 11.463 10.946 10.9006 10.946H5.99729C5.65287 10.946 5.34207 10.7374 5.2088 10.4167C5.07552 10.096 5.1458 9.72581 5.38708 9.47762L9.43626 5.31254L10.6567 6.52238L8.03504 9.21904H10.8664C11.4721 9.21904 11.8749 9.21837 12.1843 9.19285C12.4837 9.16815 12.6195 9.12454 12.7048 9.08064C12.9414 8.9589 13.1338 8.76464 13.2544 8.5257C13.2978 8.43954 13.341 8.30239 13.3655 8.00006C13.3908 7.68764 13.3914 7.28084 13.3914 6.66921V5.16571C13.3914 4.55407 13.3908 4.14728 13.3655 3.83486C13.341 3.53252 13.2978 3.39537 13.2544 3.30922C13.1338 3.07028 12.9414 2.87602 12.7048 2.75427C12.6195 2.71038 12.4837 2.66677 12.1843 2.64207C11.8749 2.61654 11.4721 2.61587 10.8664 2.61587H9.29319C8.68086 2.61587 8.27332 2.61655 7.96053 2.64248C7.65762 2.6676 7.52069 2.71194 7.43508 2.75639C7.19704 2.87998 7.00427 3.07703 6.88479 3.31889C6.84182 3.40588 6.79958 3.54468 6.77841 3.85085C6.75654 4.167 6.76084 4.57851 6.76831 5.19681L6.77688 5.90693L5.0668 5.92799L5.0578 5.18301C5.05085 4.60874 5.04501 4.12585 5.07235 3.73052C5.10094 3.31723 5.16916 2.92305 5.35441 2.54802C5.63637 1.97723 6.09133 1.51218 6.65309 1.22052C7.02219 1.02889 7.41168 0.955196 7.82058 0.921292C8.21171 0.888862 8.68994 0.888873 9.25868 0.888886Z" fill="url(#paint3_radial_867_1806)"/>
<path fill-rule="evenodd" clip-rule="evenodd" d="M3.86073 13.3579C4.17011 13.3835 4.57296 13.3841 5.17865 13.3841H6.77821C7.3305 13.3841 7.6978 13.3836 7.98074 13.3622C8.25495 13.3416 8.3807 13.305 8.45944 13.2685C8.73306 13.1417 8.95257 12.9201 9.07809 12.6438C9.11422 12.5642 9.15047 12.4373 9.17094 12.1604C9.19207 11.8747 9.19262 11.5037 9.19262 10.946H10.9028L10.9028 10.9775C10.9028 11.4955 10.9029 11.9312 10.8764 12.2889C10.8488 12.6627 10.7888 13.0198 10.6325 13.3638C10.3363 14.0159 9.81827 14.539 9.17253 14.8382C8.83186 14.996 8.47816 15.0565 8.10806 15.0844C7.75385 15.1111 7.3223 15.1111 6.80941 15.1111L5.14438 15.1111C4.58198 15.1111 4.1088 15.1111 3.72146 15.0792C3.3163 15.0458 2.93036 14.9731 2.56377 14.7845C2.00536 14.4972 1.55135 14.0387 1.26683 13.4748C1.08004 13.1046 1.00809 12.7149 0.974989 12.3058C0.943342 11.9146 0.943354 11.4368 0.943367 10.8689V9.29621C0.943354 8.72828 0.943342 8.25045 0.974989 7.85931C1.00809 7.45017 1.08004 7.06045 1.26683 6.69026C1.55135 6.12637 2.00536 5.66792 2.56377 5.3806C2.93036 5.19198 3.3163 5.11933 3.72146 5.0859C4.10881 5.05394 4.58199 5.05396 5.14441 5.05397H10.0477C10.52 5.05397 10.9028 5.44057 10.9028 5.91746C10.9028 6.39435 10.52 6.78095 10.0477 6.78095H5.17865C4.57296 6.78095 4.17011 6.78162 3.86073 6.80715C3.56132 6.83185 3.42551 6.87546 3.34019 6.91936C3.10357 7.0411 2.9112 7.23536 2.79064 7.4743C2.74717 7.56045 2.70398 7.6976 2.67952 7.99994C2.65424 8.31236 2.65358 8.71915 2.65358 9.33079V10.8343C2.65358 11.4459 2.65424 11.8527 2.67952 12.1651C2.70398 12.4675 2.74717 12.6046 2.79064 12.6908C2.9112 12.9297 3.10357 13.124 3.34019 13.2457C3.42551 13.2896 3.56132 13.3332 3.86073 13.3579Z" fill="url(#paint4_linear_867_1806)"/>
<path fill-rule="evenodd" clip-rule="evenodd" d="M3.86073 13.3579C4.17011 13.3835 4.57296 13.3841 5.17865 13.3841H6.77821C7.3305 13.3841 7.6978 13.3836 7.98074 13.3622C8.25495 13.3416 8.3807 13.305 8.45944 13.2685C8.73306 13.1417 8.95257 12.9201 9.07809 12.6438C9.11422 12.5642 9.15047 12.4373 9.17094 12.1604C9.19207 11.8747 9.19262 11.5037 9.19262 10.946H10.9028L10.9028 10.9775C10.9028 11.4955 10.9029 11.9312 10.8764 12.2889C10.8488 12.6627 10.7888 13.0198 10.6325 13.3638C10.3363 14.0159 9.81827 14.539 9.17253 14.8382C8.83186 14.996 8.47816 15.0565 8.10806 15.0844C7.75385 15.1111 7.3223 15.1111 6.80941 15.1111L5.14438 15.1111C4.58198 15.1111 4.1088 15.1111 3.72146 15.0792C3.3163 15.0458 2.93036 14.9731 2.56377 14.7845C2.00536 14.4972 1.55135 14.0387 1.26683 13.4748C1.08004 13.1046 1.00809 12.7149 0.974989 12.3058C0.943342 11.9146 0.943354 11.4368 0.943367 10.8689V9.29621C0.943354 8.72828 0.943342 8.25045 0.974989 7.85931C1.00809 7.45017 1.08004 7.06045 1.26683 6.69026C1.55135 6.12637 2.00536 5.66792 2.56377 5.3806C2.93036 5.19198 3.3163 5.11933 3.72146 5.0859C4.10881 5.05394 4.58199 5.05396 5.14441 5.05397H10.0477C10.52 5.05397 10.9028 5.44057 10.9028 5.91746C10.9028 6.39435 10.52 6.78095 10.0477 6.78095H5.17865C4.57296 6.78095 4.17011 6.78162 3.86073 6.80715C3.56132 6.83185 3.42551 6.87546 3.34019 6.91936C3.10357 7.0411 2.9112 7.23536 2.79064 7.4743C2.74717 7.56045 2.70398 7.6976 2.67952 7.99994C2.65424 8.31236 2.65358 8.71915 2.65358 9.33079V10.8343C2.65358 11.4459 2.65424 11.8527 2.67952 12.1651C2.70398 12.4675 2.74717 12.6046 2.79064 12.6908C2.9112 12.9297 3.10357 13.124 3.34019 13.2457C3.42551 13.2896 3.56132 13.3332 3.86073 13.3579Z" fill="url(#paint5_radial_867_1806)"/>
</g>
</g>
<defs>
<linearGradient id="paint0_linear_867_1806" x1="7.68883" y1="10.8679" x2="7.80308" y2="0.876076" gradientUnits="userSpaceOnUse">
<stop offset="0.43118" stop-color="#498FFD"/>
<stop offset="1" stop-color="#16D1D6"/>
</linearGradient>
<radialGradient id="paint1_radial_867_1806" cx="0" cy="0" r="1" gradientUnits="userSpaceOnUse" gradientTransform="translate(4.93337 3.9339) rotate(-15.5605) scale(6.46217 6.44757)">
<stop stop-color="#18CFD7"/>
<stop offset="1" stop-color="#18CFD7" stop-opacity="0"/>
</radialGradient>
<radialGradient id="paint2_radial_867_1806" cx="0" cy="0" r="1" gradientUnits="userSpaceOnUse" gradientTransform="translate(8.70938 6.78909) rotate(152.373) scale(2.41893 2.41403)">
<stop stop-color="#4990FE"/>
<stop offset="0.353962" stop-color="#4990FE"/>
<stop offset="1" stop-color="#4990FE" stop-opacity="0"/>
</radialGradient>
<radialGradient id="paint3_radial_867_1806" cx="0" cy="0" r="1" gradientUnits="userSpaceOnUse" gradientTransform="translate(5.7498 10.0522) rotate(-45.9158) scale(4.4007 4.39395)">
<stop stop-color="#4990FE"/>
<stop offset="0.405688" stop-color="#4990FE"/>
<stop offset="1" stop-color="#4990FE" stop-opacity="0"/>
</radialGradient>
<linearGradient id="paint4_linear_867_1806" x1="10.9558" y1="15.1507" x2="10.9926" y2="4.95374" gradientUnits="userSpaceOnUse">
<stop stop-color="#2950FF"/>
<stop offset="0.821717" stop-color="#498FFD"/>
</linearGradient>
<radialGradient id="paint5_radial_867_1806" cx="0" cy="0" r="1" gradientUnits="userSpaceOnUse" gradientTransform="translate(10.9558 10.8679) rotate(129.312) scale(4.34927 4.30421)">
<stop offset="0.337169" stop-color="#2950FF"/>
<stop offset="0.792226" stop-color="#2950FF" stop-opacity="0"/>
</radialGradient>
<clipPath id="clip0_867_1806">
<rect width="16" height="16" fill="white"/>
</clipPath>
<clipPath id="clip1_867_1806">
<rect width="14.2222" height="14.2222" fill="white" transform="translate(0.888916 0.888885)"/>
</clipPath>
</defs>
</svg>
