<svg width="128" height="128" viewBox="0 0 128 128" fill="none" xmlns="http://www.w3.org/2000/svg">
<mask id="path-1-outside-1_877_1449" maskUnits="userSpaceOnUse" x="-3.27752" y="3.22973" width="132.064" height="121.458" fill="black">
<rect fill="white" x="-3.27752" y="3.22973" width="132.064" height="121.458"/>
<path d="M116.692 56.9467C115.663 57.5409 115.14 58.2711 115.039 58.2439C115.779 56.7019 116.099 54.2865 116.386 52.4056C116.563 50.9305 116.632 49.8614 116.632 49.8614C113.665 58.0932 103.905 56.3481 100.515 54.7872C97.2266 53.2535 93.8222 52.5588 93.6191 52.5044C95.3086 49.0418 96.3889 45.416 96.6571 41.5726C96.8782 37.4991 96.327 33.8712 94.9293 30.5602C93.9703 28.4543 92.801 26.7272 91.3199 25.3515C90.9683 25.0398 90.7924 24.8839 90.5894 24.8295C90.1833 24.7207 89.9259 24.8692 89.4854 25.295C89.1736 25.6465 88.8347 26.0994 88.367 26.6267C87.6618 27.634 86.8823 28.5128 85.7711 29.4114C84.2466 30.6342 82.3432 31.6468 80.061 32.4491L79.702 32.5705C78.7268 32.9617 77.6772 33.2243 76.6747 33.717C74.8529 34.4251 73.3084 35.3164 72.0141 36.4922C71.7295 36.7422 71.3978 36.7621 70.9917 36.6533C70.8902 36.6261 70.7887 36.5989 70.6872 36.5717C68.6569 36.0276 66.8224 35.9711 65.1365 36.1719C65.1637 36.0705 65.2652 36.0977 65.2924 35.9962C65.577 35.7462 65.8616 35.4962 66.1462 35.2461C66.4036 35.0976 66.6882 34.8476 66.9456 34.699C67.4876 34.3005 68.3342 33.9835 68.7475 33.6592C69.0049 33.5107 68.9577 33.2806 68.9577 33.2806C68.9106 33.0504 68.7348 32.8945 68.5317 32.8401C68.4302 32.8129 68.3287 32.7857 68.2272 32.7585C68.2272 32.7585 68.2272 32.7585 68.1257 32.7313C65.6549 32.6131 63.3526 33.0838 61.1175 34.1162C61.1175 34.1162 61.016 34.089 60.9888 34.1905C61.1248 33.6831 61.3622 33.203 61.674 32.8515C62.7181 31.3911 64.0124 30.2153 65.4826 29.1954C65.6113 29.1211 66.0246 28.7969 65.9774 28.5667C65.8288 28.3094 65.3955 28.302 65.0638 28.3219C65.0638 28.3219 65.0638 28.3219 64.9623 28.2947C62.5858 28.6367 60.2763 29.5405 58.1626 30.9318C56.4351 32.1003 54.8562 33.5261 53.4531 35.1078C53.3244 35.1821 53.2701 35.385 53.1413 35.4593L53.1685 35.3578C53.1486 35.0262 53.1015 34.796 53.0543 34.5659C52.96 34.1056 52.8658 33.6453 52.7715 33.185C52.65 32.8262 52.4742 32.6703 52.3455 32.7446C52.1425 32.6902 51.9866 32.8659 51.905 33.1703L51.769 33.6777C51.7147 33.8807 51.6331 34.1851 51.5787 34.388C51.4428 34.8954 51.1781 35.477 50.9135 36.0586C50.018 37.7763 48.6149 39.358 46.5484 40.9795C46.2638 41.2295 46.0064 41.378 45.7218 41.628C44.665 42.3237 43.6825 43.148 42.7743 44.101C42.6728 44.0738 42.4697 44.0194 42.3954 43.8907C42.1181 43.7076 41.8135 43.626 41.4346 43.4157C40.4467 43.0423 39.5602 42.696 38.6466 42.4512C37.0223 42.016 35.2422 41.7565 33.6379 41.6529C30.9368 41.5817 28.2158 41.1789 25.4749 40.4444C24.5613 40.1996 23.6476 39.9548 22.6597 39.5813C22.1521 39.4453 21.6445 39.3093 21.1369 39.1733C20.7309 39.0645 20.2233 38.9285 19.8172 38.8197C19.0051 38.6021 18.2401 38.6146 17.3464 38.7014C15.2001 38.9964 14.7179 40.3898 14.3916 41.6075C14.2013 42.3178 14.0853 43.1568 13.9965 43.8943C13.9421 44.0972 13.9149 44.1987 13.8606 44.4016C13.3966 47.7576 13.4474 50.8164 14.1889 53.734C14.856 56.523 15.9836 59.2178 17.6732 61.8456C19.1126 64.189 20.8366 66.2823 22.9666 68.4844C23.1425 68.6403 23.3183 68.7961 23.467 69.0535C23.467 69.0535 23.5685 69.0807 23.5413 69.1821C23.3111 69.2292 23.2096 69.202 22.9793 69.2491C22.7491 69.2962 22.5189 69.3432 22.3902 69.4175C21.8011 69.5859 21.1104 69.7271 20.5212 69.8955C19.8034 70.1382 19.2614 70.5368 18.7937 71.064C18.4547 71.517 18.2173 71.9971 18.3859 72.5861C18.4529 73.1479 18.7774 73.5611 19.3593 73.8257C19.5624 73.8801 19.7382 74.036 19.8397 74.0632C20.5503 74.2536 21.3425 74.1396 21.9117 73.6396C22.1963 73.3896 22.3522 73.2138 22.6368 72.9638C22.7655 72.8896 22.7927 72.7881 22.9214 72.7138C23.4906 72.2138 24.1341 71.8424 24.852 71.5997C24.9535 71.6269 24.9807 71.5255 25.0822 71.5527C25.2109 71.4784 25.4139 71.5328 25.5427 71.4585C24.6889 72.2086 23.0284 73.9388 21.5565 76.5896C21.5021 76.7926 21.3462 76.9683 21.2918 77.1713C21.2374 77.3742 21.0544 77.6514 21 77.8544C20.681 78.6389 20.3347 79.525 19.9885 80.411C19.9069 80.7155 19.8254 81.0199 19.7166 81.4258C19.7166 81.4258 20.9094 80.2228 21.9191 79.297C22.5898 78.8241 23.159 78.3241 23.6466 78.1285C23.7753 78.0542 23.8769 78.0814 24.0056 78.0072C24.0056 78.0072 23.8769 78.0814 23.721 78.2572C23.0231 78.8315 21.4641 80.5889 20.3094 84.086C19.4466 86.9001 17.2043 88.3656 15.5855 89.1282C14.583 89.6209 13.7908 89.7349 13.7908 89.7349C13.7908 89.7349 17.7572 90.3627 20.2497 89.1816C19.4231 89.8302 16.8146 91.8502 12.8465 92.8533C11.2077 93.2843 9.85358 93.4653 8.29641 93.5918C8.29641 93.5918 8.29641 93.5918 8.39792 93.619C8.39792 93.619 23.9607 100.508 37.5185 102.292C46.751 103.569 50.4418 102.383 55.2819 102.593C56.1484 102.607 56.9877 102.723 57.9285 102.867C58.9709 103.037 60.1147 103.235 61.4344 103.589C61.4344 103.589 61.4344 103.589 61.3329 103.561C61.3329 103.561 61.2314 103.534 61.1571 103.405C61.0556 103.378 60.9812 103.25 60.8797 103.222C60.7782 103.195 60.6024 103.039 60.528 102.911L60.6296 102.938C60.7311 102.965 60.8054 103.094 60.9069 103.121C61.0084 103.148 61.0827 103.277 61.1843 103.304C61.2858 103.331 61.2586 103.433 61.3601 103.46C61.6375 103.643 61.9891 103.955 62.2665 104.138C62.368 104.165 62.4424 104.294 62.5439 104.321C62.6454 104.348 62.6454 104.348 62.7469 104.375C63.4031 104.769 64.1881 105.088 64.8715 105.38C65.0745 105.434 65.176 105.461 65.3519 105.617C66.3398 105.991 67.3278 106.364 68.3158 106.737C69.7098 107.22 71.1582 107.499 72.3764 107.826C74.0279 108.159 75.4763 108.439 76.2141 108.528C76.5186 108.609 76.6473 108.535 76.7489 108.562L76.8504 108.589L76.9519 108.616C77.5882 108.678 82.0766 108.576 86.177 104.237L86.3057 104.162C86.4616 103.987 86.5903 103.912 86.7462 103.737L86.8749 103.662C87.6272 102.885 88.2036 101.952 88.8344 100.816C89.4109 99.8828 89.8858 98.9225 90.3607 97.9621L90.3879 97.8607C90.571 97.5834 90.7269 97.4077 90.7813 97.2048C90.89 96.7989 91.229 96.3459 91.3378 95.94C91.4193 95.6356 91.5752 95.4599 91.6568 95.1554C92.1317 94.1951 92.5051 93.2076 92.7498 92.2943C92.8042 92.0914 92.8586 91.8885 93.0145 91.7127C98.5017 88.2889 102.345 84.0983 105.321 79.893C108.352 75.4847 110.341 70.9059 111.753 67.2602C114.502 59.8402 118.663 56.4959 118.663 56.4959C118.054 56.3327 117.336 56.5754 116.692 56.9467Z"/>
</mask>
<path d="M116.692 56.9467C115.663 57.5409 115.14 58.2711 115.039 58.2439C115.779 56.7019 116.099 54.2865 116.386 52.4056C116.563 50.9305 116.632 49.8614 116.632 49.8614C113.665 58.0932 103.905 56.3481 100.515 54.7872C97.2266 53.2535 93.8222 52.5588 93.6191 52.5044C95.3086 49.0418 96.3889 45.416 96.6571 41.5726C96.8782 37.4991 96.327 33.8712 94.9293 30.5602C93.9703 28.4543 92.801 26.7272 91.3199 25.3515C90.9683 25.0398 90.7924 24.8839 90.5894 24.8295C90.1833 24.7207 89.9259 24.8692 89.4854 25.295C89.1736 25.6465 88.8347 26.0994 88.367 26.6267C87.6618 27.634 86.8823 28.5128 85.7711 29.4114C84.2466 30.6342 82.3432 31.6468 80.061 32.4491L79.702 32.5705C78.7268 32.9617 77.6772 33.2243 76.6747 33.717C74.8529 34.4251 73.3084 35.3164 72.0141 36.4922C71.7295 36.7422 71.3978 36.7621 70.9917 36.6533C70.8902 36.6261 70.7887 36.5989 70.6872 36.5717C68.6569 36.0276 66.8224 35.9711 65.1365 36.1719C65.1637 36.0705 65.2652 36.0977 65.2924 35.9962C65.577 35.7462 65.8616 35.4962 66.1462 35.2461C66.4036 35.0976 66.6882 34.8476 66.9456 34.699C67.4876 34.3005 68.3342 33.9835 68.7475 33.6592C69.0049 33.5107 68.9577 33.2806 68.9577 33.2806C68.9106 33.0504 68.7348 32.8945 68.5317 32.8401C68.4302 32.8129 68.3287 32.7857 68.2272 32.7585C68.2272 32.7585 68.2272 32.7585 68.1257 32.7313C65.6549 32.6131 63.3526 33.0838 61.1175 34.1162C61.1175 34.1162 61.016 34.089 60.9888 34.1905C61.1248 33.6831 61.3622 33.203 61.674 32.8515C62.7181 31.3911 64.0124 30.2153 65.4826 29.1954C65.6113 29.1211 66.0246 28.7969 65.9774 28.5667C65.8288 28.3094 65.3955 28.302 65.0638 28.3219C65.0638 28.3219 65.0638 28.3219 64.9623 28.2947C62.5858 28.6367 60.2763 29.5405 58.1626 30.9318C56.4351 32.1003 54.8562 33.5261 53.4531 35.1078C53.3244 35.1821 53.2701 35.385 53.1413 35.4593L53.1685 35.3578C53.1486 35.0262 53.1015 34.796 53.0543 34.5659C52.96 34.1056 52.8658 33.6453 52.7715 33.185C52.65 32.8262 52.4742 32.6703 52.3455 32.7446C52.1425 32.6902 51.9866 32.8659 51.905 33.1703L51.769 33.6777C51.7147 33.8807 51.6331 34.1851 51.5787 34.388C51.4428 34.8954 51.1781 35.477 50.9135 36.0586C50.018 37.7763 48.6149 39.358 46.5484 40.9795C46.2638 41.2295 46.0064 41.378 45.7218 41.628C44.665 42.3237 43.6825 43.148 42.7743 44.101C42.6728 44.0738 42.4697 44.0194 42.3954 43.8907C42.1181 43.7076 41.8135 43.626 41.4346 43.4157C40.4467 43.0423 39.5602 42.696 38.6466 42.4512C37.0223 42.016 35.2422 41.7565 33.6379 41.6529C30.9368 41.5817 28.2158 41.1789 25.4749 40.4444C24.5613 40.1996 23.6476 39.9548 22.6597 39.5813C22.1521 39.4453 21.6445 39.3093 21.1369 39.1733C20.7309 39.0645 20.2233 38.9285 19.8172 38.8197C19.0051 38.6021 18.2401 38.6146 17.3464 38.7014C15.2001 38.9964 14.7179 40.3898 14.3916 41.6075C14.2013 42.3178 14.0853 43.1568 13.9965 43.8943C13.9421 44.0972 13.9149 44.1987 13.8606 44.4016C13.3966 47.7576 13.4474 50.8164 14.1889 53.734C14.856 56.523 15.9836 59.2178 17.6732 61.8456C19.1126 64.189 20.8366 66.2823 22.9666 68.4844C23.1425 68.6403 23.3183 68.7961 23.467 69.0535C23.467 69.0535 23.5685 69.0807 23.5413 69.1821C23.3111 69.2292 23.2096 69.202 22.9793 69.2491C22.7491 69.2962 22.5189 69.3432 22.3902 69.4175C21.8011 69.5859 21.1104 69.7271 20.5212 69.8955C19.8034 70.1382 19.2614 70.5368 18.7937 71.064C18.4547 71.517 18.2173 71.9971 18.3859 72.5861C18.4529 73.1479 18.7774 73.5611 19.3593 73.8257C19.5624 73.8801 19.7382 74.036 19.8397 74.0632C20.5503 74.2536 21.3425 74.1396 21.9117 73.6396C22.1963 73.3896 22.3522 73.2138 22.6368 72.9638C22.7655 72.8896 22.7927 72.7881 22.9214 72.7138C23.4906 72.2138 24.1341 71.8424 24.852 71.5997C24.9535 71.6269 24.9807 71.5255 25.0822 71.5527C25.2109 71.4784 25.4139 71.5328 25.5427 71.4585C24.6889 72.2086 23.0284 73.9388 21.5565 76.5896C21.5021 76.7926 21.3462 76.9683 21.2918 77.1713C21.2374 77.3742 21.0544 77.6514 21 77.8544C20.681 78.6389 20.3347 79.525 19.9885 80.411C19.9069 80.7155 19.8254 81.0199 19.7166 81.4258C19.7166 81.4258 20.9094 80.2228 21.9191 79.297C22.5898 78.8241 23.159 78.3241 23.6466 78.1285C23.7753 78.0542 23.8769 78.0814 24.0056 78.0072C24.0056 78.0072 23.8769 78.0814 23.721 78.2572C23.0231 78.8315 21.4641 80.5889 20.3094 84.086C19.4466 86.9001 17.2043 88.3656 15.5855 89.1282C14.583 89.6209 13.7908 89.7349 13.7908 89.7349C13.7908 89.7349 17.7572 90.3627 20.2497 89.1816C19.4231 89.8302 16.8146 91.8502 12.8465 92.8533C11.2077 93.2843 9.85358 93.4653 8.29641 93.5918C8.29641 93.5918 8.29641 93.5918 8.39792 93.619C8.39792 93.619 23.9607 100.508 37.5185 102.292C46.751 103.569 50.4418 102.383 55.2819 102.593C56.1484 102.607 56.9877 102.723 57.9285 102.867C58.9709 103.037 60.1147 103.235 61.4344 103.589C61.4344 103.589 61.4344 103.589 61.3329 103.561C61.3329 103.561 61.2314 103.534 61.1571 103.405C61.0556 103.378 60.9812 103.25 60.8797 103.222C60.7782 103.195 60.6024 103.039 60.528 102.911L60.6296 102.938C60.7311 102.965 60.8054 103.094 60.9069 103.121C61.0084 103.148 61.0827 103.277 61.1843 103.304C61.2858 103.331 61.2586 103.433 61.3601 103.46C61.6375 103.643 61.9891 103.955 62.2665 104.138C62.368 104.165 62.4424 104.294 62.5439 104.321C62.6454 104.348 62.6454 104.348 62.7469 104.375C63.4031 104.769 64.1881 105.088 64.8715 105.38C65.0745 105.434 65.176 105.461 65.3519 105.617C66.3398 105.991 67.3278 106.364 68.3158 106.737C69.7098 107.22 71.1582 107.499 72.3764 107.826C74.0279 108.159 75.4763 108.439 76.2141 108.528C76.5186 108.609 76.6473 108.535 76.7489 108.562L76.8504 108.589L76.9519 108.616C77.5882 108.678 82.0766 108.576 86.177 104.237L86.3057 104.162C86.4616 103.987 86.5903 103.912 86.7462 103.737L86.8749 103.662C87.6272 102.885 88.2036 101.952 88.8344 100.816C89.4109 99.8828 89.8858 98.9225 90.3607 97.9621L90.3879 97.8607C90.571 97.5834 90.7269 97.4077 90.7813 97.2048C90.89 96.7989 91.229 96.3459 91.3378 95.94C91.4193 95.6356 91.5752 95.4599 91.6568 95.1554C92.1317 94.1951 92.5051 93.2076 92.7498 92.2943C92.8042 92.0914 92.8586 91.8885 93.0145 91.7127C98.5017 88.2889 102.345 84.0983 105.321 79.893C108.352 75.4847 110.341 70.9059 111.753 67.2602C114.502 59.8402 118.663 56.4959 118.663 56.4959C118.054 56.3327 117.336 56.5754 116.692 56.9467Z" stroke="#16D2D7" stroke-width="6" stroke-linejoin="round" mask="url(#path-1-outside-1_877_1449)"/>
<path d="M84.1945 73.7425C82.2201 74.468 80.8029 75.8344 79.2874 77.3779L72.0996 78.4526C72.0996 78.4526 68.9467 80.2863 64.1884 80.2658C63.4459 80.2533 62.5883 80.227 61.6432 80.2111C66.0397 76.7101 67.759 70.6101 65.9399 64.9351C65.9209 64.8792 65.9063 64.8074 65.8873 64.7515C65.8348 64.5679 65.7823 64.3843 65.6897 64.2239C65.4812 63.8629 65.5417 63.5739 65.9166 63.2505C67.0982 62.194 68.5164 61.7094 70.1312 61.82C70.3137 61.835 70.4444 61.8531 70.5394 61.8785C70.7608 61.9378 70.8345 62.0423 70.9288 62.5762C71.59 66.2456 73.3523 69.159 76.1481 71.3153C77.4264 72.302 78.8728 72.9777 80.3913 73.3846C81.6408 73.7194 82.9297 73.8444 84.1945 73.7425Z" fill="#181E3D"/>
<path d="M61.4845 103.58C60.1832 103.249 59.039 103.027 57.9612 102.874C57.0141 102.739 56.1377 102.656 55.3002 102.618C50.4736 102.41 46.8205 103.516 37.5586 102.272C24.1393 100.474 8.57318 93.5902 8.57318 93.5902C10.0733 93.4327 11.4195 93.217 12.707 92.7144C16.5846 91.719 19.2198 89.7297 20.0413 89.0682C20.1901 88.9555 20.2704 88.9092 20.2947 88.8818C17.8711 90.3346 13.562 89.5868 13.562 89.5868C13.562 89.5868 14.3354 89.4211 15.3644 88.9339C16.9739 88.1785 19.2077 86.6749 20.1044 83.8976C21.2393 80.4212 22.7814 78.7153 23.4509 78.1149C23.6325 77.9432 23.7571 77.8579 23.7772 77.8463C23.6854 77.8725 23.5735 77.9104 23.4574 77.964C23.0046 78.1987 22.4207 78.6695 21.7724 79.1909C20.6595 80.1811 19.5157 81.3495 19.5157 81.3495C19.6047 81.0173 19.6937 80.6852 19.7943 80.3731C20.2274 78.9464 20.769 77.6845 21.3673 76.5903C22.8431 73.8664 24.592 72.1481 25.4346 71.4076C26.2712 71.2588 27.4223 71.0756 27.9064 71.1036C29.6322 70.9896 31.3623 70.8598 33.1039 70.7501L33.2948 70.7335C33.9352 70.6846 34.6071 70.6443 35.2517 70.5797C35.4943 70.5599 35.6409 70.5823 35.7694 70.7354C36.1306 71.2221 36.6534 71.5486 37.381 71.7436C37.5392 71.786 37.6974 71.8283 37.8756 71.8592C38.2004 71.9123 38.5252 71.9654 38.8385 71.9985C39.1201 72.0231 39.5008 72.0573 39.8646 72.1548C40.2126 72.248 40.5162 72.3802 40.7871 72.5715C40.9715 72.7057 41.1887 72.7808 41.4059 72.856C41.485 72.8771 41.5599 72.9142 41.6189 72.9469C43.1039 77.4644 45.8777 80.4623 50.0686 82.0939C47.4239 83.2331 44.7678 85.0473 42.3362 87.9219C42.3362 87.9219 44.5917 86.7802 47.2615 86.7496C47.2615 86.7496 43.6037 89.0753 42.1535 96.8919C42.1535 96.8919 45.9255 92.4946 51.3266 93.0264C50.9551 93.1473 50.4676 93.3218 49.9473 93.5553C48.9796 93.9402 47.7573 94.579 46.8955 95.5179C46.8955 95.5179 50.492 95.8882 53.2828 96.9242C53.5749 97.0363 53.8669 97.1485 54.1389 97.2722C54.5332 97.4457 54.8874 97.6423 55.2057 97.8463C55.2057 97.8463 50.9714 98.0849 49.4381 99.5049C49.4381 99.5049 51.9169 99.491 55.0476 100.398C55.1583 100.427 55.269 100.457 55.3597 100.498C55.502 100.536 55.656 100.595 55.7983 100.633C55.8616 100.65 55.9407 100.671 55.9997 100.704C56.2169 100.779 56.4341 100.854 56.6513 100.929C56.7146 100.946 56.7736 100.979 56.8369 100.996C56.9002 101.013 56.975 101.05 57.034 101.083C57.0815 101.095 57.1089 101.12 57.1563 101.132C57.2154 101.165 57.2944 101.186 57.3535 101.219C57.4125 101.252 57.4916 101.273 57.5506 101.306C57.6097 101.338 57.6887 101.36 57.7636 101.397C57.8384 101.434 57.9017 101.451 57.9766 101.488C58.1104 101.557 58.2486 101.611 58.3824 101.681C58.4573 101.718 58.5163 101.751 58.5911 101.788C58.666 101.825 58.725 101.858 58.7999 101.895C59.367 102.182 59.9373 102.522 60.499 102.893C60.5581 102.925 60.6013 102.954 60.6561 103.002C60.7857 103.088 60.9154 103.174 61.0408 103.275C61.1272 103.332 61.1978 103.385 61.28 103.458C61.3707 103.499 61.4297 103.532 61.4845 103.58Z" fill="#181E3D"/>
<path d="M42.408 87.9066C42.5039 87.8646 42.7358 87.7574 43.0952 87.6167C42.66 87.7879 42.4038 87.9224 42.408 87.9066Z" fill="#181E3D"/>
<path d="M42.2295 96.8613C42.3753 96.6969 42.9741 96.0437 43.9475 95.3212C42.8453 96.1448 42.2253 96.8771 42.2253 96.8771L42.2295 96.8613Z" fill="#181E3D"/>
<path d="M23.7723 77.862C23.7523 77.8735 23.6436 77.963 23.4463 78.1303C23.6478 77.9472 23.7565 77.8577 23.7723 77.862Z" fill="#181E3D"/>
<path d="M33.9553 70.6728C34.1818 70.6488 34.4199 70.6449 34.6464 70.6209C34.4041 70.6406 34.1776 70.6646 33.9553 70.6728Z" fill="#181E3D"/>
<path d="M47.6807 83.3526C47.6603 83.3645 47.6398 83.3763 47.6398 83.3763C47.6441 83.3601 47.6603 83.3645 47.6807 83.3526Z" fill="#181E3D"/>
<path d="M17.58 87.5611C16.8388 88.1762 16.0566 88.6278 15.3801 88.9382C16.0408 88.6236 16.823 88.172 17.58 87.5611Z" fill="#181E3D"/>
<path d="M16.5781 89.7846C16.5619 89.7803 16.5619 89.7803 16.5414 89.7921C16.5619 89.7803 16.5781 89.7846 16.5781 89.7846Z" fill="#181E3D"/>
<path d="M16.8711 89.7614C16.8555 89.7572 16.8358 89.7686 16.8202 89.7644C16.8358 89.7686 16.8513 89.7728 16.8711 89.7614Z" fill="#181E3D"/>
<path d="M50.1044 82.0865C46.3595 80.6253 43.7529 78.079 42.1636 74.3304C43.7329 78.0906 46.3394 80.6369 50.1044 82.0865Z" fill="#181E3D"/>
<path d="M13.5864 89.5589C13.5864 89.5589 13.8572 89.496 14.2841 89.3564C13.8414 89.4918 13.5864 89.5589 13.5864 89.5589Z" fill="#181E3D"/>
<path d="M40.5869 72.4331C40.3782 72.3263 40.1494 72.2311 39.8963 72.1633C39.7065 72.1124 39.5283 72.0816 39.35 72.0508C39.5283 72.0816 39.7223 72.1166 39.8963 72.1633C40.1494 72.2311 40.3623 72.322 40.5869 72.4331Z" fill="#181E3D"/>
<path d="M35.785 70.7394C35.7071 70.6508 35.6366 70.598 35.5376 70.5884C35.6366 70.598 35.7272 70.6392 35.785 70.7394Z" fill="#181E3D"/>
<path d="M27.9222 71.1078C29.648 70.9938 31.378 70.864 33.1197 70.7543C31.378 70.864 29.6522 70.978 27.9222 71.1078C27.4338 71.0956 26.2828 71.2788 25.4504 71.4117C24.8538 71.93 23.8041 72.9372 22.7179 74.4601C23.7998 72.953 24.8538 71.93 25.4504 71.4117C26.287 71.263 27.438 71.0798 27.9222 71.1078Z" fill="#181E3D"/>
<path d="M21.3832 76.5945C21.084 77.1416 20.8123 77.7129 20.5436 78.336C20.8123 77.7129 21.0883 77.1257 21.3832 76.5945Z" fill="#181E3D"/>
<path d="M38.2156 71.9163C38.1166 71.9067 38.006 71.8771 37.907 71.8675C38.006 71.8771 38.1008 71.9024 38.2156 71.9163Z" fill="#181E3D"/>
<path d="M41.4211 72.8599C41.3897 72.8515 41.3582 72.843 41.331 72.8189C41.3624 72.8273 41.3939 72.8357 41.4211 72.8599Z" fill="#181E3D"/>
<path d="M23.469 77.9844C23.4851 77.9888 23.4895 77.9726 23.5056 77.9769C23.4895 77.9726 23.4733 77.9683 23.469 77.9844Z" fill="#181E3D"/>
<path d="M38.9364 72.0077C38.905 71.9993 38.885 72.0108 38.8536 72.0024C38.8892 71.9951 38.905 71.9993 38.9364 72.0077Z" fill="#181E3D"/>
<path d="M19.3813 89.3151C19.3456 89.3224 19.3057 89.3454 19.2701 89.3527C19.3099 89.3297 19.3456 89.3224 19.3813 89.3151Z" fill="#181E3D"/>
<path d="M21.9372 79.0824C22.4925 78.6548 22.9761 78.2419 23.393 78.0146C22.9761 78.2419 22.4967 78.639 21.9372 79.0824Z" fill="#181E3D"/>
<path d="M18.005 89.6415C17.9695 89.6487 17.9538 89.6445 17.9183 89.6518C17.9496 89.6602 17.9695 89.6487 18.005 89.6415Z" fill="#181E3D"/>
<path d="M19.6449 89.2163C19.605 89.2393 19.5693 89.2466 19.5337 89.2539C19.5693 89.2466 19.6092 89.2236 19.6449 89.2163Z" fill="#181E3D"/>
<path d="M17.4409 89.7276C17.425 89.7234 17.3888 89.7308 17.3729 89.7265C17.3888 89.7308 17.409 89.7191 17.4409 89.7276Z" fill="#181E3D"/>
<path d="M19.8973 89.0974C19.8574 89.1204 19.8218 89.1277 19.7819 89.1507C19.8176 89.1434 19.8574 89.1204 19.8973 89.0974Z" fill="#181E3D"/>
<path d="M17.7237 89.6848C17.7035 89.6964 17.6716 89.6879 17.6514 89.6996C17.6716 89.6879 17.6875 89.6922 17.7237 89.6848Z" fill="#181E3D"/>
<path d="M49.9989 93.5522C50.0549 93.5333 50.095 93.5101 50.1509 93.4912C50.095 93.5101 50.0348 93.5448 49.9789 93.5638C49.3151 93.8267 48.5183 94.2065 47.8183 94.731C48.5341 94.2108 49.3193 93.8109 49.9989 93.5522Z" fill="#181E3D"/>
<path d="M55.2372 97.8547C55.2372 97.8547 51.0546 98.0902 49.4939 99.486C50.9343 98.1597 54.7404 97.8741 55.2098 97.8304C55.2098 97.8304 55.2257 97.8346 55.2372 97.8547Z" fill="#181E3D"/>
<path d="M92.8881 51.8635C92.8184 51.9974 92.7528 52.1154 92.663 52.2609C92.6387 52.2883 92.6302 52.3199 92.6059 52.3473L92.3373 52.021C92.014 51.6462 91.718 51.2956 91.4104 50.925C91.0006 50.4931 90.5738 50.1245 90.2725 49.8573C90.2293 49.8287 90.1745 49.7801 90.1313 49.7516C88.677 48.5991 87.1569 47.8188 85.5752 47.395C84.1042 47.0008 82.5484 46.923 80.9754 47.1627C77.1921 47.7425 74.2846 49.8624 72.3015 53.4675C71.5023 54.9317 70.9824 56.5554 70.782 58.3157C70.7682 58.4306 70.7343 58.5572 70.7204 58.6722C70.712 58.7038 70.7077 58.7196 70.6992 58.7512C70.2679 58.6526 69.8482 58.5741 69.4274 58.563C67.5784 58.4405 65.8477 59.0787 64.191 60.5166C64.078 60.6219 63.9693 60.7115 63.8362 60.8284C63.7857 60.764 63.7351 60.6996 63.6803 60.651C63.5908 60.5422 63.5013 60.4335 63.4117 60.3247C61.6412 58.1381 59.4184 56.627 56.8255 55.8645C54.3276 55.1273 51.7041 55.2381 49.258 56.1423C46.9194 57.0245 44.8986 58.6191 43.4531 60.7238C42.6511 61.8821 42.0875 63.0365 41.7338 64.2301C41.629 64.558 41.479 64.7382 41.175 64.8602C40.8911 64.9706 40.6135 65.1844 40.4307 65.4236C40.0494 65.8978 39.59 66.2833 39.0053 66.5675C38.5926 66.779 38.141 66.9461 37.5944 67.0879C37.4667 67.1215 37.3233 67.1509 37.1998 67.1686C37.0205 67.2053 36.8411 67.2421 36.6575 67.2946L36.5815 67.3251C36.362 67.3849 36.1225 67.4564 36.0041 67.645C35.7474 68.034 35.3497 68.063 34.896 68.111C33.3168 68.2473 31.6859 68.3867 29.9516 68.5323L25.83 68.9197C25.83 68.9197 24.9586 69.0083 24.5293 69.0289C24.5293 69.0289 24.5134 69.0247 24.4976 69.0205C24.4185 68.9993 24.3205 68.9222 24.2268 68.8292C22.2947 66.8027 20.2699 64.6158 18.6401 62.0939C16.7513 59.1466 15.4816 56.2295 14.7944 53.1634C14.1995 50.5119 14.1554 47.7029 14.6454 44.5454C14.7709 43.6975 14.9639 42.8507 15.1526 42.0197L15.1877 41.8257C15.2482 41.5367 15.3487 41.2246 15.4883 40.9569C15.7971 40.3106 16.268 39.9452 16.9368 39.8532C17.7291 39.7433 18.4949 39.7959 19.2741 39.9878C19.3848 40.0175 19.4798 40.0429 19.5905 40.0726C21.6151 40.6151 23.617 41.5583 25.6944 42.9796C27.4187 44.1366 29.1356 45.2579 31.0322 46.0882C32.1245 46.5673 33.5604 47.1555 35.0947 47.5666C35.8064 47.7573 36.4677 47.8836 37.1374 47.9783C38.0844 48.1134 39.0465 48.066 40.091 47.8373L40.1628 47.8227C40.4139 47.7713 41.6705 47.4468 41.7044 47.3203C41.978 46.173 42.5624 45.1938 43.4178 44.4058C43.9584 43.9065 44.5581 43.4399 45.122 42.9807C45.3796 42.7784 45.6372 42.5762 45.8991 42.3582C46.201 42.117 46.503 41.8758 46.805 41.6346C47.4733 41.1017 48.1574 40.573 48.7752 39.9756C50.2642 38.5946 51.3102 37.0948 51.9419 35.4332C51.9964 35.736 51.9718 36.0176 51.9515 36.2834C51.9376 36.3983 51.928 36.4975 51.93 36.6167C51.9246 36.7 51.915 36.7991 51.8896 36.894C51.8715 37.0248 51.8576 37.1398 51.8553 37.2748C51.8488 37.4256 51.9646 37.6262 52.1186 37.6844L52.1502 37.6928C52.2926 37.731 52.4962 37.6669 52.5934 37.5573C52.6906 37.4477 52.7561 37.3297 52.8417 37.2C52.8988 37.1136 52.9558 37.0272 53.0129 36.9407C55.2917 33.9404 57.9176 31.796 61.0552 30.3989C61.8637 30.0391 62.6065 29.7974 63.3757 29.6475C63.3313 29.6865 63.307 29.7139 63.2627 29.7528C61.3314 31.4562 60.1153 33.1477 59.4674 35.0593C59.4547 35.1067 59.4262 35.15 59.4135 35.1974C59.3395 35.3471 59.1914 35.6465 59.5024 35.8146C59.7269 35.9256 60.11 35.8248 60.3148 35.6932C61.798 34.6497 63.501 34.2414 64.959 33.9878C65.4053 33.904 65.8547 33.8718 66.3357 33.8481C65.1923 34.7624 64.2197 35.6715 63.3895 36.6188L63.3208 36.6852L63.3672 36.7654C63.5586 37.1896 63.8696 37.3577 64.3718 37.255C64.4636 37.2287 64.567 37.2225 64.6588 37.1962C64.9658 37.1259 65.2686 37.0714 65.5872 37.0212C67.0442 36.8352 68.5239 36.9435 70.1215 37.3715C70.5485 37.486 71.3993 37.9174 72.4803 37.1729C72.4803 37.1729 72.4845 37.1571 72.5003 37.1613C72.6133 37.056 72.7063 36.9622 72.795 36.8843C74.1833 35.8153 75.6748 34.9943 77.2218 34.4086C78.1251 34.0743 79.0443 33.7442 79.9233 33.4372L80.4625 33.2596C82.6722 32.4785 84.5278 31.5008 86.1136 30.2644C87.3415 29.288 88.3364 28.2323 89.1311 27.0381C89.3921 26.6334 89.6921 26.273 89.9751 25.9759C90.1652 25.7725 90.2486 25.7779 90.296 25.7906C90.3751 25.8118 90.4847 25.909 90.5827 25.9861C91.4393 26.7751 92.2293 27.7496 92.8977 28.8611C94.5211 31.5339 95.4193 34.5718 95.6419 38.1067C96.0002 42.78 95.0442 47.4232 92.8881 51.8635Z" fill="#181E3D"/>
<path d="M55.4693 36.3782C56.1624 36.2588 57.0072 36.3326 57.3205 36.3657C57.3247 36.3499 57.3332 36.3182 57.3532 36.3066C58.9637 33.8393 60.9451 31.7594 63.1814 29.8666C63.2458 29.816 63.306 29.7813 63.3619 29.7624C63.3662 29.7466 63.382 29.7508 63.3862 29.735C63.4263 29.7118 63.4549 29.6686 63.4992 29.6296C62.7143 29.7753 61.9872 30.0213 61.1788 30.3811C58.0411 31.7781 55.4152 33.9226 53.1364 36.9229C53.1079 36.9661 52.7053 37.5194 52.6726 37.5784C53.6711 37.0153 54.2665 36.5645 55.4693 36.3782Z" fill="#2C4277"/>
<path d="M71.437 95.4143L70.8421 92.7628L71.8883 92.9075C71.9233 93.6628 71.9012 94.5045 71.437 95.4143Z" fill="white"/>
<path d="M75.3868 101.931C75.236 101.925 75.0936 101.887 74.9513 101.849C74.6666 101.772 74.4262 101.657 74.1858 101.542C74.0678 101.476 73.9455 101.427 73.8232 101.377L73.9814 97.8761C74.8301 99.1376 75.1333 100.473 75.3868 101.931Z" fill="white"/>
<path d="M83.9927 90.9464C83.6686 92.0293 83.329 92.8537 82.611 93.509L82.6711 90.8804L83.9927 90.9464Z" fill="white"/>
<path d="M83.0878 99.638L82.7878 96.4553C83.2871 96.9959 83.6102 97.625 83.7844 98.3667C83.8536 98.7413 83.6072 99.2177 83.0878 99.638Z" fill="white"/>
<path d="M90.6906 69.8718C87.6344 72.7994 84.0649 73.657 80.0855 72.4381C77.0309 71.5009 74.6706 69.4275 73.0826 66.3065C71.5251 63.2615 71.183 59.9827 72.0426 56.5851C72.4929 54.841 73.3102 53.2461 74.4616 51.8593C77.1944 48.5568 81.3763 47.1853 85.378 48.2575C86.849 48.6517 88.2194 49.3579 89.446 50.3478C92.9963 53.2317 94.635 57.1122 94.3202 61.8933C94.1118 65.0754 92.9029 67.7521 90.6906 69.8718Z" fill="url(#paint0_linear_877_1449)"/>
<path d="M41.9587 44.7268C41.8889 44.8606 41.8349 44.9987 41.7651 45.1326C41.5261 45.645 41.3114 46.1299 41.0651 46.6064C41.0281 46.6813 40.8993 46.7824 40.7758 46.8002C39.1203 47.2212 37.634 47.2637 36.2221 46.9023C33.0776 46.1106 30.1952 44.8466 27.6499 43.1474C26.9585 42.6909 26.247 42.246 25.5672 41.8096C25.2604 41.6256 24.9579 41.4259 24.6554 41.2262C27.1881 42.0235 29.9418 42.4392 33.4109 42.589C35.0858 42.6648 36.7342 42.9031 38.3318 43.3311C39.2017 43.5642 40.0748 43.849 40.915 44.1928C41.1754 44.2965 41.4432 44.4361 41.7152 44.5598C41.7974 44.6327 41.8722 44.6697 41.9587 44.7268Z" fill="#2C4277"/>
<path d="M57.2125 49.8651C57.2125 49.8651 57.8158 50.8405 58.2459 51.9559C58.2459 51.9559 53.4254 49.2572 47.7917 50.9856C47.7917 50.9856 49.7756 51.1104 50.623 51.7443C50.623 51.7443 45.1434 50.6829 41.3118 58.1496C41.3118 58.1496 42.3762 57.2142 42.9016 57.1515C42.9016 57.1515 39.0867 63.8598 39.0571 66.5643C39.646 66.2644 40.1011 65.8947 40.4825 65.4205C40.6853 65.1697 40.9587 64.9717 41.2268 64.857C41.5307 64.735 41.6807 64.5548 41.7855 64.2269C42.1393 63.0333 42.7029 61.8789 43.5049 60.7207C44.9504 58.6159 46.9554 57.0171 49.3097 56.1392C51.7443 55.2149 54.3635 55.1199 56.8773 55.8613C59.4702 56.6239 61.6972 58.1191 63.4635 60.3216C63.553 60.4303 63.6426 60.5391 63.7321 60.6478C63.7826 60.7122 63.8374 60.7608 63.888 60.8252C64.001 60.7199 64.114 60.6145 64.2428 60.5134C64.3573 59.137 64.1992 54.6022 57.2125 49.8651Z" fill="white"/>
<path d="M65.434 72.5809C64.5239 75.9141 62.9273 78.2665 60.4231 80.0198C60.0695 80.2641 59.7139 80.3892 59.2888 80.3939C57.0441 80.4197 54.742 80.7862 52.4702 81.4828C52.007 81.6299 51.6019 81.6231 51.1274 81.4959C47.942 80.5407 45.4455 78.5325 43.7171 75.4926C42.3014 72.9941 41.7415 70.1486 41.9979 67.4201C42.2363 64.8224 43.2276 62.3247 44.9093 60.3511C47.8954 56.8621 51.6426 55.5945 56.0748 56.5787C56.2488 56.6253 56.4112 56.6519 56.5852 56.6985C59.2266 57.4063 61.4051 58.9563 63.0858 61.2884C63.2679 61.5576 63.4659 61.831 63.6438 62.116C65.6979 65.3958 66.3085 69.0008 65.434 72.5809Z" fill="url(#paint1_linear_877_1449)"/>
<path d="M82.4521 45.5748C82.8744 45.2641 83.9703 45.2865 83.9703 45.2865C78.1287 43.5518 74.4983 46.8511 74.4983 46.8511C74.8282 46.1258 75.3226 45.5462 75.3226 45.5462C71.3531 46.5678 69.8442 50.5543 69.8442 50.5543C69.714 50.0277 69.9853 49.0154 69.9853 49.0154C67.3309 53.7969 69.2442 58.3613 69.2442 58.3613L69.4972 58.4291C69.8927 58.535 70.3209 58.582 70.7479 58.6964C70.7564 58.6648 70.7522 58.6806 70.7564 58.6648C70.7903 58.5382 70.7999 58.4391 70.8138 58.3241C71.0142 56.5639 71.5182 54.9358 72.3332 53.4759C74.3122 49.8866 77.2197 47.7668 81.0029 47.1869C82.5759 46.9473 84.1317 47.0251 85.6027 47.4192C87.1686 47.8388 88.7003 48.6391 90.1588 49.7759C90.3 49.8815 90.437 50.003 90.6098 50.1171L90.6804 50.1699C90.6847 50.1541 90.6847 50.1541 90.6847 50.1541C87.8873 45.7258 82.4521 45.5748 82.4521 45.5748Z" fill="white"/>
<path d="M34.6227 56.9834C34.7139 56.9573 34.8094 56.9154 34.8692 56.8809C34.9647 56.8391 34.8692 56.8809 34.6227 56.9834Z" fill="#181E3D"/>
<path d="M35.5134 69.6665C35.4617 69.6696 35.41 69.6727 35.3541 69.6916C35.1589 69.7241 34.9679 69.7407 34.777 69.7574C34.085 69.8093 33.3972 69.8454 32.7052 69.8973C31.4129 69.9749 30.0848 70.0598 28.7841 70.169C27.591 70.2562 26.3609 70.4182 25.2785 70.535C23.8575 70.7137 22.6637 71.3093 21.7217 72.2944C21.6044 72.4156 21.4957 72.5051 21.3785 72.6263C21.3141 72.6768 21.2655 72.7316 21.1968 72.798C20.8378 73.1256 20.4147 73.2496 19.9 73.1456C19.8526 73.1329 19.7893 73.1159 19.7419 73.1032C19.3623 73.0015 19.1273 72.8029 19.0296 72.4716C18.9014 72.0643 19.0147 71.7047 19.3367 71.4519C19.7875 71.0981 20.2056 70.8032 20.6646 70.6719C21.495 70.4197 22.604 70.1405 23.7022 70.0279C26.5948 69.7349 29.5465 69.4748 32.3948 69.2208C33.4371 69.1271 34.4635 69.0292 35.5058 68.9355C35.5216 68.9398 35.5374 68.944 35.5891 68.9409C35.5572 69.1866 35.5337 69.4007 35.5134 69.6665Z" fill="#F5FF2C"/>
<path d="M39.7499 70.2422C39.5157 70.2303 39.2931 70.2385 39.0547 70.2424C38.4113 70.2396 37.732 70.244 37.0812 70.2053C36.9462 70.203 36.8313 70.1892 36.7364 70.1637C36.4833 70.0959 36.3822 69.9671 36.4271 69.4197L36.424 69.368C36.4732 68.8048 36.5063 68.4916 36.5961 68.3461C36.6775 68.2323 36.8052 68.1987 37.1839 68.1137C37.3116 68.0801 37.4551 68.0507 37.6345 68.014C38.0692 67.9101 38.485 67.7503 38.8849 67.5862C39.0369 67.5252 39.2047 67.4685 39.3566 67.4075C39.4326 67.377 39.5244 67.3507 39.6047 67.3044C39.6448 67.2812 39.6806 67.2739 39.7366 67.255L39.7428 67.3583L39.7499 70.2422Z" fill="#F5FF2C"/>
<path d="M39.8363 71.1808C39.5624 71.192 39.2295 71.1706 38.8577 71.1048C39.2391 71.0716 39.5088 71.0761 39.6984 71.1269C39.7415 71.1554 39.7889 71.1681 39.8363 71.1808Z" fill="#F5FF2C"/>
<path d="M41.403 71.8549C41.2017 71.784 41.089 71.6351 41.0218 71.3798C41.004 71.2563 40.9661 71.1445 40.9325 71.0168C40.8108 70.4586 40.6733 69.8963 40.6234 69.3234C40.5703 68.6989 40.6049 68.064 40.6668 67.4533C40.6679 67.3858 40.6733 67.3025 40.6902 67.2392C40.7352 66.6918 40.8739 66.2373 41.3448 65.8719C41.2524 66.4066 41.18 66.9297 41.1393 67.4613C41.0194 68.921 41.1063 70.3683 41.403 71.8549Z" fill="#F5FF2C"/>
<path d="M70.7133 60.9758C68.5534 60.6853 66.7163 61.278 65.1144 62.7644C64.987 62.5438 64.8438 62.319 64.7122 62.1142L64.4301 61.6487C64.4544 61.6213 64.4586 61.6054 64.4829 61.578C64.5357 61.5074 64.5727 61.4326 64.6171 61.3936C66.0797 59.9207 67.7672 59.254 69.711 59.4019C69.8461 59.4042 69.9695 59.3864 70.0644 59.4118L70.1277 59.4288C70.6655 59.5729 70.7149 59.7048 70.7363 60.3208C70.7456 60.4759 70.7348 60.6425 70.7399 60.8134C70.7114 60.8566 70.7102 60.9241 70.7133 60.9758Z" fill="#F5FF2C"/>
<path d="M27.1077 68.2618C26.9917 68.3154 26.86 68.3648 26.7441 68.4184C26.8558 68.3806 26.9917 68.3154 27.1077 68.2618Z" fill="#181E3D"/>
<path opacity="0.5" d="M27.1077 68.2618C26.9917 68.3154 26.86 68.3648 26.7441 68.4184C26.8558 68.3806 26.9917 68.3154 27.1077 68.2618Z" fill="#181E3D"/>
<path d="M26.6678 68.4491C26.5561 68.4869 26.4401 68.5405 26.3284 68.5783C26.4401 68.5405 26.5518 68.5027 26.6678 68.4491Z" fill="#181E3D"/>
<path opacity="0.5" d="M26.6678 68.4491C26.5561 68.4869 26.4401 68.5405 26.3284 68.5783C26.4401 68.5405 26.5518 68.5027 26.6678 68.4491Z" fill="#181E3D"/>
<path d="M26.2002 68.612C26.0885 68.6498 25.9969 68.6761 25.8851 68.7138C25.9926 68.6919 26.1043 68.6541 26.2002 68.612Z" fill="#181E3D"/>
<path opacity="0.5" d="M26.2002 68.612C26.0885 68.6498 25.9969 68.6761 25.8851 68.7138C25.9926 68.6919 26.1043 68.6541 26.2002 68.612Z" fill="#181E3D"/>
<path d="M41.5209 48.0679C41.5041 48.1308 41.4715 48.1895 41.4504 48.2681C41.4673 48.2052 41.4883 48.1266 41.5209 48.0679Z" fill="#181E3D"/>
<path opacity="0.5" d="M41.5209 48.0679C41.5041 48.1308 41.4715 48.1895 41.4504 48.2681C41.4673 48.2052 41.4883 48.1266 41.5209 48.0679Z" fill="#181E3D"/>
<path d="M41.2471 48.7743C41.2059 48.8649 41.1847 48.9438 41.1435 49.0344C41.1805 48.9596 41.2217 48.8691 41.2471 48.7743Z" fill="#181E3D"/>
<path opacity="0.5" d="M41.2471 48.7743C41.2059 48.8649 41.1847 48.9438 41.1435 49.0344C41.1805 48.9596 41.2217 48.8691 41.2471 48.7743Z" fill="#181E3D"/>
<path d="M41.3504 48.5138C41.3136 48.5883 41.2926 48.6669 41.2516 48.757C41.2883 48.6826 41.3094 48.604 41.3504 48.5138Z" fill="#181E3D"/>
<path opacity="0.5" d="M41.3504 48.5138C41.3136 48.5883 41.2926 48.6669 41.2516 48.757C41.2883 48.6826 41.3094 48.604 41.3504 48.5138Z" fill="#181E3D"/>
<path d="M41.5876 47.8823C41.5707 47.9452 41.5423 47.9882 41.5255 48.051C41.5423 47.9882 41.555 47.941 41.5876 47.8823Z" fill="#181E3D"/>
<path opacity="0.5" d="M41.5876 47.8823C41.5707 47.9452 41.5423 47.9882 41.5255 48.051C41.5423 47.9882 41.555 47.941 41.5876 47.8823Z" fill="#181E3D"/>
<path d="M41.6926 47.5544C41.68 47.6016 41.6715 47.633 41.6432 47.676C41.6673 47.6487 41.68 47.6016 41.6926 47.5544Z" fill="#181E3D"/>
<path opacity="0.5" d="M41.6926 47.5544C41.68 47.6016 41.6715 47.633 41.6432 47.676C41.6673 47.6487 41.68 47.6016 41.6926 47.5544Z" fill="#181E3D"/>
<path d="M41.6502 47.7126C41.6376 47.7598 41.6249 47.807 41.5965 47.8499C41.6092 47.8027 41.6218 47.7556 41.6502 47.7126Z" fill="#181E3D"/>
<path opacity="0.5" d="M41.6502 47.7126C41.6376 47.7598 41.6249 47.807 41.5965 47.8499C41.6092 47.8027 41.6218 47.7556 41.6502 47.7126Z" fill="#181E3D"/>
<path d="M41.7875 47.3256C41.7791 47.357 41.7707 47.3885 41.7623 47.4199C41.755 47.3843 41.7634 47.3528 41.7875 47.3256Z" fill="#181E3D"/>
<path opacity="0.5" d="M41.7875 47.3256C41.7791 47.357 41.7707 47.3885 41.7623 47.4199C41.755 47.3843 41.7634 47.3528 41.7875 47.3256Z" fill="#181E3D"/>
<path d="M41.43 48.2808C41.409 48.3595 41.3764 48.4181 41.3553 48.4968C41.3722 48.4339 41.409 48.3595 41.43 48.2808Z" fill="#181E3D"/>
<path opacity="0.5" d="M41.43 48.2808C41.409 48.3595 41.3764 48.4181 41.3553 48.4968C41.3722 48.4339 41.409 48.3595 41.43 48.2808Z" fill="#181E3D"/>
<path d="M40.4713 50.7195C40.4217 50.8417 40.3763 50.948 40.3266 51.0702C40.372 50.9638 40.4217 50.8417 40.4713 50.7195Z" fill="#181E3D"/>
<path opacity="0.5" d="M40.4713 50.7195C40.4217 50.8417 40.3763 50.948 40.3266 51.0702C40.372 50.9638 40.4217 50.8417 40.4713 50.7195Z" fill="#181E3D"/>
<path d="M40.298 51.1138C40.2483 51.2359 40.1987 51.3581 40.149 51.4802C40.2029 51.3423 40.2526 51.2201 40.298 51.1138Z" fill="#181E3D"/>
<path opacity="0.5" d="M40.298 51.1138C40.2483 51.2359 40.1987 51.3581 40.149 51.4802C40.2029 51.3423 40.2526 51.2201 40.298 51.1138Z" fill="#181E3D"/>
<path d="M27.9447 67.8588C27.8087 67.924 27.6843 68.0092 27.5484 68.0743C27.6886 67.9934 27.8087 67.924 27.9447 67.8588Z" fill="#181E3D"/>
<path opacity="0.5" d="M27.9447 67.8588C27.8087 67.924 27.6843 68.0092 27.5484 68.0743C27.6886 67.9934 27.8087 67.924 27.9447 67.8588Z" fill="#181E3D"/>
<path d="M40.6206 50.3526C40.5752 50.4589 40.5255 50.5811 40.4801 50.6874C40.5255 50.5811 40.571 50.4747 40.6206 50.3526Z" fill="#181E3D"/>
<path opacity="0.5" d="M40.6206 50.3526C40.5752 50.4589 40.5255 50.5811 40.4801 50.6874C40.5255 50.5811 40.571 50.4747 40.6206 50.3526Z" fill="#181E3D"/>
<path d="M40.7655 50.0015C40.7201 50.1078 40.6747 50.2142 40.625 50.3363C40.6704 50.23 40.7201 50.1078 40.7655 50.0015Z" fill="#181E3D"/>
<path opacity="0.5" d="M40.7655 50.0015C40.7201 50.1078 40.6747 50.2142 40.625 50.3363C40.6704 50.23 40.7201 50.1078 40.7655 50.0015Z" fill="#181E3D"/>
<path d="M41.1348 49.0664C41.0936 49.1569 41.0682 49.2517 41.027 49.3422C41.0682 49.2517 41.1136 49.1453 41.1348 49.0664Z" fill="#181E3D"/>
<path opacity="0.5" d="M41.1348 49.0664C41.0936 49.1569 41.0682 49.2517 41.027 49.3422C41.0682 49.2517 41.1136 49.1453 41.1348 49.0664Z" fill="#181E3D"/>
<path d="M40.902 49.682C40.8566 49.7884 40.8112 49.8947 40.7657 50.0011C40.8154 49.8789 40.8608 49.7726 40.902 49.682Z" fill="#181E3D"/>
<path opacity="0.5" d="M40.902 49.682C40.8566 49.7884 40.8112 49.8947 40.7657 50.0011C40.8154 49.8789 40.8608 49.7726 40.902 49.682Z" fill="#181E3D"/>
<path d="M18.3197 39.8168C18.3197 39.8168 16.7859 39.8466 17.5934 43.7926C17.5934 43.7926 16.4588 40.8778 16.6455 39.9276C16.8439 38.9975 18.3197 39.8168 18.3197 39.8168Z" fill="#181E3D"/>
<path d="M40.2502 47.8122L40.1784 47.8269C39.1339 48.0556 38.156 48.0987 37.2248 47.9678C36.5551 47.8731 35.8939 47.7468 35.1821 47.5561C33.6478 47.145 32.2119 46.5568 31.1197 46.0777C29.2231 45.2474 27.5177 44.1462 25.7818 42.9691C23.7002 41.5637 21.7025 40.6046 19.6779 40.0621C19.5672 40.0324 19.4723 40.007 19.3616 39.9773C18.5823 39.7855 17.8123 39.7487 17.0243 39.8427C16.3554 39.9347 15.8887 40.2843 15.5757 40.9464C15.452 41.2184 15.3398 41.5104 15.2751 41.8152L15.2401 42.0092C15.0513 42.8402 14.8742 43.6912 14.7329 44.5349C14.247 47.6766 14.2911 50.4856 14.8818 53.1529C15.569 56.219 16.8229 59.1318 18.7275 62.0834C20.3574 64.6053 22.3821 66.7922 24.3142 68.8187C24.408 68.9117 24.5218 68.993 24.5851 69.01C24.7444 68.9849 24.8879 68.9555 25.0314 68.9261C25.1031 68.9114 25.1748 68.8968 25.2308 68.8778C25.3025 68.8632 25.3943 68.8369 25.4661 68.8222C25.5579 68.796 25.6497 68.7697 25.7415 68.7434C25.7974 68.7245 25.8491 68.7214 25.905 68.7025C26.0169 68.6647 26.1087 68.6384 26.2205 68.6006C26.2564 68.5932 26.2965 68.5701 26.3324 68.5627C26.4442 68.5249 26.5603 68.4712 26.6722 68.4334C26.6922 68.4218 26.7281 68.4145 26.7482 68.4029C26.8801 68.3535 26.9962 68.2998 27.1123 68.2462C27.1323 68.2346 27.1323 68.2346 27.1524 68.223C27.2284 68.1925 27.2885 68.1578 27.3645 68.1273C27.3645 68.1273 27.5925 68.0358 27.9133 67.8505C27.9334 67.8389 27.9334 67.8389 27.9535 67.8273C28.8359 67.3179 30.4333 66.1015 31.0108 63.8828C31.0108 63.8828 28.8919 66.3496 26.9536 66.8135C17.4112 56.7465 18.0945 46.3511 18.0945 46.3511C18.8092 48.4922 20.9933 49.7047 20.9933 49.7047C19.4298 48.2007 18.6507 42.5671 18.6507 42.5671C20.5464 47.7031 25.9441 51.0312 25.9441 51.0312C23.6518 49.3998 22.5425 44.7457 22.5425 44.7457C29.0079 51.4283 36.9725 51.6298 39.4093 51.5199C39.3055 52.7296 38.6865 54.3438 38.6865 54.3438C39.8413 52.7545 41.5294 48.0363 41.5294 48.0363L41.5337 48.0205C41.5506 47.9572 41.5834 47.8982 41.5961 47.8507C41.6003 47.8349 41.6003 47.8349 41.6046 47.8191C41.6173 47.7716 41.6458 47.7284 41.6585 47.681C41.6628 47.6651 41.6628 47.6651 41.667 47.6493C41.6797 47.6019 41.6924 47.5544 41.7167 47.527L41.721 47.5112C41.7294 47.4796 41.7379 47.4479 41.7464 47.4163L41.7506 47.4005C41.7591 47.3688 41.7676 47.3372 41.7761 47.3056C41.6303 47.47 40.4855 47.7565 40.2502 47.8122Z" fill="#2C4277"/>
<path d="M91.1719 29.9244C87.577 37.963 81.3536 41.4491 81.3536 41.4491L91.2563 50.1717C96.2645 41.4775 91.1719 29.9244 91.1719 29.9244Z" fill="#181E3D"/>
<path d="M95.7092 38.1078C95.4909 34.5571 94.5884 31.535 92.9651 28.8622C92.2966 27.7507 91.5182 26.7962 90.65 25.9872C90.6226 25.9629 90.5837 25.9186 90.5405 25.89C90.4808 26.3657 90.194 28.0689 89.1894 30.1731C88.115 32.4112 85.9573 35.5287 81.8336 37.6957C81.7333 37.7536 81.6141 37.7555 81.5192 37.7301C81.4085 37.7004 81.3105 37.6233 81.241 37.503C81.1295 37.2866 81.2173 37.0219 81.4337 36.9104C87.3285 33.8279 89.052 28.6614 89.5238 26.5839C89.471 26.6546 89.4182 26.7252 89.3654 26.7958C89.3125 26.8664 89.2555 26.9528 89.2027 27.0234C88.408 28.2176 87.4131 29.2733 86.1852 30.2497C84.5951 31.5019 82.7554 32.4839 80.5341 33.2449L79.9949 33.4225C79.1 33.7252 78.1809 34.0553 77.2934 34.3939C75.7463 34.9796 74.2665 35.8206 72.8665 36.8696C72.762 36.9433 72.6691 37.037 72.5719 37.1466C72.5719 37.1466 72.5677 37.1624 72.5519 37.1582C72.4875 37.2088 72.4273 37.2435 72.3671 37.2782C72.3471 37.2898 72.327 37.3014 72.307 37.313C72.2669 37.3361 72.2267 37.3593 72.1866 37.3824C72.1666 37.394 72.1307 37.4014 72.1106 37.4129C72.0748 37.4203 72.0505 37.4477 72.0146 37.455C71.9946 37.4666 71.9587 37.4739 71.9386 37.4855C71.9028 37.4929 71.8827 37.5044 71.8468 37.5118C71.811 37.5191 71.7909 37.5307 71.755 37.538C71.735 37.5496 71.7192 37.5454 71.6833 37.5527C71.5556 37.5863 71.4164 37.5999 71.2972 37.6018C71.7801 37.6973 72.4487 37.8595 73.2396 38.0714C73.2396 38.0714 77.1837 38.7892 79.1886 38.1397C79.1886 38.1397 77.5718 38.8593 75.9895 38.9439C75.9737 38.9397 75.9737 38.9397 75.9536 38.9512C77.5605 39.5344 79.4096 40.3519 81.3217 41.4407C81.3217 41.4407 87.5451 37.9546 91.1401 29.9159C91.1401 29.9159 95.9643 40.8886 91.5892 49.4981C90.7953 48.2851 87.7088 46.6444 87.7088 46.6444C89.1286 47.4825 91.3097 50.2878 91.4846 50.5211C91.8763 51.0838 92.2638 51.6623 92.627 52.2682C92.7168 52.1227 92.7866 51.9889 92.8521 51.8708C95.0441 47.4232 96 42.7799 95.7092 38.1078Z" fill="#2C4277"/>
<path d="M52.0296 35.4227C50.9888 37.7885 49.4479 39.4269 48.3106 40.4445L51.1441 38.4743C52.3271 37.096 52.0296 35.4227 52.0296 35.4227Z" fill="#2C4277"/>
<path d="M43.9783 61.6105L65.6376 71.5675L65.4795 74.1189L64.2996 75.5489L42.3494 65.4122L42.7625 63.0478L43.9783 61.6105Z" fill="url(#paint2_linear_877_1449)"/>
<path d="M72.78 53.8329L94.435 63.8058L93.9702 66.1733L93.097 67.7871L71.1468 57.6505L71.5599 55.2861L72.78 53.8329Z" fill="url(#paint3_linear_877_1449)"/>
<path d="M87.2024 102.249C87.8764 101.379 88.5242 100.417 89.1827 99.2878C88.7008 100.074 87.9948 101.19 87.2024 102.249Z" fill="#181E3D"/>
<path d="M93.7028 54.2008C93.5765 53.9127 93.1682 53.1591 93.1682 53.1591C93.2896 53.0221 93.4492 52.7428 93.5603 52.5182C93.5645 52.5024 93.5687 52.4866 93.5888 52.475C95.327 49.0247 96.3304 45.3435 96.5891 41.5307C96.864 37.4679 96.2808 33.8871 94.847 30.5701C93.9329 28.4773 92.762 26.7735 91.2563 25.3698C90.9982 25.1311 90.7821 24.9885 90.5607 24.9291C90.1969 24.8316 89.8571 24.961 89.4653 25.3476C89.1178 25.6953 88.7851 26.1147 88.3941 26.6881C87.7379 27.682 86.9045 28.5776 85.8455 29.4297C84.2871 30.6904 82.4432 31.6882 80.1775 32.4882L79.7301 32.6395C78.7392 32.9843 77.7125 33.3364 76.7247 33.7329C74.9613 34.4302 73.3854 35.3133 72.0433 36.4625C71.7128 36.7469 71.4501 36.7782 71.0389 36.668L71.0072 36.6595C70.8965 36.6299 70.7773 36.6318 70.6508 36.5979C68.6104 36.0512 66.7888 35.953 65.0881 36.2263C65.1568 36.1599 65.2212 36.1094 65.2898 36.043C65.5644 35.7775 65.8305 35.5437 66.1082 35.3299C66.3457 35.1392 66.6149 34.9571 66.8641 34.7865C67.3666 34.4295 68.3027 34.0361 68.6721 33.7961C68.9213 33.6255 68.8614 33.406 68.8614 33.406C68.7857 33.1823 68.653 33.045 68.4474 32.9899C68.3367 32.9603 68.2333 32.9665 68.1341 32.9568C68.1025 32.9484 68.0824 32.96 68.0508 32.9515C65.5858 32.8504 63.2383 33.3233 61.0726 34.3197C61.0325 34.3428 60.9966 34.3502 60.9407 34.3691C61.128 33.8598 61.3458 33.4266 61.6427 33.0145C62.6603 31.5579 63.9359 30.3401 65.4223 29.3482C65.5469 29.263 65.9344 28.8921 65.8619 28.7201C65.7198 28.4277 65.2388 28.4514 64.9128 28.4658C64.877 28.4731 64.8569 28.4847 64.8411 28.4805C62.46 28.8257 60.1731 29.7048 58.0681 31.1073C56.2968 32.2771 54.7361 33.6729 53.383 35.2429C53.2816 35.3683 53.1686 35.4737 53.027 35.6222C53.0228 35.638 53.0028 35.6496 53.0028 35.6496C52.9996 35.5979 52.9965 35.5462 52.9892 35.5104C52.9664 35.216 52.9551 34.9418 52.9195 34.6949C52.8484 34.2012 52.7487 33.7506 52.6606 33.3202C52.5914 32.9456 52.3943 32.8589 52.2435 32.8524C52.0768 32.8416 51.9079 32.9659 51.7946 33.3255C51.7649 33.4362 51.6717 33.7842 51.659 33.8316C51.5796 34.0646 51.5044 34.2818 51.4251 34.5149C51.2451 35.06 51.0451 35.6167 50.786 36.1406C49.8947 37.8853 48.4984 39.4268 46.3985 41.0002C46.1409 41.2024 45.8674 41.4004 45.594 41.5983C44.5805 42.3439 43.5269 43.1127 42.6334 44.043L42.6175 44.0388L42.6017 44.0345C42.4794 43.9848 42.3456 43.915 42.2275 43.8495C41.9281 43.7015 41.6287 43.5534 41.305 43.4328C40.3698 43.0636 39.4378 42.746 38.5046 42.4959C36.8438 42.0509 35.1479 41.8 33.4845 41.7442C30.7769 41.6629 28.0549 41.2556 25.3977 40.5436C24.4803 40.2978 23.5397 40.0119 22.6277 39.6827C22.1775 39.5282 21.6755 39.3768 21.0745 39.2157C20.6316 39.097 20.1845 38.9942 19.7891 38.8882C19.0256 38.7006 18.1997 38.6827 17.3357 38.8072C15.2288 39.1412 14.6977 40.4907 14.3628 41.7403C14.1637 42.4837 14.0594 43.2525 13.9393 44.0171C13.9127 44.1795 13.8861 44.3419 13.8596 44.5043C13.346 47.876 13.43 50.9161 14.148 53.8039C14.8324 56.5642 15.9821 59.2965 17.5865 61.9133C18.994 64.1891 20.7214 66.3472 22.8495 68.528C23.0096 68.6896 23.1539 68.8469 23.3214 69.0443C23.3446 69.0845 23.3878 69.113 23.4109 69.1531C23.3951 69.1489 23.3751 69.1604 23.3592 69.1562C23.1641 69.1887 23.0048 69.2138 22.8412 69.2547C22.6418 69.303 22.4266 69.3471 22.2271 69.3954C21.6131 69.536 20.9631 69.6839 20.3522 69.8762C19.6536 70.079 19.0551 70.478 18.585 71.0302C18.2079 71.4886 18.048 72.0221 18.1307 72.5359C18.2292 73.0539 18.5631 73.5163 19.0785 73.807C19.2398 73.9011 19.4254 73.9678 19.6152 74.0186C20.3111 74.2051 21.0803 74.0552 21.6441 73.596C21.9017 73.3938 22.1277 73.1831 22.3579 72.9566C22.4508 72.8628 22.5395 72.7848 22.6325 72.6911C23.2175 72.1528 23.855 71.7981 24.5809 71.6196C24.5809 71.6196 24.5968 71.6238 24.6168 71.6123C24.6886 71.5976 24.7603 71.5829 24.8479 71.5725C25.0114 71.5315 25.2583 71.4959 25.5252 71.4488C26.3619 71.3 27.5129 71.1168 27.997 71.1448C29.7228 71.0308 31.4529 70.9011 33.1787 70.7871L33.3696 70.7705C34.01 70.7216 34.6819 70.6813 35.3265 70.6167C35.5691 70.5969 35.7157 70.6193 35.8442 70.7724C36.2054 71.2591 36.7282 71.5856 37.4558 71.7806C37.614 71.823 37.7722 71.8653 37.9504 71.8961C38.2752 71.9493 38.6 72.0024 38.9133 72.0355C39.1949 72.0601 39.5756 72.0943 39.9394 72.1918C40.2874 72.285 40.591 72.4172 40.8461 72.6042C41.0305 72.7384 41.2477 72.8136 41.4649 72.8887C41.544 72.9099 41.6188 72.9469 41.6779 72.9797C43.1672 77.4813 45.9251 80.475 50.1318 82.1108C50.2225 82.152 50.3016 82.1732 50.3922 82.2145C50.3521 82.2376 50.3321 82.2492 50.292 82.2724C50.292 82.2724 50.292 82.2724 50.3078 82.2766C50.4439 82.2114 50.7078 82.1125 51.0275 81.9948C51.3874 81.8539 51.819 81.6983 52.2305 81.5543L52.2147 81.55C52.143 81.5647 52.0712 81.5794 52.0037 81.5782C51.9879 81.574 51.9678 81.5856 51.952 81.5813C51.952 81.5813 51.952 81.5813 51.9362 81.5771C51.8687 81.576 51.797 81.5907 51.7337 81.5737C51.7179 81.5695 51.7021 81.5652 51.6978 81.581C51.6461 81.5841 51.5987 81.5714 51.547 81.5745L51.5312 81.5703C51.5312 81.5703 51.5312 81.5703 51.5153 81.5661C51.4679 81.5533 51.4004 81.5522 51.3529 81.5395L51.3371 81.5353C51.2739 81.5183 51.2264 81.5056 51.1631 81.4886C47.9777 80.5334 45.4812 78.5252 43.7529 75.4852C42.3371 72.9868 41.7773 70.1413 42.0337 67.4128C42.0967 66.7346 42.203 66.085 42.3609 65.4322C42.6895 64.0793 43.2396 62.7857 43.9941 61.6147C44.2837 61.1668 44.5964 60.7589 44.9408 60.3596C47.9269 56.8706 51.6741 55.603 56.1063 56.5872C56.2803 56.6338 56.4427 56.6604 56.6167 56.707C59.2581 57.4148 61.4366 58.9648 63.1173 61.2969C63.2994 61.5661 63.4974 61.8395 63.6753 62.1245C65.524 65.095 66.1963 68.3436 65.665 71.5918C65.6076 71.9324 65.5344 72.2688 65.4612 72.6052C65.1688 73.6966 64.7826 74.6951 64.3227 75.589C63.3901 77.4243 62.1184 78.8805 60.4504 80.0441C60.3501 80.102 60.2657 80.1641 60.1654 80.222C60.1453 80.2336 60.1453 80.2336 60.1253 80.2452C60.1253 80.2452 60.1095 80.2409 60.1052 80.2568C60.0852 80.2683 60.0852 80.2683 60.0651 80.2799C60.0493 80.2757 60.0451 80.2915 60.0292 80.2873C60.0092 80.2988 59.9776 80.2904 59.9575 80.3019C59.9374 80.3135 59.9174 80.3251 59.8858 80.3166L59.8815 80.3324C59.8615 80.344 59.8414 80.3556 59.8256 80.3514C59.7897 80.3587 59.7338 80.3776 59.6979 80.385C59.662 80.3923 59.6103 80.3954 59.5745 80.4027C59.5228 80.4059 59.4869 80.4132 59.4352 80.4163C59.3835 80.4194 59.3477 80.4267 59.3002 80.414C59.8603 80.4115 60.9246 80.4255 61.4647 80.4345C61.4647 80.4345 61.4647 80.4346 61.4689 80.4187C61.4689 80.4187 61.4689 80.4187 61.4531 80.4145C61.4774 80.3871 61.5017 80.3597 61.5217 80.3481L61.5418 80.3365C61.5819 80.3134 61.6104 80.2702 61.6505 80.247C61.8638 80.0838 62.0655 79.9005 62.2629 79.733C62.396 79.6161 62.529 79.4991 62.6505 79.3622C62.6991 79.3074 62.7635 79.2568 62.8121 79.202C62.8807 79.1357 62.9536 79.0535 63.0223 78.9871C63.1395 78.8659 63.261 78.7289 63.3824 78.592C63.4997 78.4708 63.6053 78.3296 63.711 78.1884C63.8324 78.0514 63.9423 77.8943 64.048 77.7531C64.1008 77.6825 64.1494 77.6277 64.1864 77.5529C64.2434 77.4665 64.2963 77.3958 64.3533 77.3094C64.4019 77.2546 64.4389 77.1798 64.4717 77.1208C64.5288 77.0343 64.5858 76.9479 64.6271 76.8572C64.6598 76.7982 64.7127 76.7276 64.7454 76.6686C64.831 76.5389 64.905 76.3892 64.9748 76.2553C65.0076 76.1963 65.0404 76.1373 65.0731 76.0783C65.1429 75.9444 65.2085 75.8263 65.2624 75.6882C65.2952 75.6292 65.3279 75.5701 65.3449 75.5069C65.4189 75.3572 65.4771 75.2032 65.5511 75.0535C65.5924 74.9629 65.6336 74.8722 65.6591 74.7773C65.6961 74.7025 65.7215 74.6076 65.7585 74.5327C66.8527 71.5879 66.977 68.2137 65.9271 64.9826C65.9082 64.9267 65.8935 64.8549 65.8746 64.799C65.8221 64.6154 65.7695 64.4318 65.6769 64.2714C65.4685 63.9104 65.529 63.6214 65.9038 63.2981C67.0854 62.2415 68.5037 61.7569 70.1185 61.8675C70.3009 61.8825 70.4317 61.9006 70.5266 61.926C70.748 61.9853 70.8217 62.0898 70.916 62.6237C71.5772 66.2931 73.3395 69.2065 76.1354 71.3628C77.4137 72.3495 78.8601 73.0252 80.3785 73.4321C80.505 73.466 80.6115 73.5115 80.7381 73.5454C80.8171 73.5666 80.8804 73.5836 80.9595 73.6047C80.9753 73.609 81.007 73.6175 81.0228 73.6217C81.086 73.6386 81.1651 73.6598 81.2485 73.6652C81.4425 73.7003 81.6524 73.7395 81.8506 73.7588C81.9182 73.7599 81.9814 73.7769 82.0489 73.778C82.0647 73.7822 82.0964 73.7907 82.1164 73.7791C82.1839 73.7803 82.2472 73.7972 82.3147 73.7983C82.398 73.8037 82.4814 73.8091 82.5647 73.8145C82.6164 73.8114 82.6638 73.8241 82.7155 73.821C82.7988 73.8263 82.8663 73.8275 82.9497 73.8329C83.0014 73.8298 83.0689 73.8309 83.1364 73.832C83.1881 73.8289 83.2197 73.8374 83.2556 73.8301C83.4265 73.825 83.5973 73.8199 83.7682 73.8149C83.8515 73.8202 83.9233 73.8055 84.0066 73.8109C84.0942 73.8005 84.1617 73.8016 84.2493 73.7912C84.3368 73.7807 84.4201 73.7861 84.4919 73.7714C84.7704 73.7443 85.0689 73.7056 85.3359 73.6585C85.4277 73.6322 85.531 73.626 85.6229 73.5998C85.7305 73.5778 85.8381 73.5557 85.9299 73.5295C85.9658 73.5221 86.0217 73.5032 86.0576 73.4959C86.1293 73.4812 86.201 73.4665 86.277 73.436C86.3688 73.4097 86.4406 73.3951 86.5324 73.3688C86.5682 73.3615 86.6084 73.3383 86.6601 73.3352C86.7318 73.3205 86.8078 73.29 86.8838 73.2595C86.9038 73.2479 86.9196 73.2522 86.9397 73.2406C87.0315 73.2143 87.1075 73.1838 87.1993 73.1576C87.2911 73.1313 87.3671 73.1008 87.4631 73.0588C87.5391 73.0283 87.6151 72.9978 87.691 72.9673C87.7069 72.9715 87.7111 72.9557 87.7269 72.9599C87.8029 72.9294 87.8831 72.8831 87.9591 72.8526C88.0351 72.8221 88.1111 72.7916 88.1913 72.7453C88.5396 72.5843 88.8763 72.4033 89.1972 72.218C89.2774 72.1717 89.3376 72.137 89.4178 72.0907C89.4822 72.0401 89.5582 72.0096 89.6226 71.9591C89.9519 71.7422 90.2697 71.5052 90.5717 71.264C90.616 71.225 90.6561 71.2019 90.7005 71.1629C90.7448 71.1239 90.7849 71.1008 90.8135 71.0576C90.8578 71.0186 90.9022 70.9796 90.9465 70.9406C91.1683 70.7458 91.3942 70.5351 91.6087 70.3043C91.6815 70.2221 91.7502 70.1558 91.8231 70.0736L91.8273 70.0578C91.9002 69.9756 91.973 69.8934 92.0459 69.8112C92.1188 69.729 92.1917 69.6468 92.2688 69.5488C92.3174 69.494 92.3702 69.4234 92.423 69.3528C92.4473 69.3254 92.4759 69.2822 92.5002 69.2548C92.5572 69.1684 92.6259 69.102 92.6829 69.0156C92.7558 68.9334 92.8171 68.8311 92.8784 68.7289C92.9355 68.6425 92.9968 68.5402 93.0697 68.458C93.0739 68.4422 93.094 68.4306 93.094 68.4306C93.1267 68.3716 93.1753 68.3168 93.2081 68.2578C93.2409 68.1988 93.2894 68.144 93.3265 68.0691C93.3307 68.0533 93.3349 68.0375 93.3508 68.0417C93.3878 67.9669 93.4406 67.8963 93.4776 67.8214C93.5347 67.735 93.5759 67.6443 93.6171 67.5537C95.8184 63.2611 95.8702 58.7655 93.7028 54.2008ZM33.4065 42.6048C35.0815 42.6807 36.7457 42.9231 38.3274 43.347C39.1973 43.5801 40.0704 43.8649 40.9107 44.2087C41.1711 44.3124 41.4388 44.4519 41.7108 44.5757C41.8015 44.6169 41.8763 44.6539 41.967 44.6952C41.8972 44.829 41.8433 44.9672 41.7735 45.101C41.5345 45.6134 41.3198 46.0983 41.0734 46.5748C41.0364 46.6497 40.9076 46.7508 40.7842 46.7686C39.1287 47.1896 37.6424 47.2321 36.2304 46.8707C33.0859 46.079 30.2036 44.815 27.6582 43.1158C26.9668 42.6593 26.2553 42.2144 25.5755 41.778C25.2688 41.5941 24.9663 41.3943 24.6638 41.1946C27.1996 42.0436 29.9332 42.4709 33.4065 42.6048ZM35.354 69.6916C35.1588 69.7241 34.9679 69.7408 34.7769 69.7574C34.0849 69.8093 33.3971 69.8454 32.7051 69.8973C31.4128 69.9749 30.0847 70.0598 28.784 70.169C27.5909 70.2562 26.3608 70.4182 25.2784 70.535C23.8574 70.7137 22.6637 71.3093 21.7216 72.2944C21.6044 72.4156 21.4956 72.5051 21.3784 72.6263C21.314 72.6768 21.2654 72.7316 21.1967 72.798C20.8377 73.1256 20.4146 73.2496 19.9 73.1456C19.8525 73.1329 19.7892 73.1159 19.7418 73.1032C19.3622 73.0015 19.1272 72.8029 19.0295 72.4716C18.9013 72.0643 19.0146 71.7047 19.3366 71.4519C19.7874 71.0981 20.2055 70.8032 20.6645 70.6719C21.4949 70.4198 22.6039 70.1405 23.7021 70.0279C26.5947 69.735 29.5464 69.4748 32.3947 69.2208C33.437 69.1271 34.4634 69.0292 35.5057 68.9355C35.5215 68.9398 35.5374 68.944 35.589 68.9409C35.5571 69.1866 35.5495 69.405 35.5133 69.6665C35.4616 69.6696 35.4099 69.6727 35.354 69.6916ZM37.0811 70.2053C36.9461 70.203 36.8312 70.1892 36.7363 70.1637C36.4832 70.0959 36.3821 69.9671 36.427 69.4197L36.4239 69.368C36.4731 68.8048 36.5062 68.4916 36.596 68.3461C36.6774 68.2323 36.8051 68.1987 37.1839 68.1137C37.3115 68.0801 37.455 68.0508 37.6344 68.014C38.0691 67.9101 38.4849 67.7503 38.8848 67.5862C39.0368 67.5252 39.2046 67.4685 39.3566 67.4075C39.4325 67.377 39.5243 67.3507 39.6046 67.3044C39.6447 67.2813 39.6806 67.2739 39.7365 67.255L39.7427 67.3584L39.7297 70.2538C39.4956 70.2419 39.273 70.2501 39.0346 70.254C38.4112 70.2396 37.7319 70.244 37.0811 70.2053ZM38.8532 71.1209C39.2351 71.0876 39.5051 71.0921 39.6949 71.143C39.7424 71.1557 39.7898 71.1684 39.833 71.197C39.5588 71.2082 39.2297 71.1709 38.8532 71.1209ZM41.4029 71.8549C41.2015 71.784 41.0888 71.6351 41.0216 71.3798C41.0038 71.2564 40.966 71.1445 40.9324 71.0168C40.8107 70.4587 40.6732 69.8963 40.6232 69.3235C40.5702 68.699 40.6047 68.064 40.6666 67.4534L40.69 67.2393C40.735 66.6919 40.8737 66.2374 41.3446 65.8719C41.2522 66.4066 41.1799 66.9297 41.1391 67.4613C41.0192 68.921 41.1061 70.3683 41.4029 71.8549ZM64.2268 60.5092C64.1138 60.6146 64.0051 60.7041 63.872 60.821C63.8215 60.7566 63.7709 60.6922 63.7161 60.6436C63.6266 60.5349 63.5371 60.4261 63.4475 60.3174C61.677 58.1307 59.4542 56.6197 56.8613 55.8571C54.3634 55.12 51.7399 55.2307 49.2938 56.135C46.9552 57.0172 44.9344 58.6117 43.4889 60.7165C42.6869 61.8747 42.1233 63.0291 41.7696 64.2227C41.6648 64.5506 41.5148 64.7308 41.2108 64.8528C40.9269 64.9632 40.6651 65.1813 40.4665 65.4163C40.2837 65.6555 40.0578 65.8662 39.836 66.0611C39.7716 66.1116 39.7114 66.1463 39.647 66.1969C39.5225 66.2822 39.3979 66.3675 39.2575 66.4485C39.2174 66.4717 39.1973 66.4833 39.1572 66.5064C39.1171 66.5296 39.0654 66.5327 39.057 66.5643L39.0612 66.5485C38.6443 66.7759 38.1926 66.943 37.646 67.0848C37.5184 67.1184 37.3749 67.1477 37.2472 67.1813C37.0678 67.218 36.8885 67.2547 36.7049 67.3073L36.6289 67.3378C36.4094 67.3976 36.1699 67.4691 36.0515 67.6577C35.7947 68.0467 35.397 68.0757 34.9434 68.1237C33.3642 68.26 31.7333 68.3994 29.999 68.545L25.8774 68.9324C25.8774 68.9324 25.006 69.021 24.5766 69.0416C24.5766 69.0416 24.5608 69.0374 24.545 69.0332C24.4659 69.012 24.3679 68.9349 24.2741 68.8419C22.342 66.8154 20.3173 64.6285 18.6875 62.1066C16.7987 59.1593 15.529 56.2422 14.8418 53.1761C14.2468 50.5246 14.2027 47.7156 14.6928 44.5581C14.8183 43.7102 15.0113 42.8634 15.2 42.0324L15.2351 41.8384C15.2955 41.5494 15.3961 41.2373 15.5357 40.9696C15.7947 40.4456 16.158 40.1022 16.6255 39.9393C16.7373 39.9014 16.8492 39.8636 16.9884 39.85C17.4262 39.7978 17.8544 39.8447 18.3081 39.7968C18.6402 39.8858 18.9778 39.8914 19.33 39.9689C19.4407 39.9985 19.5356 40.024 19.6463 40.0536C21.6709 40.5961 23.6687 41.5552 25.7502 42.9606C27.4745 44.1177 29.1915 45.2389 31.0881 46.0692C32.1803 46.5484 33.6163 47.1366 35.1505 47.5477C35.8623 47.7384 36.5193 47.8805 37.1932 47.9594C38.1403 48.0945 39.1023 48.0471 40.1469 47.8184L40.2186 47.8037C40.3104 47.7775 40.5615 47.7261 40.8369 47.6473C40.8728 47.6399 40.9087 47.6326 40.9488 47.6094C41.316 47.5044 41.6674 47.3951 41.7561 47.3172C41.7603 47.3014 41.7761 47.3056 41.7803 47.2898C42.0539 46.1425 42.6384 45.1632 43.4937 44.3753C44.0344 43.8759 44.634 43.4094 45.1979 42.9501C45.4555 42.7479 45.7131 42.5457 45.975 42.3277C46.2769 42.0865 46.5789 41.8453 46.8809 41.6041C47.356 41.2228 47.8469 40.8458 48.3147 40.4286C48.3147 40.4286 48.3189 40.4128 48.3348 40.4171C48.5122 40.2612 48.6896 40.1053 48.867 39.9494C50.3559 38.5683 51.402 37.0685 52.0337 35.4069C52.0452 35.427 52.0368 35.4586 52.0484 35.4786C52.0546 35.582 52.065 35.6696 52.0712 35.773C52.067 35.7888 52.0785 35.8088 52.0743 35.8247C52.0678 35.9755 52.0613 36.1263 52.039 36.2729C52.0336 36.3562 52.0325 36.4237 52.0271 36.5071C52.0186 36.5387 52.0259 36.5746 52.0175 36.6062C52.0121 36.6895 52.0025 36.7887 51.977 36.8836C51.959 37.0144 51.9451 37.1293 51.9428 37.2643C51.9363 37.4152 52.0521 37.6157 52.2061 37.6739L52.2377 37.6824C52.3642 37.7163 52.5278 37.6753 52.6365 37.5858C52.6566 37.5742 52.6608 37.5584 52.6809 37.5468C52.7781 37.4373 52.8436 37.3192 52.9292 37.1896C52.9619 37.1305 52.9947 37.0715 53.0391 37.0325C53.0634 37.0051 53.0877 36.9777 53.1162 36.9345C55.395 33.9342 58.0209 31.7897 61.1585 30.3927C61.967 30.0329 62.7098 29.7912 63.479 29.6413C63.4346 29.6802 63.4103 29.7076 63.366 29.7466C63.3618 29.7624 63.3459 29.7582 63.3417 29.774C61.4146 31.4615 60.2344 33.1457 59.5866 35.0573C59.5739 35.1048 59.5453 35.148 59.5326 35.1954C59.4586 35.3451 59.3106 35.6445 59.6215 35.8126C59.8461 35.9236 60.2291 35.8228 60.4339 35.6912C61.9171 34.6477 63.6201 34.2394 65.0782 33.9859C65.5245 33.902 65.9738 33.8698 66.4549 33.8462C65.3114 34.7604 64.3388 35.6695 63.5086 36.6168L63.44 36.6832L63.4863 36.7634C63.6778 37.1877 63.9887 37.3557 64.4909 37.253C64.5827 37.2267 64.6861 37.2205 64.7779 37.1942C65.085 37.1239 65.3878 37.0695 65.7064 37.0192C67.1633 36.8332 68.6431 36.9415 70.2406 37.3696C70.4146 37.4162 70.6434 37.5114 70.9365 37.556C70.9524 37.5603 70.9682 37.5645 70.984 37.5688L70.9998 37.573C71.0156 37.5772 71.0315 37.5815 71.0473 37.5857C71.0631 37.5899 71.0947 37.5984 71.1148 37.5868C71.1464 37.5953 71.1665 37.5837 71.1981 37.5922C71.2297 37.6007 71.254 37.5733 71.2899 37.566C71.3215 37.5744 71.3659 37.5355 71.3817 37.5397C71.4133 37.5482 71.4249 37.5682 71.4608 37.5609C71.4967 37.5535 71.5241 37.5778 71.5441 37.5663C71.58 37.5589 71.6116 37.5674 71.6317 37.5558L71.6475 37.56C71.6675 37.5485 71.6992 37.5569 71.7192 37.5454C71.7393 37.5338 71.7551 37.538 71.791 37.5307C71.8268 37.5233 71.8469 37.5118 71.8828 37.5044C71.9187 37.4971 71.9387 37.4855 71.9746 37.4782C71.9946 37.4666 72.0305 37.4592 72.0506 37.4477C72.0864 37.4403 72.115 37.3971 72.1466 37.4056C72.1624 37.4098 72.1624 37.4098 72.1782 37.4141C72.1941 37.4183 72.2025 37.3867 72.2184 37.3909C72.2384 37.3793 72.2585 37.3677 72.2785 37.3562C72.2986 37.3446 72.3186 37.333 72.3387 37.3214C72.3587 37.3099 72.3587 37.3099 72.3788 37.2983C72.383 37.2825 72.3988 37.2867 72.3988 37.2867C72.459 37.252 72.5192 37.2172 72.5836 37.1667C72.5836 37.1667 72.5878 37.1509 72.6036 37.1551C72.7166 37.0497 72.8096 36.956 72.8983 36.878C74.2866 35.809 75.7781 34.9881 77.3251 34.4024C78.2284 34.068 79.1476 33.7379 80.0266 33.431L80.5658 33.2534C82.7756 32.4723 84.6311 31.4946 86.2169 30.2581C87.4448 29.2818 88.4397 28.226 89.2344 27.0319C89.2629 26.9887 89.2957 26.9296 89.34 26.8907C89.3643 26.8633 89.3886 26.8359 89.4171 26.7927C89.47 26.7221 89.5186 26.6673 89.5714 26.5967C89.0995 28.6741 87.3603 33.8364 81.4812 36.9231C81.2649 37.0347 81.177 37.2993 81.2886 37.5157C81.3422 37.6318 81.456 37.7131 81.5668 37.7428C81.6775 37.7725 81.7809 37.7663 81.8811 37.7084C86.0007 35.5573 88.1583 32.4397 89.2327 30.2016C90.2531 28.1016 90.558 26.2677 90.5795 25.9344C90.5953 25.9386 90.627 25.9471 90.6386 25.9672C90.6501 25.9872 90.6818 25.9957 90.6976 25.9999C91.5542 26.7889 92.3441 27.7634 93.0169 28.8591C94.6402 31.5319 95.5384 34.5698 95.761 38.1047C96.0476 42.7927 95.0958 47.4201 92.9556 51.8646C92.8858 51.9985 92.8203 52.1165 92.7304 52.262C92.7061 52.2894 92.6977 52.321 92.6734 52.3484L92.4048 52.0222C92.0814 51.6473 91.7854 51.2968 91.4778 50.9261C91.068 50.4942 90.6571 50.1298 90.3399 49.8584C90.3399 49.8584 90.3399 49.8584 90.3241 49.8541C90.2809 49.8256 90.2261 49.777 90.1829 49.7485C89.3715 49.1072 88.5303 48.5767 87.6596 48.1569C86.9859 47.8238 86.3069 47.5741 85.6268 47.3918C85.3579 47.3198 85.069 47.2593 84.7958 47.2031C84.7009 47.1777 84.6018 47.168 84.5185 47.1627C84.3244 47.1276 84.142 47.1126 83.9437 47.0934C82.9881 46.99 82.0145 47.0173 81.0386 47.1796C80.5607 47.255 80.1102 47.3546 79.6554 47.4701C79.3241 47.5678 78.9927 47.6655 78.673 47.7833C78.1453 47.981 77.625 48.2145 77.1479 48.4766C77.0477 48.5345 76.9474 48.5924 76.8672 48.6387C75.3345 49.5503 74.0218 50.843 72.9492 52.5052C72.8108 52.7054 72.6206 52.9088 72.5571 53.146C72.5232 53.2726 72.4302 53.3663 72.3647 53.4844C72.3034 53.5866 72.2379 53.7047 72.1924 53.8112C72.0813 54.0357 71.9703 54.2603 71.8751 54.4891C71.4658 55.4474 71.1586 56.467 70.9738 57.5364C70.9218 57.7937 70.8856 58.0553 70.8653 58.321C70.8684 58.3727 70.8514 58.436 70.8345 58.4993C70.8175 58.5625 70.8164 58.63 70.8037 58.6775L70.791 58.725L70.7825 58.7566C70.3512 58.658 69.9315 58.5794 69.5106 58.5684C67.61 58.449 65.8793 59.0872 64.2268 60.5092ZM70.7176 60.96C68.545 60.7169 66.7163 61.278 65.1144 62.7644C64.987 62.5438 64.8396 62.3348 64.7122 62.1142L64.4301 61.6487C64.4544 61.6213 64.4586 61.6055 64.4829 61.5781C64.5357 61.5075 64.5727 61.4326 64.6171 61.3936C66.0798 59.9207 67.7672 59.254 69.7111 59.4019C69.8461 59.4042 69.9695 59.3864 70.0644 59.4118L70.1277 59.4288C70.6655 59.5729 70.7149 59.7048 70.7363 60.3208C70.7456 60.4759 70.7349 60.6425 70.7399 60.8134C70.7357 60.8292 70.7357 60.8292 70.7473 60.8493C70.7029 60.8883 70.7018 60.9558 70.7176 60.96ZM90.6904 69.8718C90.4201 70.1215 90.1698 70.3596 89.8879 70.5892C89.8478 70.6123 89.8235 70.6397 89.7792 70.6787C89.7105 70.7451 89.6303 70.7914 89.5659 70.8419C89.4972 70.9083 89.417 70.9546 89.3326 71.0168C89.2925 71.0399 89.2682 71.0673 89.228 71.0905C89.1679 71.1252 89.1235 71.1642 89.0634 71.1989C89.0032 71.2337 88.9589 71.2726 88.8987 71.3074C88.734 71.4158 88.5535 71.52 88.3888 71.6285C88.3086 71.6748 88.2284 71.7211 88.1682 71.7558C88.1281 71.779 88.088 71.8022 88.0479 71.8253C87.9877 71.8601 87.9318 71.879 87.8716 71.9137C87.8157 71.9326 87.7713 71.9716 87.7154 71.9905C87.5793 72.0558 87.4431 72.121 87.2912 72.182C87.251 72.2052 87.2152 72.2125 87.1751 72.2357C87.059 72.2893 86.9471 72.3271 86.8152 72.3766C86.7593 72.3955 86.7034 72.4144 86.6432 72.4491C86.5873 72.4681 86.5313 72.487 86.4596 72.5017C86.3477 72.5395 86.2201 72.5731 86.0924 72.6067C85.9647 72.6403 85.8529 72.6781 85.7294 72.6959C85.6735 72.7149 85.6017 72.7295 85.5501 72.7326C85.4941 72.7516 85.4266 72.7504 85.3707 72.7693C85.3148 72.7883 85.2473 72.7871 85.1913 72.806C85.012 72.8427 84.821 72.8594 84.6417 72.8961C84.379 72.9274 84.1047 72.9387 83.8463 72.9542C83.8304 72.95 83.7946 72.9573 83.7787 72.9531C83.6954 72.9477 83.6237 72.9624 83.5404 72.957C83.5245 72.9528 83.5245 72.9528 83.5087 72.9485C83.4254 72.9432 83.322 72.9494 83.2387 72.944C83.1396 72.9344 83.052 72.9448 82.9529 72.9352C82.7704 72.9202 82.5679 72.9168 82.3738 72.8818C82.2747 72.8722 82.1914 72.8668 82.0965 72.8414L82.0806 72.8371C81.9973 72.8318 81.934 72.8148 81.8507 72.8094C81.8033 72.7967 81.7516 72.7998 81.7041 72.7871C81.6567 72.7744 81.6208 72.7817 81.5734 72.769C81.5101 72.7521 81.4268 72.7467 81.3635 72.7297C81.316 72.717 81.2844 72.7085 81.237 72.6958C81.1579 72.6746 81.0587 72.665 80.9796 72.6438C80.6749 72.5791 80.3902 72.5028 80.0781 72.4023C77.0234 71.4651 74.6631 69.3917 73.0751 66.2707C72.9983 66.1145 72.9215 65.9583 72.8447 65.8021C72.8257 65.7461 72.791 65.686 72.7678 65.6458C72.6185 65.3176 72.4891 64.9778 72.3714 64.6581C72.3524 64.6021 72.3219 64.5262 72.303 64.4702C72.242 64.3183 72.1968 64.1705 72.1559 64.007C72.1107 63.8593 72.0698 63.6957 72.0246 63.548C71.9721 63.3644 71.9354 63.185 71.8871 62.9856C71.8913 62.9698 71.8755 62.9656 71.8797 62.9497C71.585 61.5823 71.5012 60.1867 71.6485 58.7513C71.6731 58.4697 71.7135 58.1923 71.7539 57.9149C71.7593 57.8316 71.7805 57.7525 71.7859 57.6692C71.8113 57.5743 71.8167 57.491 71.8421 57.3961C71.8633 57.317 71.8687 57.2337 71.8941 57.1388C71.9291 56.9447 71.98 56.7549 72.0308 56.5651C72.2608 55.6435 72.6174 54.7558 73.0403 53.9367C73.4262 53.1924 73.9028 52.4894 74.4499 51.8393C77.1827 48.5368 81.3646 47.1652 85.3663 48.2375C86.8373 48.6316 88.2077 49.3379 89.4343 50.3277C89.5871 50.4534 89.7241 50.5749 89.8611 50.6964C89.9433 50.7693 90.0255 50.8421 90.0918 50.9108C90.2014 51.008 90.3068 51.1209 90.3963 51.2297C90.5059 51.3269 90.6166 51.3565 90.7008 51.5486L90.705 51.5328C90.7988 51.6257 90.8925 51.7187 90.9863 51.8116C91.1696 52.0133 91.3371 52.2107 91.5046 52.4082C91.9248 52.9277 92.2891 53.4661 92.6133 54.0276C93.2154 55.0705 93.6613 56.1902 93.9468 57.4025C93.9877 57.5661 94.0244 57.7454 94.0612 57.9248C94.0716 58.0123 94.0863 58.0841 94.1125 58.1759C94.1377 58.3352 94.1744 58.5146 94.1995 58.6739C94.2099 58.7614 94.2246 58.8332 94.2351 58.9207C94.2413 59.0241 94.2517 59.1117 94.2737 59.2193C94.2768 59.271 94.2799 59.3227 94.283 59.3744C94.2997 59.5653 94.3121 59.7721 94.3245 59.9788C94.3392 60.0506 94.3338 60.1339 94.3284 60.2172C94.344 60.4757 94.3552 60.7499 94.3549 61.0041C94.3611 61.1075 94.3831 61.2151 94.3535 61.3258C94.3323 61.4049 94.3269 61.4883 94.3215 61.5716C94.3119 61.6707 94.3023 61.7699 94.2927 61.869C94.2508 62.4681 94.1774 63.0587 94.0607 63.6208C93.7826 65.0381 93.28 66.3444 92.5413 67.5197C92.0698 68.3935 91.4254 69.1533 90.6904 69.8718Z" fill="#181E3D"/>
<path d="M114.993 58.261C116.249 55.597 116.545 49.8106 116.545 49.8106C113.617 58.079 103.816 56.3173 100.45 54.7711C97.072 53.2049 93.5773 52.455 93.5773 52.455C93.573 52.4708 93.5688 52.4866 93.5487 52.4982C93.4377 52.7227 93.2738 53.0179 93.1566 53.139C93.1566 53.139 93.5607 53.9085 93.6912 54.1808C95.8702 58.7655 95.8227 63.2453 93.5181 67.544C93.4768 67.6347 93.4197 67.7211 93.3785 67.8118C93.3415 67.8866 93.2887 67.9573 93.2517 68.0321C93.2474 68.0479 93.2432 68.0637 93.2274 68.0595C93.1946 68.1185 93.1618 68.1776 93.109 68.2482C93.0762 68.3072 93.0435 68.3662 92.9949 68.421C92.9906 68.4368 92.9864 68.4527 92.9706 68.4484C92.9135 68.5348 92.8522 68.6371 92.7793 68.7193C92.718 68.8215 92.6451 68.9037 92.5838 69.006C92.5268 69.0924 92.474 69.163 92.4011 69.2452C92.3768 69.2726 92.3482 69.3158 92.324 69.3432C92.2711 69.4138 92.2225 69.4686 92.1697 69.5392C92.0968 69.6214 92.024 69.7036 91.9468 69.8016C91.874 69.8838 91.8011 69.966 91.7282 70.0481L91.724 70.064C91.6511 70.1461 91.5824 70.2125 91.5096 70.2947C91.2994 70.5096 91.0734 70.7203 90.8474 70.931C90.8031 70.97 90.7587 71.009 90.7144 71.0479C90.67 71.0869 90.6457 71.1143 90.6014 71.1533C90.557 71.1923 90.5169 71.2154 90.4726 71.2544C90.1706 71.4956 89.8528 71.7325 89.5235 71.9494C89.4591 72 89.3831 72.0305 89.3187 72.0811C89.2543 72.1316 89.174 72.1779 89.0981 72.2084C88.7729 72.4095 88.4405 72.5747 88.0922 72.7357C88.0162 72.7662 87.936 72.8125 87.86 72.843C87.784 72.8735 87.7038 72.9198 87.6278 72.9503C87.612 72.9461 87.6078 72.9619 87.5919 72.9576C87.516 72.9881 87.44 73.0186 87.364 73.0491C87.288 73.0796 87.192 73.1217 87.1002 73.148C87.0084 73.1742 86.9324 73.2047 86.8406 73.231C86.8205 73.2426 86.8047 73.2383 86.7847 73.2499C86.7087 73.2804 86.6369 73.2951 86.5609 73.3256C86.5251 73.3329 86.485 73.3561 86.4333 73.3592C86.3573 73.3897 86.2697 73.4001 86.1779 73.4264C86.1062 73.4411 86.0344 73.4558 85.9585 73.4863C85.9226 73.4936 85.8667 73.5125 85.8308 73.5199C85.7232 73.5419 85.6155 73.5639 85.5237 73.5902C85.4319 73.6164 85.3286 73.6226 85.2368 73.6489L85.3037 74.1584C86.0011 74.0232 86.7733 73.925 87.6204 73.8638C88.5192 73.7994 89.4928 73.7721 90.5972 73.7629C96.7658 73.7713 101.005 70.4147 101.005 70.4147C100.819 72.7551 96.9328 75.1723 96.8125 75.2418C100.696 74.3499 103.273 71.1242 103.273 71.1242C102.932 75.8135 100.819 78.3836 96.7954 83.3407C94.4387 86.2523 93.6572 88.7892 92.435 92.0219C92.6799 91.8671 92.9206 91.7281 93.1655 91.5734C98.5849 88.177 102.52 83.9931 105.456 79.7446C108.509 75.3075 110.456 70.8279 111.825 67.1092C114.564 59.6718 118.684 56.3172 118.684 56.3172C116.561 56.3927 114.993 58.261 114.993 58.261Z" fill="#181E3D"/>
<path d="M61.3001 103.446C61.2136 103.389 61.143 103.336 61.0608 103.263C60.9312 103.178 60.8058 103.076 60.6762 102.991C60.6171 102.958 60.5782 102.914 60.5191 102.881C59.9574 102.51 59.3871 102.171 58.82 101.883C58.7451 101.846 58.6861 101.813 58.6112 101.776C58.5364 101.739 58.4774 101.707 58.4025 101.67C58.2686 101.6 58.1348 101.53 57.9966 101.476C57.9218 101.439 57.8628 101.406 57.7837 101.385C57.7246 101.352 57.6456 101.331 57.5707 101.294C57.5117 101.261 57.4326 101.24 57.3736 101.207C57.3145 101.175 57.2355 101.153 57.1764 101.121C57.129 101.108 57.1016 101.084 57.0541 101.071C56.9951 101.038 56.916 101.017 56.857 100.984C56.7937 100.967 56.7347 100.934 56.6714 100.918C56.4542 100.842 56.2412 100.751 56.0198 100.692C55.9565 100.675 55.8817 100.638 55.8184 100.621C55.6803 100.567 55.5221 100.525 55.3798 100.487C55.269 100.457 55.1583 100.427 55.0677 100.386C51.9528 99.4836 49.4582 99.4933 49.4582 99.4933C50.9915 98.0733 55.2258 97.8347 55.2258 97.8347C54.9075 97.6307 54.5533 97.4341 54.159 97.2606C53.887 97.1369 53.5949 97.0247 53.3029 96.9126C50.5236 95.8966 46.9156 95.5062 46.9156 95.5062C47.7616 94.5632 48.9796 93.9402 49.9674 93.5437C50.4877 93.3102 50.9752 93.1357 51.3467 93.0148C45.9456 92.483 42.1736 96.8803 42.1736 96.8803C43.6238 89.0637 47.2815 86.738 47.2815 86.738C44.616 86.7527 42.3562 87.9103 42.3562 87.9103C43.9893 85.9915 45.7178 84.539 47.468 83.4483C45.7178 84.539 43.9893 85.9915 42.3605 87.8945C41.7071 88.245 41.0422 88.5754 40.2951 88.8329C40.2951 88.8329 36.5604 89.358 33.34 87.6474C33.34 87.6474 34.6095 88.92 35.5625 89.4127C35.5467 89.4085 35.5309 89.4042 35.5108 89.4158C34.6589 89.0519 30.7604 87.2783 28.86 86.9048C28.86 86.9048 30.0446 87.7986 30.5475 88.8318C30.5475 88.8318 27.1659 87.0272 24.2907 87.6978C23.2453 87.7398 22.0762 88.0538 20.2673 88.8575C20.243 88.8849 20.2071 88.8922 20.167 88.9154C20.1269 88.9385 20.0625 88.9891 19.9981 89.0396C19.1766 89.7011 16.5414 91.6905 12.6638 92.6858C11.3763 93.1885 10.0301 93.4041 8.53 93.5616C8.53 93.5616 24.0761 100.457 37.5154 102.244C46.7773 103.488 50.4304 102.382 55.257 102.59C56.0945 102.628 56.9709 102.71 57.918 102.845C58.98 102.994 60.14 103.22 61.4413 103.552C61.4297 103.532 61.3707 103.499 61.3001 103.446Z" fill="#2C4277"/>
<path d="M114.993 58.261C116.249 55.597 116.545 49.8106 116.545 49.8106C116.545 49.8106 113.411 61.3803 103.519 65.4601C94.6395 69.116 93.7851 72.6845 87.6605 73.8406C88.5592 73.7763 89.5329 73.749 90.6373 73.7397C96.8058 73.7482 101.045 70.3915 101.045 70.3915C100.859 72.732 96.9729 75.1492 96.8526 75.2186C100.736 74.3267 103.313 71.101 103.313 71.101C102.972 75.7903 100.859 78.3605 96.8355 83.3175C94.4787 86.2291 93.6972 88.7661 92.4751 91.9987C92.72 91.8439 92.9606 91.705 93.2055 91.5502C98.625 88.1538 102.56 83.9699 105.496 79.7214C108.549 75.2843 110.496 70.8047 111.865 67.086C114.604 59.6487 118.724 56.294 118.724 56.294C116.561 56.3927 114.993 58.261 114.993 58.261Z" fill="#2C4277"/>
<path d="M97.4315 83.3076C95.1761 86.0939 94.3167 88.5421 93.2013 91.566C93.1261 91.7832 93.0394 91.9803 92.9643 92.1975C92.6235 93.0895 92.2701 94.0289 91.8322 95.0305C91.7127 95.2866 91.609 95.5471 91.4853 95.8191L91.4811 95.8349C91.3076 96.2292 91.035 96.6139 90.9163 97.0567C90.8527 97.294 90.6943 97.5058 90.5632 97.7419C90.5347 97.7852 90.5219 97.8326 90.4934 97.8758C90.0377 98.7539 89.5493 99.6911 88.9648 100.67C88.319 101.752 87.6913 102.702 86.971 103.493C86.9583 103.54 86.8823 103.571 86.8538 103.614C86.708 103.778 86.5665 103.927 86.4249 104.075C86.3964 104.119 86.3521 104.158 86.3077 104.197C82.2035 108.505 77.7405 108.648 77.0781 108.589C77.0465 108.581 77.0307 108.577 77.0148 108.572C76.999 108.568 76.999 108.568 76.999 108.568C76.999 108.568 76.9832 108.564 76.9516 108.555C76.9357 108.551 76.9199 108.547 76.8883 108.538C76.7776 108.509 76.5824 108.541 76.3251 108.489L76.3208 108.505C75.552 108.401 74.1694 108.183 72.5032 107.821C71.2568 107.538 69.8722 107.201 68.4498 106.752C67.466 106.438 66.4707 106.103 65.5124 105.694C65.3584 105.636 65.2087 105.562 65.0548 105.503C65.0548 105.503 65.0548 105.503 65.039 105.499C64.3094 105.185 63.5883 104.839 62.9274 104.459C62.8684 104.426 62.8252 104.397 62.7662 104.365C62.6481 104.299 62.5458 104.238 62.4436 104.176C62.1095 103.968 61.7912 103.764 61.4813 103.529C61.4223 103.496 61.3675 103.447 61.3127 103.399C61.2263 103.342 61.1557 103.289 61.0735 103.216C60.9481 103.115 60.8185 103.029 60.6888 102.943C60.6298 102.911 60.5908 102.866 60.5318 102.833C59.97 102.463 59.3998 102.123 58.8326 101.836C58.7578 101.799 58.6987 101.766 58.6239 101.729C58.5649 101.696 58.49 101.659 58.4152 101.622C58.2813 101.552 58.1474 101.483 58.0093 101.429C57.9503 101.396 57.8712 101.375 57.7963 101.338C57.7215 101.301 57.6582 101.284 57.5834 101.247C57.5085 101.21 57.4452 101.193 57.3862 101.16C57.3272 101.127 57.2481 101.106 57.1891 101.073C57.1416 101.06 57.1142 101.036 57.0668 101.023C57.0077 100.991 56.9286 100.97 56.8696 100.937C56.8063 100.92 56.7473 100.887 56.684 100.87C56.4668 100.795 56.2539 100.704 56.0324 100.645C55.9692 100.628 55.8943 100.591 55.8311 100.574C55.6929 100.52 55.5348 100.477 55.3924 100.439C55.2817 100.41 55.171 100.38 55.0761 100.354C52.0403 99.4732 49.6174 99.4682 49.4866 99.4501C50.927 98.1238 54.7331 97.8383 55.2026 97.7945C55.2384 97.7872 55.2542 97.7914 55.2542 97.7914C54.9359 97.5875 54.5817 97.3909 54.1875 97.2174C53.9155 97.0937 53.6234 96.9815 53.3314 96.8693C50.5521 95.8534 46.9598 95.4673 46.9598 95.4673C47.1257 95.2913 47.2872 95.1312 47.4646 94.9753C47.529 94.9247 47.5934 94.8742 47.6578 94.8236C47.718 94.7889 47.7666 94.7341 47.8268 94.6993C48.5267 94.1749 49.3278 93.7792 50.0074 93.5205C50.0634 93.5016 50.1035 93.4785 50.1594 93.4596L50.1752 93.4638C50.9867 93.1557 51.585 93.0108 51.585 93.0108C51.5175 93.0097 51.4542 92.9928 51.3867 92.9916C48.7616 92.729 46.518 93.6366 44.9082 94.6463C44.563 94.8589 44.2336 95.0758 43.9517 95.3054C42.8495 96.129 42.2294 96.8613 42.2294 96.8613L42.2337 96.8455C43.6754 89.0606 47.3332 86.7349 47.3332 86.7349C46.1612 86.743 45.0851 86.9632 44.2188 87.2227C44.0352 87.2752 43.8674 87.332 43.6996 87.3887C43.6437 87.4077 43.5877 87.4266 43.5476 87.4497C43.4917 87.4687 43.42 87.4833 43.3598 87.5181C43.2838 87.5486 43.192 87.5748 43.116 87.6053C43.096 87.6169 43.096 87.6169 43.0801 87.6127C42.6443 87.7841 42.3878 87.9188 42.3878 87.9188C42.3878 87.9188 42.3878 87.9188 42.3921 87.903C44.8194 85.0442 47.4755 83.2299 50.1044 82.0865C50.2364 82.037 50.3567 81.9676 50.4886 81.9181C50.7883 81.812 51.1323 81.6668 51.4837 81.5575C51.5597 81.527 51.6357 81.4965 51.7117 81.466C54.4722 80.5274 57.1697 80.2669 59.5104 80.1991C59.3468 80.24 59.1675 80.2767 58.965 80.2733C59.2033 80.2694 59.5251 80.2708 59.8468 80.2722L59.851 80.2564L59.8668 80.2607C60.3097 80.3793 60.8594 80.2893 61.1811 80.2907C61.1811 80.2907 61.1811 80.2907 61.1653 80.2865C61.1896 80.2591 61.2139 80.2317 61.2339 80.2201L61.2497 80.2243C61.3689 80.2224 61.4924 80.2046 61.6031 80.2343C62.0884 80.1948 62.5451 80.1985 62.9617 80.2253C63.3783 80.2522 63.7791 80.2748 64.1525 80.2732C65.9995 80.2764 67.6126 80.0136 68.8894 79.6776C70.8804 79.1431 72.0637 78.4599 72.0637 78.4599L79.2314 77.3968L79.2472 77.401C79.3402 77.3073 79.4331 77.2135 79.526 77.1197C79.5303 77.1039 79.5461 77.1082 79.5503 77.0924C79.8091 76.8226 80.032 76.5602 80.3023 76.3106C80.3266 76.2832 80.3509 76.2558 80.3636 76.2083L80.3952 76.2168C81.5051 75.1749 82.6717 74.3008 84.1185 73.773L84.1343 73.7773C84.586 73.6101 85.045 73.4788 85.563 73.3803C85.9534 73.3153 86.3753 73.2589 86.8406 73.231C88.1328 73.1534 89.6612 73.2069 91.2697 73.2141C97.5775 73.209 101.852 69.4041 101.852 69.4041C101.656 71.8437 97.4119 75.0294 97.4119 75.0294C101.399 74.1313 103.966 69.3602 103.966 69.3602C103.655 74.1255 101.557 78.2252 97.4315 83.3076Z" fill="white"/>
<path d="M82.7168 102.793C81.8487 103.629 80.7364 104.111 79.3396 104.262C78.118 104.392 76.8608 104.276 75.5163 103.916C74.9311 103.759 74.3227 103.562 73.6638 103.301C69.9072 101.819 66.5199 99.4029 62.9907 95.7448C60.2463 92.8904 58.0191 89.7507 56.3481 86.3701C56.2713 86.2139 56.1988 86.0419 56.103 85.8297C56.0683 85.7696 56.0536 85.6978 56.0189 85.6377C56.6323 86.0055 57.0876 86.3309 57.3802 86.884C59.1851 90.3343 61.641 93.5692 64.706 96.4926C66.6488 98.3525 68.4025 99.6531 70.242 100.57C70.5098 100.709 70.7903 100.801 71.1383 100.895C71.2173 100.916 71.3091 100.89 71.3894 100.843C71.4495 100.809 71.4781 100.765 71.4865 100.734C71.5204 100.607 71.4837 100.428 71.4258 100.328C71.3363 100.219 71.1866 100.145 71.0643 100.095C69.503 99.4054 68.0264 98.3995 66.2572 96.8405C63.4586 94.3783 61.0328 91.4736 59.042 88.2108C58.922 88.0261 58.8379 87.834 58.7981 87.6029C58.8845 87.66 58.9551 87.7128 59.0415 87.7699C59.3124 87.9611 59.5991 88.1566 59.8984 88.3047C60.9548 88.7911 61.6722 89.5937 62.3361 90.9752C64.2731 95.0713 67.5024 98.1404 72.2 100.348C72.4088 100.455 72.6059 100.542 72.8147 100.649L73.0392 100.76L73.0222 100.823L72.4398 100.972L72.4429 101.024C72.4502 101.06 72.4418 101.091 72.4333 101.123C72.4279 101.206 72.411 101.27 72.4615 101.334C72.5005 101.378 72.5395 101.423 72.5784 101.467C72.7228 101.624 72.8671 101.782 73.0484 101.864C73.9794 102.249 74.9304 102.623 75.8466 102.936C75.9847 102.99 76.1683 102.938 76.3319 102.897C76.4036 102.882 76.4796 102.851 76.5313 102.848L76.603 102.834L76.4308 102.211L76.6808 102.227C76.9307 102.243 77.1965 102.264 77.4666 102.268C78.689 102.325 79.7864 102.025 80.7344 101.398C81.7224 100.747 82.0315 99.8466 81.6246 98.7712C81.4154 98.2235 81.107 97.6662 80.7257 97.1911C80.4108 96.7846 80.0442 96.3812 79.705 96.0021C79.4437 95.7118 79.1667 95.4171 78.9097 95.1109C78.1892 94.2567 77.4309 93.2907 76.4978 92.0913C76.3851 91.9424 76.3125 91.7704 76.2399 91.5984C76.2094 91.5224 76.1789 91.4464 76.1442 91.3862C77.0088 90.7533 77.715 90.3322 78.4347 90.0504C79.0426 89.8064 79.6089 89.9073 80.036 90.0217C80.2258 90.0726 80.3955 90.135 80.5379 90.1732C81.8453 90.6083 82.0043 90.8374 81.9458 92.1948C81.9327 92.4965 81.8954 92.8256 81.8666 93.123C81.8378 93.4204 81.7931 93.7136 81.7843 93.9994C81.7659 94.3844 81.9165 94.6451 82.1853 94.7172C82.3435 94.7596 82.5545 94.7313 82.7551 94.6156C82.9915 94.4924 83.1816 94.2891 83.3675 94.1015C83.4118 94.0626 83.4404 94.0193 83.4847 93.9804C83.6019 93.8592 83.7033 93.7338 83.8048 93.6084C83.809 93.5926 83.8291 93.581 83.8333 93.5652L84.1878 97.0507C84.1414 96.9705 84.1067 96.9103 84.0604 96.8301C83.9099 96.5694 83.7593 96.3087 83.5888 96.0595L83.5266 95.9751C83.3329 95.6858 83.116 95.3565 82.7838 95.2675C82.6415 95.2293 82.4864 95.2386 82.3344 95.2996C81.8068 95.4973 81.8864 95.9594 81.9556 96.3339C81.9776 96.4416 81.988 96.5291 81.9985 96.6167L82.0287 96.9469C82.1139 98.0208 82.1864 99.1421 82.2832 100.236C82.306 100.53 82.3859 100.738 82.5113 100.84C82.7506 101.022 83.0734 100.956 83.3164 100.682C83.6079 100.354 83.8994 100.025 84.1994 99.6646C84.2765 99.5666 84.3694 99.4728 84.4666 99.3632C84.2329 100.742 83.6736 101.88 82.7168 102.793Z" fill="#181E3D"/>
<path d="M80.2731 100.715C79.5901 101.176 78.8314 101.413 78.0128 101.431C77.5677 101.448 77.1036 101.408 76.6712 101.377C76.4887 101.362 76.3062 101.347 76.1396 101.336C76.0797 101.117 76.0241 100.882 75.96 100.678C75.8298 100.151 75.6912 99.6565 75.5124 99.1848C75.2843 98.5812 74.9643 98.0038 74.6632 97.4823C74.5011 97.2016 74.3094 97.0315 74.1037 96.9764C73.9614 96.9383 73.8221 96.9518 73.6543 97.0086C73.1626 97.1989 73.123 97.663 73.1374 97.9889C73.1537 98.4341 73.1701 98.8792 73.1906 99.3086C73.1999 99.4636 73.205 99.6345 73.2143 99.7896C73.0835 99.7715 72.9412 99.7334 72.7988 99.6952C69.3665 98.7755 64.0006 93.5573 62.7539 89.9852C62.7697 89.9895 62.7855 89.9937 62.8013 89.9979C62.912 90.0276 63.0185 90.0731 63.1092 90.1143C65.0521 91.0249 66.6979 91.6523 68.2955 92.0804C68.6118 92.1652 68.9123 92.2457 69.2171 92.3104C69.7275 92.4302 69.9899 92.6531 70.0779 93.0835C70.1734 93.5499 70.273 94.0004 70.3685 94.4668C70.4724 94.9015 70.5562 95.3478 70.6601 95.7825C70.6748 95.8542 70.681 95.9576 70.6915 96.0451C70.7143 96.3395 70.7245 96.6812 71.1442 96.7598C71.643 96.8596 71.865 96.4105 72.0215 96.0794L72.0543 96.0204C72.2108 95.6894 72.3399 95.3341 72.4648 94.9946L72.5442 94.7615C72.5982 94.6234 72.6363 94.4811 72.6713 94.287C72.6841 94.2396 72.701 94.1763 72.7137 94.1289C72.7485 94.189 72.7874 94.2334 72.8106 94.2735C72.9233 94.4224 73.0086 94.5469 73.0939 94.6715C73.2961 94.9291 73.5141 95.191 73.7163 95.4486C74.3504 96.2457 75.0118 97.0672 75.6817 97.857C75.8882 98.0988 76.0842 98.253 76.2582 98.2996C76.4322 98.3462 76.5683 98.281 76.6381 98.1471C76.8189 97.7887 76.5639 97.6017 76.3679 97.4475C76.3131 97.3989 76.254 97.3661 76.2151 97.3218C75.1257 96.1992 74.1694 94.9597 73.3852 93.6476C73.2925 93.4872 73.2041 93.3109 73.1273 93.1547C73.1084 93.0988 73.0694 93.0544 73.0505 92.9985L75.4769 91.8517C76.3631 93.4792 77.623 94.851 78.7355 96.0136C79.2781 96.5828 79.7573 97.1351 80.1691 97.6862C80.484 98.0927 80.723 98.5296 80.8944 98.9655C81.1561 99.6968 80.9603 100.238 80.2731 100.715Z" fill="url(#paint4_linear_877_1449)"/>
<path d="M84.7917 95.6191C84.7677 95.3922 84.7437 95.1654 84.7039 94.9344C84.567 93.8636 84.6496 92.7329 84.972 91.2766C85.0875 90.782 85.3274 90.4564 85.7443 90.229C86.4621 89.828 87.0366 89.2021 87.4796 88.3715L87.6889 87.9698C88.2101 86.9737 88.7599 85.9343 89.1789 84.8768C90.0095 82.726 90.1746 80.4646 89.6774 78.1445C89.6218 77.9092 89.5345 77.6654 89.4187 77.4649C89.3724 77.3847 89.2659 77.3392 89.1868 77.318C89.1394 77.3053 89.0761 77.2883 89.016 77.3231C88.8841 77.3725 88.7857 77.5496 88.7835 77.6846C88.7739 77.7837 88.8159 77.8798 88.8422 77.9716C88.8611 78.0275 88.8758 78.0992 88.8789 78.1509C88.9029 78.3777 88.9427 78.6088 88.9825 78.8398C89.0726 79.3895 89.1426 79.9508 89.1651 80.4993C89.2389 83.1976 88.3455 85.7724 86.3791 88.6191C85.4672 89.9344 84.0648 90.4232 82.4515 89.9909C82.2617 89.9401 82.0761 89.8734 81.8905 89.8067C81.4129 89.6279 80.8878 89.4363 80.252 89.2151C79.3832 88.9145 78.5118 89.0031 77.6622 89.4536C77.1049 89.762 76.575 90.0946 76.045 90.4273L75.6999 90.64C75.4951 90.7716 75.2702 90.9148 75.0654 91.0464C74.7561 91.2517 74.4268 91.4686 74.1059 91.6539C73.3839 92.0707 72.6306 92.2249 71.8702 92.0889C71.3988 92.0135 70.92 91.9022 70.4529 91.8109L70.2588 91.7758C69.76 91.6761 69.2654 91.5605 68.7751 91.4291C64.6152 90.3145 60.6463 88.2339 56.6682 85.0488C56.586 84.976 56.5038 84.9031 56.4259 84.8144C56.3985 84.7901 56.3711 84.7658 56.3479 84.7257C57.0287 84.3995 57.6563 84.3981 58.1246 84.4219C58.1763 84.4188 58.2237 84.4315 58.2754 84.4284C58.3904 84.4423 58.5053 84.4561 58.613 84.4341C58.7206 84.4121 58.8895 84.2878 58.8875 84.1686C58.8856 84.0494 58.8257 83.8299 58.7034 83.7802C58.6243 83.759 58.5294 83.7336 58.4345 83.7082C58.1972 83.6446 58.0032 83.6096 57.8323 83.6146C55.671 83.6458 53.7095 85.0189 52.8198 87.137L52.8114 87.1686C52.7616 87.2909 52.7119 87.4132 52.7096 87.5482C52.7158 87.6516 52.7537 87.7635 52.7958 87.8595C52.8189 87.8996 52.8263 87.9355 52.8452 87.9914L52.8757 88.0674L52.9559 88.0211C52.996 87.9979 53.0361 87.9748 53.0921 87.9558C53.2081 87.9022 53.3242 87.8485 53.3971 87.7663C53.4658 87.7 53.4912 87.6051 53.5124 87.526C53.5251 87.4785 53.5378 87.4311 53.5505 87.3836C53.9302 86.536 54.413 85.9364 55.0486 85.4625C55.0601 85.4826 55.076 85.4868 55.0875 85.5068C55.1265 85.5512 55.1381 85.5713 55.1497 85.5913C55.2076 85.6916 55.2496 85.7876 55.2875 85.8995C55.3296 85.9955 55.3759 86.0757 55.4179 86.1718C58.5357 92.5677 63.0557 97.7797 68.8652 101.659C70.9942 103.077 73.0552 104.053 75.1589 104.617C75.5701 104.727 75.9856 104.821 76.3895 104.896C77.7436 105.157 79.118 105.152 80.4252 104.892C81.8918 104.607 83.2621 103.669 84.1782 102.337C85.0943 101.006 85.4664 99.4277 85.1801 98.0287C84.9754 97.211 84.8857 96.4071 84.7917 95.6191ZM83.0876 99.638L82.7876 96.4552C83.2869 96.9959 83.61 97.625 83.7842 98.3667C83.8534 98.7412 83.607 99.2177 83.0876 99.638ZM83.9925 90.9463C83.6684 92.0292 83.3288 92.8537 82.6107 93.5089L82.6708 90.8804L83.9925 90.9463ZM71.8724 92.9033C71.9189 93.6786 71.8853 94.5003 71.4211 95.41L70.8262 92.7586L71.8724 92.9033ZM62.7812 90.0096C62.892 90.0392 62.9984 90.0847 63.0891 90.126C65.032 91.0365 66.6778 91.664 68.2754 92.092C68.5917 92.1768 68.8923 92.2573 69.197 92.322C69.7074 92.4418 69.9698 92.6647 70.0579 93.0952C70.1533 93.5615 70.253 94.012 70.3484 94.4784C70.4523 94.9131 70.5362 95.3594 70.6401 95.7941C70.6548 95.8658 70.661 95.9692 70.6714 96.0568C70.6943 96.3511 70.7044 96.6929 71.1241 96.7714C71.6229 96.8712 71.845 96.4221 72.0015 96.0911L72.0343 96.032C72.1908 95.701 72.3199 95.3457 72.4447 95.0062L72.5241 94.7732C72.5781 94.6351 72.6162 94.4927 72.6513 94.2987C72.664 94.2512 72.681 94.1879 72.6937 94.1405C72.7284 94.2007 72.7674 94.245 72.7905 94.2851C72.9032 94.434 72.9885 94.5586 73.0738 94.6831C73.276 94.9407 73.4941 95.2026 73.6963 95.4602C74.3303 96.2574 74.9918 97.0788 75.6617 97.8686C75.8681 98.1104 76.0641 98.2646 76.2381 98.3112C76.4121 98.3579 76.5483 98.2926 76.618 98.1588C76.7988 97.8003 76.5438 97.6133 76.3478 97.4591C76.293 97.4105 76.234 97.3777 76.195 97.3334C75.1057 96.2108 74.1494 94.9713 73.3651 93.6592C73.2725 93.4988 73.1841 93.3225 73.1073 93.1663C73.0883 93.1104 73.0494 93.0661 73.0304 93.0101L75.4568 91.8633C76.343 93.4909 77.603 94.8626 78.7155 96.0253C79.258 96.5945 79.7373 97.1467 80.1491 97.6978C80.464 98.1043 80.7029 98.5413 80.8743 98.9771C81.1519 99.7127 80.9719 100.258 80.2847 100.735C79.6016 101.196 78.843 101.433 78.0244 101.451C77.5792 101.468 77.1152 101.428 76.6827 101.397C76.5003 101.382 76.3178 101.367 76.1512 101.356C76.0913 101.137 76.0357 100.902 75.9716 100.698C75.8414 100.171 75.7028 99.6766 75.524 99.2049C75.2958 98.6013 74.9759 98.0239 74.6748 97.5024C74.5127 97.2217 74.3209 97.0516 74.1153 96.9965C73.9729 96.9584 73.8337 96.9719 73.6659 97.0287C73.1741 97.219 73.1346 97.6831 73.1489 98.009C73.1653 98.4542 73.1816 98.8993 73.2022 99.3287C73.2115 99.4838 73.2166 99.6546 73.2259 99.8097C73.0951 99.7916 72.9528 99.7535 72.8104 99.7153C69.3781 98.7956 64.0122 93.5774 62.7654 90.0053C62.7496 90.0011 62.7654 90.0053 62.7812 90.0096ZM75.3868 101.931C75.2359 101.925 75.0936 101.887 74.9512 101.849C74.6665 101.772 74.4262 101.657 74.1858 101.542C74.0677 101.476 73.9454 101.427 73.8231 101.377L73.9813 97.8761C74.83 99.1376 75.1333 100.473 75.3868 101.931ZM82.7167 102.794C81.8487 103.629 80.7363 104.111 79.3395 104.262C78.1179 104.392 76.8607 104.276 75.5163 103.916C74.931 103.759 74.3226 103.562 73.6637 103.301C69.9071 101.819 66.5199 99.403 62.9906 95.7449C60.2462 92.8904 58.0191 89.7507 56.3481 86.3701C56.2712 86.2139 56.1987 86.0419 56.1029 85.8298C56.0682 85.7696 56.0535 85.6979 56.0188 85.6377C56.6322 86.0055 57.0875 86.3309 57.3801 86.884C59.185 90.3344 61.6409 93.5693 64.7059 96.4927C66.6488 98.3525 68.4024 99.6531 70.242 100.57C70.5097 100.709 70.7902 100.801 71.1382 100.895C71.2173 100.916 71.309 100.89 71.3893 100.843C71.4494 100.809 71.478 100.765 71.4864 100.734C71.5204 100.607 71.4837 100.428 71.4258 100.328C71.3362 100.219 71.1865 100.145 71.0642 100.095C69.5029 99.4055 68.0263 98.3995 66.2571 96.8405C63.4585 94.3784 61.0327 91.4737 59.042 88.2109C58.9219 88.0261 58.8378 87.834 58.798 87.603C58.8844 87.66 58.955 87.7129 59.0414 87.7699C59.3123 87.9612 59.599 88.1567 59.8984 88.3047C60.9547 88.7912 61.6721 89.5937 62.336 90.9752C64.273 95.0713 67.5023 98.1405 72.2 100.349C72.4087 100.455 72.6058 100.542 72.8146 100.649L73.0391 100.76L73.0222 100.823L72.4397 100.972L72.4428 101.024C72.4502 101.06 72.4417 101.091 72.4332 101.123C72.4278 101.206 72.4109 101.27 72.4614 101.334C72.5004 101.378 72.5394 101.423 72.5784 101.467C72.7227 101.624 72.867 101.782 73.0483 101.864C73.9793 102.249 74.9303 102.623 75.8465 102.936C75.9846 102.99 76.1682 102.938 76.3318 102.897C76.4035 102.882 76.4795 102.851 76.5312 102.848L76.603 102.834L76.4307 102.211L76.6807 102.227C76.9307 102.243 77.1964 102.264 77.4665 102.268C78.6889 102.325 79.7863 102.025 80.7343 101.398C81.7224 100.747 82.0314 99.8466 81.6245 98.7713C81.4153 98.2236 81.1069 97.6663 80.7256 97.1911C80.4107 96.7847 80.0441 96.3813 79.7049 96.0022C79.4437 95.7118 79.1666 95.4172 78.9096 95.111C78.1891 94.2568 77.4308 93.2907 76.4977 92.0913C76.385 91.9425 76.3124 91.7704 76.2398 91.5984C76.2093 91.5224 76.1788 91.4464 76.1441 91.3863C77.0088 90.7534 77.7149 90.3323 78.4346 90.0505C79.0425 89.8065 79.6088 89.9074 80.0359 90.0218C80.2257 90.0726 80.3955 90.1351 80.5378 90.1732C81.8453 90.6083 82.0043 90.8374 81.9457 92.1949C81.9327 92.4965 81.8953 92.8256 81.8665 93.123C81.8377 93.4204 81.793 93.7136 81.7842 93.9995C81.7658 94.3845 81.9164 94.6452 82.1853 94.7172C82.3434 94.7596 82.5544 94.7314 82.755 94.6156C82.9914 94.4925 83.1815 94.2891 83.3674 94.1016C83.4117 94.0626 83.4403 94.0194 83.4846 93.9804C83.6018 93.8592 83.7033 93.7339 83.8047 93.6085C83.8089 93.5926 83.829 93.581 83.8332 93.5652L84.1877 97.0508C84.1414 96.9705 84.1066 96.9104 84.0603 96.8302C83.9098 96.5694 83.7592 96.3087 83.5887 96.0596L83.5265 95.9751C83.3328 95.6859 83.1159 95.3565 82.7837 95.2675C82.6414 95.2294 82.4863 95.2387 82.3343 95.2997C81.8067 95.4973 81.8863 95.9595 81.9555 96.334C81.9775 96.4416 81.9879 96.5292 81.9984 96.6167L82.0286 96.9469C82.1138 98.0208 82.1863 99.1422 82.2831 100.236C82.3059 100.53 82.3859 100.738 82.5113 100.84C82.7505 101.023 83.0733 100.956 83.3163 100.683C83.6078 100.354 83.8993 100.025 84.1993 99.6646C84.2764 99.5666 84.3694 99.4728 84.4665 99.3633C84.2328 100.742 83.6735 101.88 82.7167 102.794Z" fill="#181E3D"/>
<path d="M83.0109 79.8094C81.9937 82.0459 80.7424 83.8801 79.1756 85.4034C78.2723 86.2933 77.1198 87.1918 75.558 87.2073C75.0819 87.2117 74.5976 87.1763 74.1711 87.1375C74.0199 87.1347 73.8734 87.1143 73.7446 87.0986C71.4985 86.478 69.8537 85.8109 68.412 84.9529C67.4466 84.3735 66.6322 83.5139 65.7892 82.1938C65.4936 81.7373 65.4024 81.2979 65.5109 80.893C65.6194 80.4882 65.9228 80.1356 66.394 79.8657C68.9556 78.458 71.7112 77.4608 74.584 76.9477C76.8992 76.5305 78.9818 76.2019 81.1261 76.4934C81.2903 76.5186 81.4545 76.5437 81.6188 76.5689C81.9248 76.632 82.2438 76.7175 82.5403 76.8158C83.1512 77.0172 83.4421 77.4913 83.401 78.1406C83.3376 78.8027 83.2044 79.3707 83.0109 79.8094Z" fill="black"/>
<defs>
<linearGradient id="paint0_linear_877_1449" x1="99.6182" y1="68.5367" x2="74.6354" y2="56.3765" gradientUnits="userSpaceOnUse">
<stop stop-color="#1B1464"/>
<stop offset="1" stop-color="#0071BC"/>
</linearGradient>
<linearGradient id="paint1_linear_877_1449" x1="70.2576" y1="82.0823" x2="50.3523" y2="66.2721" gradientUnits="userSpaceOnUse">
<stop stop-color="#1B1464"/>
<stop offset="1" stop-color="#0071BC"/>
</linearGradient>
<linearGradient id="paint2_linear_877_1449" x1="42.1371" y1="65.3636" x2="66.1092" y2="71.7869" gradientUnits="userSpaceOnUse">
<stop stop-color="#1B1464"/>
<stop offset="1" stop-color="#9E005D"/>
</linearGradient>
<linearGradient id="paint3_linear_877_1449" x1="70.9388" y1="57.5954" x2="94.5763" y2="63.929" gradientUnits="userSpaceOnUse">
<stop stop-color="#0071BC"/>
<stop offset="1" stop-color="#9E005D"/>
</linearGradient>
<linearGradient id="paint4_linear_877_1449" x1="61.9573" y1="92.8823" x2="81.4289" y2="98.0997" gradientUnits="userSpaceOnUse">
<stop stop-color="#1B1464"/>
<stop offset="1" stop-color="#9E005D"/>
</linearGradient>
</defs>
</svg>
