<svg width="161" height="51" viewBox="0 0 161 51" fill="none" xmlns="http://www.w3.org/2000/svg">
<path d="M145.887 40.1104C146.486 37.2609 147.059 34.4502 147.605 31.6784C147.84 30.5127 148.074 29.2951 148.308 28.0258C148.543 26.7565 148.764 25.5131 148.972 24.2955C149.207 23.0521 149.402 21.8605 149.558 20.7207C149.74 19.555 149.896 18.4929 150.027 17.5344C149.428 17.4567 148.816 17.4308 148.191 17.4567C147.592 17.4826 146.994 17.4049 146.395 17.2235C146.421 16.8091 146.434 16.3298 146.434 15.7858C146.434 15.2418 146.447 14.6978 146.473 14.1538C146.499 13.558 146.525 12.9233 146.551 12.2498C147.228 12.3016 147.905 12.3405 148.582 12.3664C149.259 12.3923 149.935 12.4053 150.612 12.4053C151.94 12.4053 153.216 12.3793 154.439 12.3275C155.689 12.2498 156.835 12.1721 157.876 12.0944C158.943 11.9908 159.985 11.8742 161 11.7447L160.57 13.843C160.44 14.4388 160.31 15.0475 160.18 15.6692C160.076 16.291 159.972 16.822 159.867 17.2624C159.295 17.4178 158.709 17.5344 158.11 17.6121C157.537 17.6639 156.965 17.7416 156.392 17.8452C156.21 18.726 156.014 19.7104 155.806 20.7984C155.598 21.8605 155.39 22.9744 155.181 24.1401C154.999 25.2799 154.817 26.4456 154.635 27.6372C154.452 28.8289 154.27 29.9687 154.088 31.0567C153.671 33.6212 153.281 36.2765 152.916 39.0224L145.887 40.1104Z" fill="white"/>
<path d="M141.117 39.2943C140.883 39.2943 140.414 39.3331 139.711 39.4108C139.034 39.4627 138.332 39.5404 137.603 39.644C136.874 39.7217 136.21 39.7994 135.611 39.8771C135.038 39.9548 134.726 40.0067 134.674 40.0326C134.934 38.9187 135.194 37.6882 135.455 36.3411C135.741 34.9682 136.027 33.5434 136.314 32.0668C136.6 30.5644 136.874 29.0489 137.134 27.5206C137.394 25.9922 137.642 24.5156 137.876 23.0908C138.423 19.775 138.969 16.3686 139.516 12.8714L145.608 11.9C145.009 15.3712 144.424 18.7777 143.851 22.1194C143.616 23.5442 143.369 25.0207 143.109 26.5491C142.874 28.0775 142.627 29.5929 142.367 31.0954C142.132 32.5979 141.911 34.0615 141.703 35.4863C141.495 36.8851 141.299 38.1545 141.117 39.2943Z" fill="white"/>
<path d="M137.118 20.2155C137.118 21.5625 136.923 23.0003 136.532 24.5286C136.142 26.0311 135.595 27.5336 134.892 29.0361C134.189 30.5126 133.317 31.9374 132.276 33.3103C131.26 34.6574 130.102 35.849 128.8 36.8852C127.498 37.8955 126.066 38.7115 124.504 39.3332C122.968 39.9549 121.328 40.2658 119.584 40.2658C119.219 40.2658 118.855 40.2399 118.491 40.1881C118.126 40.1622 117.762 40.1233 117.397 40.0715C118.1 36.4966 118.79 33.0124 119.467 29.6189C119.727 28.1942 120.001 26.7176 120.287 25.1892C120.573 23.6349 120.847 22.1065 121.107 20.6041C121.367 19.1016 121.615 17.6639 121.849 16.2909C122.109 14.918 122.318 13.6745 122.474 12.5606C123.593 12.3534 124.726 12.1591 125.871 11.9778C127.017 11.7965 128.188 11.7058 129.386 11.7058C130.792 11.7058 131.976 11.926 132.939 12.3664C133.929 12.8067 134.723 13.4155 135.322 14.1926C135.946 14.9698 136.402 15.8765 136.688 16.9126C136.975 17.9488 137.118 19.0498 137.118 20.2155ZM127.902 17.1846C127.616 18.713 127.316 20.1766 127.004 21.5755C126.691 22.9744 126.379 24.3862 126.066 25.8109C125.754 27.2357 125.442 28.7252 125.129 30.2795C124.817 31.8338 124.517 33.5305 124.231 35.3698C124.856 34.9553 125.455 34.3983 126.027 33.6989C126.626 32.9736 127.186 32.1446 127.707 31.2121C128.227 30.2795 128.696 29.2951 129.112 28.2589C129.555 27.2227 129.933 26.2124 130.245 25.2281C130.557 24.2437 130.792 23.3241 130.948 22.4692C131.13 21.6144 131.221 20.8761 131.221 20.2544C131.221 19.2959 130.948 18.5446 130.401 18.0006C129.88 17.4566 129.047 17.1846 127.902 17.1846Z" fill="white"/>
<path d="M99.7793 40.2658C100.56 36.5355 101.302 32.9218 102.005 29.4246C102.266 27.9221 102.539 26.3679 102.825 24.7618C103.138 23.1557 103.424 21.5755 103.684 20.0212C103.945 18.441 104.179 16.9385 104.387 15.5138C104.596 14.0631 104.752 12.7549 104.856 11.5892C105.194 11.6151 105.481 11.628 105.715 11.628C105.949 11.628 106.223 11.628 106.535 11.628C106.9 11.628 107.342 11.628 107.863 11.628C108.384 11.6021 108.904 11.5762 109.425 11.5503C109.946 11.5244 110.505 11.4985 111.104 11.4726C111.469 13.2859 111.794 15.0345 112.08 16.7183C112.367 18.1949 112.653 19.7103 112.94 21.2646C113.252 22.8189 113.525 24.14 113.76 25.228C113.864 24.7099 113.981 24.1141 114.111 23.4406C114.241 22.7412 114.384 22.0159 114.541 21.2646C114.697 20.5134 114.84 19.7621 114.97 19.0109C115.126 18.2338 115.283 17.4696 115.439 16.7183C115.803 15.0345 116.181 13.2989 116.571 11.5115L121.336 10.9286C120.45 14.892 119.669 18.6482 118.993 22.1972C118.68 23.7256 118.368 25.2799 118.055 26.86C117.769 28.4143 117.496 29.9168 117.235 31.3675C116.975 32.7922 116.754 34.1263 116.571 35.3698C116.389 36.5873 116.246 37.6105 116.142 38.4395C116.064 38.4395 115.751 38.5042 115.205 38.6338C114.684 38.7374 114.072 38.8669 113.369 39.0223C112.692 39.1778 112.002 39.3332 111.299 39.4886C110.623 39.644 110.115 39.7865 109.776 39.916C109.62 37.8437 109.451 35.8749 109.269 34.0098C109.191 33.2067 109.1 32.3907 108.995 31.5618C108.917 30.7069 108.826 29.8909 108.722 29.1138C108.618 28.3366 108.514 27.6113 108.41 26.9378C108.305 26.2642 108.201 25.6814 108.097 25.1892C108.019 25.6814 107.915 26.2513 107.785 26.8989C107.655 27.5465 107.524 28.233 107.394 28.9583C107.264 29.6837 107.134 30.4479 107.004 31.2509C106.874 32.028 106.73 32.7793 106.574 33.5046C106.236 35.2402 105.871 37.0536 105.481 38.9446L99.7793 40.2658Z" fill="white"/>
<path d="M97.0607 39.2943C96.4098 39.398 95.6939 39.5145 94.9129 39.6441C94.1319 39.7736 93.4289 39.8901 92.8041 39.9938C92.9082 39.1389 93.0124 38.297 93.1165 37.468C93.1946 36.7427 93.2597 36.0174 93.3118 35.292C93.3899 34.5667 93.455 33.945 93.507 33.4269H90.1096L88.5475 39.0223C87.9748 39.1 87.2979 39.1907 86.5169 39.2943C85.7358 39.372 85.0069 39.4498 84.33 39.5275C83.4969 39.6311 82.6768 39.7347 81.8698 39.8383C82.9111 36.393 83.9395 32.9995 84.9548 29.6578C85.3713 28.2589 85.8009 26.7953 86.2435 25.2669C86.7121 23.7385 87.1677 22.2231 87.6103 20.7206C88.0789 19.1922 88.5215 17.7286 88.938 16.3297C89.3546 14.9309 89.7191 13.6486 90.0315 12.4829C91.8018 12.3534 93.5982 12.1979 95.4205 12.0166C97.269 11.8353 99.0653 11.5892 100.81 11.2783C100.732 12.1073 100.64 13.1435 100.536 14.3869C100.458 15.6044 100.38 16.9385 100.302 18.3892C100.224 19.8398 100.146 21.3553 100.068 22.9355C99.9895 24.5157 99.9114 26.0699 99.8333 27.5983C99.7032 31.1732 99.56 34.9682 99.4038 38.9835C98.6227 39.113 97.8417 39.2166 97.0607 39.2943ZM91.0468 29.5412C91.1509 29.5412 91.3332 29.5412 91.5935 29.5412C91.8799 29.5153 92.1663 29.5023 92.4526 29.5023C92.7651 29.4764 93.0514 29.4635 93.3118 29.4635C93.5721 29.4376 93.7544 29.4117 93.8585 29.3858C93.8585 29.2303 93.8715 28.9713 93.8975 28.6086C93.9496 28.22 93.9887 27.7926 94.0147 27.3263C94.0668 26.8341 94.1188 26.3031 94.1709 25.7332C94.223 25.1633 94.275 24.6063 94.3271 24.0623C94.4312 22.7412 94.5614 21.3164 94.7176 19.788L94.9519 16.4075L94.3662 16.4463L93.468 19.788L91.0468 29.5412Z" fill="white"/>
<path d="M83.6373 30.3183C83.6373 31.3804 83.416 32.3648 82.9734 33.2715C82.5308 34.1781 81.9321 35.0071 81.1771 35.7583C80.4221 36.4837 79.5369 37.1313 78.5216 37.7012C77.5323 38.2452 76.4779 38.7115 75.3584 39.1C74.265 39.4627 73.1325 39.7477 71.961 39.9549C70.8155 40.1362 69.709 40.2269 68.6416 40.2269C67.6784 40.2269 66.7802 40.1492 65.9471 39.9938C67.1967 35.4604 68.186 30.9012 68.915 26.3161C69.67 21.705 70.3859 17.0681 71.0628 12.4052C72.4166 12.1203 73.8224 11.8742 75.2803 11.6669C76.7382 11.4338 78.2482 11.3172 79.8103 11.3172C80.4611 11.3172 81.151 11.3949 81.88 11.5504C82.6089 11.7058 83.2728 11.9907 83.8716 12.4052C84.4704 12.8197 84.965 13.3637 85.3555 14.0372C85.7721 14.7107 85.9804 15.5656 85.9804 16.6018C85.9804 17.5862 85.8111 18.5058 85.4727 19.3606C85.1603 20.2155 84.7437 20.9926 84.2231 21.6921C83.7284 22.3915 83.1557 23.0003 82.5048 23.5183C81.854 24.0105 81.1901 24.3862 80.5132 24.6452C80.8516 24.8265 81.2031 25.0856 81.5676 25.4223C81.9321 25.7591 82.2705 26.1606 82.5829 26.6269C82.8953 27.0673 83.1426 27.5983 83.3249 28.2201C83.5332 28.8418 83.6373 29.5412 83.6373 30.3183ZM74.6946 26.2772C74.5904 26.8989 74.4863 27.4559 74.3822 27.9481C74.304 28.4143 74.2259 28.8677 74.1478 29.3081C74.0697 29.7484 73.9786 30.2147 73.8745 30.7069C73.7964 31.1732 73.7053 31.7301 73.6011 32.3778C74.0958 32.326 74.6555 32.2353 75.2803 32.1058C75.9051 31.9762 76.5039 31.782 77.0767 31.5229C77.6494 31.238 78.1311 30.8753 78.5216 30.4349C78.9121 29.9686 79.1074 29.4117 79.1074 28.7641C79.1074 28.2978 78.9772 27.9092 78.7168 27.5983C78.4825 27.2875 78.1701 27.0284 77.7796 26.8212C77.4151 26.614 77.0116 26.4715 76.569 26.3938C76.1264 26.2902 75.7099 26.2383 75.3194 26.2383C75.1892 26.2383 75.0721 26.2383 74.9679 26.2383C74.8898 26.2383 74.7987 26.2513 74.6946 26.2772ZM76.4519 16.8738C76.3998 17.1587 76.3347 17.4955 76.2566 17.8841C76.2045 18.2726 76.1395 18.6871 76.0614 19.1275C75.9833 19.542 75.8921 19.9564 75.788 20.3709C75.7099 20.7854 75.6448 21.1481 75.5927 21.4589C76.1655 21.3553 76.7382 21.2128 77.311 21.0315C77.8837 20.8502 78.3914 20.6559 78.834 20.4486C79.3026 20.2155 79.6671 19.9694 79.9274 19.7103C80.2138 19.4513 80.357 19.1663 80.357 18.8555C80.357 18.4669 80.2398 18.1561 80.0055 17.9229C79.7712 17.6639 79.4588 17.4566 79.0683 17.3012C78.7038 17.1458 78.3133 17.0422 77.8968 16.9904C77.5062 16.9126 77.1548 16.8738 76.8424 16.8738H76.4519Z" fill="white"/>
<g clip-path="url(#clip0_877_691)">
<ellipse cx="25.6274" cy="25.5" rx="25.6274" ry="25.5" fill="url(#paint0_radial_877_691)"/>
<path d="M11.209 14.2682C11.6014 14.0074 12.1043 13.9796 12.523 14.1957L23.8982 20.0646L16.5556 23.5277L10.6292 20.0727V15.3496C10.6292 14.9148 10.8468 14.5088 11.209 14.2682Z" fill="white"/>
<path d="M40.0815 14.2682C39.6891 14.0074 39.1862 13.9796 38.7675 14.1957L27.3923 20.0646L34.7348 23.5277L40.6613 20.0727V15.3496C40.6613 14.9148 40.4436 14.5088 40.0815 14.2682Z" fill="white"/>
<path d="M16.5101 27.0496L10.6288 23.6446C10.6288 23.6446 10.0782 32.1612 15.1542 36.5024C15.1542 36.5024 22.555 43.0644 25.6449 42.9788V22.8617L16.5101 27.0496Z" fill="white"/>
<path d="M34.7792 27.0496L40.6605 23.6446C40.6605 23.6446 41.2111 32.1612 36.1351 36.5024C36.1351 36.5024 28.7343 43.0644 25.6444 42.9788V22.8617L34.7792 27.0496Z" fill="white"/>
</g>
<defs>
<radialGradient id="paint0_radial_877_691" cx="0" cy="0" r="1" gradientUnits="userSpaceOnUse" gradientTransform="rotate(44.8573) scale(72.3053 91.9118)">
<stop stop-color="#16D1D6"/>
<stop offset="1" stop-color="#274CFF"/>
</radialGradient>
<clipPath id="clip0_877_691">
<rect width="51.2548" height="51" fill="white"/>
</clipPath>
</defs>
</svg>
