<svg width="90" height="56" viewBox="0 0 90 56" fill="none" xmlns="http://www.w3.org/2000/svg">
<path fill-rule="evenodd" clip-rule="evenodd" d="M89.4798 4.88988C87.2798 3.68988 71.6797 -2.21012 53.3798 0.889877C39.1798 3.28988 27.3798 8.28988 11.4798 20.7899C0.0797529 29.7899 -4.52025 42.3899 5.57975 51.5899C11.6798 57.0899 19.7798 56.2899 26.0798 51.6899C32.3798 47.1899 35.5798 41.6899 39.7798 35.2899C51.6798 17.3899 74.9798 9.98988 74.9798 9.98988C69.5798 9.88988 57.6798 10.8899 45.4798 18.2899C55.1798 7.88988 82.6797 3.98988 89.4798 4.88988Z" fill="#E88E25"/>
<path fill-rule="evenodd" clip-rule="evenodd" d="M18.3798 38.9899L8.07977 29.1899C10.3798 25.8899 14.4798 23.3899 17.7798 21.0899C25.7798 15.3899 33.9798 9.88989 43.3798 6.78989C47.6798 5.38989 52.3798 4.88989 56.9798 4.78989C58.4798 4.78989 59.9798 4.78989 61.5798 4.88989C61.9798 4.88989 62.3798 4.88989 62.7798 4.98989C62.8798 4.98989 63.3798 4.98989 63.3798 4.98989C63.3798 4.98989 59.4798 6.08989 57.7798 6.68989C54.3798 7.98989 51.0798 9.78989 47.8798 11.4899C41.2798 15.0899 35.3798 20.0899 30.1798 25.3899C29.7798 25.7899 29.3798 26.1899 28.9798 26.5899C32.7798 24.4899 36.9798 23.0899 41.2798 22.0899C43.1798 21.6899 45.1798 21.3899 47.0798 21.0899C47.7798 20.9899 48.5798 20.7899 49.2798 20.8899C49.3798 20.8899 49.0798 20.9899 48.9798 21.0899C48.6798 21.2899 48.4798 21.4899 48.1798 21.5899C47.5798 21.9899 46.9798 22.4899 46.3798 22.8899C44.2798 24.3899 42.2798 25.9899 40.3798 27.6899C34.9798 32.4899 30.7798 37.9899 26.8798 43.9899L22.6798 44.2899C21.4798 43.1899 18.9798 41.7899 18.4798 40.1899C18.3798 39.8899 18.3798 39.4899 18.3798 38.9899Z" fill="#F1BF09"/>
<path fill-rule="evenodd" clip-rule="evenodd" d="M5.37977 47.5899C0.779772 41.6899 1.17977 34.9899 6.77977 29.1899C11.9798 23.7899 20.4798 26.0899 25.1798 31.9899C29.7798 37.8899 29.4798 46.3899 23.0798 50.1899C16.3798 54.0899 9.97977 53.4899 5.37977 47.5899Z" fill="#FFEDC4"/>
<mask id="mask0_76_685" style="mask-type:luminance" maskUnits="userSpaceOnUse" x="2" y="26" width="27" height="27">
<path d="M5.37977 47.5899C0.779772 41.6899 1.17977 34.9899 6.77977 29.1899C11.9798 23.7899 20.4798 26.0899 25.1798 31.9899C29.7798 37.8899 29.4798 46.3899 23.0798 50.1899C16.3798 54.0899 9.97977 53.4899 5.37977 47.5899Z" fill="white"/>
</mask>
<g mask="url(#mask0_76_685)">
<path fill-rule="evenodd" clip-rule="evenodd" d="M4.27975 32.6899C4.47975 31.7899 5.27975 31.1899 6.17975 31.2899C7.07975 31.4899 7.57975 32.2899 7.37975 33.1899C7.17975 34.0899 6.47975 34.6899 5.57975 34.4899C4.67975 34.2899 4.07975 33.5899 4.27975 32.6899ZM4.97975 39.8899C5.17975 38.5899 6.37975 37.5899 7.77975 37.8899C9.07975 38.0899 9.87975 39.3899 9.67975 40.6899C9.47975 41.9899 8.27975 42.8899 6.97975 42.5899C5.47975 42.2899 4.77975 41.2899 4.97975 39.8899ZM9.87975 27.0899C10.0798 25.8899 11.1798 24.9899 12.4798 25.1899C13.6798 25.3899 14.3797 26.5899 14.1797 27.7899C13.9797 28.9899 12.8797 29.8899 11.6797 29.5899C10.3797 29.2899 9.67975 28.3899 9.87975 27.0899ZM8.97975 34.5899C9.27975 32.8899 10.8798 31.6899 12.5798 31.9899C14.2798 32.2899 15.2798 33.8899 14.9798 35.5899C14.6798 37.2899 13.1798 38.4899 11.4798 38.0899C9.67975 37.6899 8.67975 36.3899 8.97975 34.5899ZM9.17975 44.5899C9.37975 43.3899 10.4797 42.4899 11.7797 42.6899C12.9797 42.8899 13.6798 44.0899 13.4798 45.2899C13.2798 46.4899 12.1798 47.3899 10.9798 47.0899C9.67975 46.7899 8.97975 45.7899 9.17975 44.5899ZM6.87975 51.8899C7.17975 50.1899 8.77975 48.9899 10.4798 49.2899C12.1798 49.5899 13.1798 51.1899 12.8798 52.8899C12.5798 54.5899 11.0798 55.7899 9.37975 55.3899C7.57975 54.8899 6.57975 53.5899 6.87975 51.8899ZM16.5798 31.0899C16.7798 30.1899 17.5798 29.5899 18.4798 29.6899C19.3798 29.8899 19.8797 30.6899 19.6797 31.5899C19.4797 32.4899 18.7797 33.0899 17.8798 32.8899C16.8798 32.6899 16.3798 31.9899 16.5798 31.0899ZM14.4798 48.0899C14.6798 47.1899 15.4798 46.5899 16.3798 46.6899C17.2797 46.8899 17.7798 47.6899 17.5798 48.5899C17.3798 49.4899 16.6797 50.0899 15.7797 49.8899C14.8798 49.6899 14.3798 48.9899 14.4798 48.0899ZM15.0798 40.0899C15.3798 38.3899 16.9797 37.1899 18.6797 37.4899C20.3797 37.7899 21.3797 39.3899 21.0798 41.0899C20.7798 42.7899 19.2798 43.9899 17.5798 43.5899C15.7798 43.1899 14.7798 41.7899 15.0798 40.0899ZM20.0798 35.2899C20.3798 33.7899 21.6798 32.7899 23.0798 33.0899C24.5798 33.3899 25.3797 34.6899 25.0798 36.1899C24.7798 37.6899 23.5798 38.5899 22.0798 38.2899C20.5798 37.8899 19.7798 36.7899 20.0798 35.2899ZM20.7797 47.4899C20.9797 46.1899 22.1798 45.1899 23.5798 45.4899C24.8797 45.6899 25.6797 46.9899 25.4797 48.2899C25.2797 49.5899 24.0797 50.4899 22.7797 50.1899C21.2797 49.8899 20.5797 48.8899 20.7797 47.4899ZM24.0798 41.0899C24.2798 40.1899 25.0797 39.5899 25.9797 39.6899C26.8797 39.8899 27.3797 40.6899 27.1797 41.5899C26.9797 42.4899 26.2797 43.0899 25.3797 42.8899C24.3797 42.6899 23.8797 41.9899 24.0798 41.0899Z" fill="#F1CC7A"/>
</g>
<g opacity="0.5">
<mask id="mask1_76_685" style="mask-type:luminance" maskUnits="userSpaceOnUse" x="2" y="26" width="27" height="27">
<path d="M5.37977 47.5899C0.779772 41.6899 1.17977 34.9899 6.77977 29.1899C11.9798 23.7899 20.4798 26.0899 25.1798 31.9899C29.7798 37.8899 29.4798 46.3899 23.0798 50.1899C16.3798 54.0899 9.97977 53.4899 5.37977 47.5899Z" fill="white"/>
</mask>
<g mask="url(#mask1_76_685)">
<path opacity="0.2852" fill-rule="evenodd" clip-rule="evenodd" d="M15.7798 60.8899C18.5798 59.0899 19.9798 56.3899 21.0798 53.3899C21.7798 51.5899 22.3798 49.5899 22.4798 47.6899C22.5798 42.5899 19.5798 37.4899 14.9798 35.0899C10.0798 32.5899 4.37976 33.2899 -0.520241 35.1899C-2.32024 35.8899 -4.02024 36.7899 -5.62024 37.7899C-6.22024 38.1899 -6.42024 38.2899 -6.92024 38.6899C-7.22024 38.8899 -7.92024 39.6899 -7.72024 39.3899C-2.12024 31.9899 3.57976 21.8899 13.2798 19.6899C25.0798 16.9899 34.9798 29.1899 35.6798 39.9899C36.2798 48.3899 31.6798 57.1899 26.5798 63.5899" fill="black"/>
</g>
</g>
<g opacity="0.5">
<mask id="mask2_76_685" style="mask-type:luminance" maskUnits="userSpaceOnUse" x="2" y="26" width="27" height="27">
<path d="M5.37977 47.5899C0.779772 41.6899 1.17977 34.9899 6.77977 29.1899C11.9798 23.7899 20.4798 26.0899 25.1798 31.9899C29.7798 37.8899 29.4798 46.3899 23.0798 50.1899C16.3798 54.0899 9.97977 53.4899 5.37977 47.5899Z" fill="white"/>
</mask>
<g mask="url(#mask2_76_685)">
<path opacity="0.3567" fill-rule="evenodd" clip-rule="evenodd" d="M11.9798 60.4899C13.5798 58.5899 15.2798 56.5899 16.3798 54.3899C22.5798 41.2899 2.47978 33.9899 -4.42022 44.7899C-5.62022 46.5899 -6.12022 48.7899 -6.22022 50.8899C-6.32022 53.0899 -5.82022 55.3899 -4.62022 57.1899C-3.12022 59.4899 -0.920223 60.9899 1.47978 62.3899" fill="white"/>
</g>
</g>
<g opacity="0.5">
<mask id="mask3_76_685" style="mask-type:luminance" maskUnits="userSpaceOnUse" x="2" y="26" width="27" height="27">
<path d="M5.37977 47.5899C0.779772 41.6899 1.17977 34.9899 6.77977 29.1899C11.9798 23.7899 20.4798 26.0899 25.1798 31.9899C29.7798 37.8899 29.4798 46.3899 23.0798 50.1899C16.3798 54.0899 9.97977 53.4899 5.37977 47.5899Z" fill="white"/>
</mask>
<g mask="url(#mask3_76_685)">
<path opacity="0.3567" fill-rule="evenodd" clip-rule="evenodd" d="M6.87977 56.6899C9.67977 55.2899 10.0798 51.9899 9.37977 49.1899C8.07977 44.0899 1.27977 40.0899 -3.22023 44.1899C-4.22023 45.0899 -4.92023 46.2899 -5.32023 47.5899C-6.02023 49.6899 -5.92023 51.7899 -5.72023 53.8899" fill="white"/>
</g>
</g>
</svg>
