<svg width="150" height="147" viewBox="0 0 150 147" fill="none" xmlns="http://www.w3.org/2000/svg">
<path fill-rule="evenodd" clip-rule="evenodd" d="M73.2446 0C115.618 0 149.963 32.0429 149.963 74.4159C149.963 116.789 115.947 146.2 73.5078 146.2C31.1348 146.2 -2.48722 115.276 0.144639 73.0342C2.8423 29.0821 30.8716 0 73.2446 0Z" fill="#2657FC"/>
<mask id="mask0_76_635" style="mask-type:luminance" maskUnits="userSpaceOnUse" x="0" y="0" width="150" height="147">
<path d="M73.2446 0C115.618 0 149.963 32.0429 149.963 74.4159C149.963 116.789 115.947 146.2 73.5078 146.2C31.1348 146.2 -2.48722 115.276 0.144639 73.0342C2.8423 29.0821 30.8716 0 73.2446 0Z" fill="white"/>
</mask>
<g mask="url(#mask0_76_635)">
<path fill-rule="evenodd" clip-rule="evenodd" d="M19.4231 72.771C25.2132 72.771 29.8848 77.1794 29.8848 82.9695C29.8848 88.7596 25.2132 92.7732 19.4231 92.7732C13.633 92.7732 9.02727 88.5622 9.42205 82.7721C9.75104 76.7188 13.633 72.771 19.4231 72.771Z" fill="#1B36C1"/>
<path fill-rule="evenodd" clip-rule="evenodd" d="M105.024 -5.26373C110.815 -5.26373 115.486 -0.855356 115.486 4.93474C115.486 10.7248 110.815 14.7384 105.024 14.7384C99.2344 14.7384 94.6286 10.5275 95.0234 4.73735C95.4182 -1.25013 99.2344 -5.26373 105.024 -5.26373Z" fill="#1B36C1"/>
<path fill-rule="evenodd" clip-rule="evenodd" d="M121.145 60.5329C126.935 60.5329 131.606 64.9412 131.606 70.7313C131.606 76.5214 126.935 80.535 121.145 80.535C115.355 80.535 110.749 76.324 111.144 70.5339C111.538 64.4806 115.355 60.5329 121.145 60.5329Z" fill="#1B36C1"/>
<path fill-rule="evenodd" clip-rule="evenodd" d="M97.3263 23.292C108.446 23.292 117.526 31.714 117.526 42.8994C117.526 54.019 108.577 61.783 97.3921 61.783C86.2725 61.783 77.3899 53.69 78.1137 42.5046C78.7717 30.9902 86.1409 23.292 97.3263 23.292Z" fill="#1B36C1"/>
<path fill-rule="evenodd" clip-rule="evenodd" d="M69.8232 67.6389C80.9429 67.6389 90.0228 76.0608 90.0228 87.2463C90.0228 98.4317 81.0745 106.13 69.889 106.13C58.7694 106.13 49.8869 98.0369 50.6106 86.8515C51.3344 75.2713 58.7036 67.6389 69.8232 67.6389Z" fill="#1B36C1"/>
<path fill-rule="evenodd" clip-rule="evenodd" d="M28.3057 104.288C39.4253 104.288 48.5052 112.71 48.5052 123.895C48.5052 135.015 39.5569 142.779 28.3715 142.779C17.2518 142.779 8.3693 134.686 9.09306 123.5C9.75102 111.92 17.1202 104.288 28.3057 104.288Z" fill="#1B36C1"/>
<path fill-rule="evenodd" clip-rule="evenodd" d="M59.8222 4.27678C68.5073 4.27678 75.4818 10.8564 75.4818 19.4758C75.4818 28.1609 68.5073 34.1484 59.888 34.1484C51.2028 34.1484 44.36 27.832 44.8864 19.2126C45.4785 10.2643 51.2028 4.27678 59.8222 4.27678Z" fill="#1B36C1"/>
<path fill-rule="evenodd" clip-rule="evenodd" d="M105.288 93.4969C114.697 93.4969 122.329 100.603 122.329 110.078C122.329 119.487 114.762 126.066 105.353 126.066C95.9445 126.066 88.4437 119.223 89.0359 109.814C89.628 99.945 95.8129 93.4969 105.288 93.4969Z" fill="#1B36C1"/>
<path fill-rule="evenodd" clip-rule="evenodd" d="M35.4774 35.7933C43.4388 35.7933 49.8869 41.8466 49.8869 49.808C49.8869 57.7694 43.5046 63.2963 35.4774 63.2963C27.5161 63.2963 21.1996 57.5062 21.6602 49.5448C22.1865 41.2545 27.4503 35.7933 35.4774 35.7933Z" fill="#1B36C1"/>
<path fill-rule="evenodd" clip-rule="evenodd" d="M143.121 25.9896C151.082 25.9896 157.53 32.0429 157.53 40.0043C157.53 47.9657 151.148 53.4926 143.121 53.4926C135.159 53.4926 128.843 47.7025 129.303 39.7411C129.83 31.4508 135.093 25.9896 143.121 25.9896Z" fill="#1B36C1"/>
<path fill-rule="evenodd" clip-rule="evenodd" d="M143.121 90.0755C151.082 90.0755 157.53 96.1288 157.53 104.09C157.53 112.052 151.148 117.578 143.121 117.578C135.159 117.578 128.843 111.788 129.303 103.827C129.896 95.6024 135.159 90.0755 143.121 90.0755Z" fill="#1B36C1"/>
<path fill-rule="evenodd" clip-rule="evenodd" d="M66.5993 122.382C73.3106 122.382 78.7059 127.448 78.7059 134.093C78.7059 140.805 73.3106 145.41 66.6651 145.41C59.9539 145.41 54.6901 140.541 55.0849 133.896C55.4797 126.922 59.8881 122.382 66.5993 122.382Z" fill="#1B36C1"/>
</g>
<g opacity="0.5">
<mask id="mask1_76_635" style="mask-type:luminance" maskUnits="userSpaceOnUse" x="0" y="0" width="150" height="147">
<path d="M73.2446 0C115.618 0 149.963 32.0429 149.963 74.4159C149.963 116.789 115.947 146.2 73.5078 146.2C31.1348 146.2 -2.48722 115.276 0.144639 73.0342C2.8423 29.0821 30.8716 0 73.2446 0Z" fill="white"/>
</mask>
<g mask="url(#mask1_76_635)">
<path opacity="0.2852" fill-rule="evenodd" clip-rule="evenodd" d="M-20.9102 79.0875C-10.6459 92.7732 -0.579012 102.643 15.2122 110.407C39.6227 122.382 77.9163 135.146 100.287 111.591C105.353 106.261 109.104 99.6818 112.065 92.9706C115.157 85.9961 117.46 78.7585 118.776 71.1919C120.684 60.2039 121.671 49.0185 120.947 37.8988C120.158 25.7265 118.184 13.6857 113.052 2.50027C111.473 -0.92115 109.499 -4.21098 107.327 -7.36922C106.143 -9.07993 106.209 -8.94833 104.959 -10.4617C104.696 -10.7906 103.906 -11.1854 104.235 -11.3828C104.893 -11.8434 108.709 -8.81674 109.17 -8.48776C114.302 -4.40837 118.842 0.526374 123.579 5.00054C141.213 21.6471 161.215 34.1484 170.295 57.5062C187.533 101.722 161.215 153.24 113.381 161.136C73.6395 167.715 34.6222 152.385 -1.56596 137.975" fill="black"/>
</g>
</g>
<g opacity="0.5">
<mask id="mask2_76_635" style="mask-type:luminance" maskUnits="userSpaceOnUse" x="0" y="0" width="150" height="147">
<path d="M73.2446 0C115.618 0 149.963 32.0429 149.963 74.4159C149.963 116.789 115.947 146.2 73.5078 146.2C31.1348 146.2 -2.48722 115.276 0.144639 73.0342C2.8423 29.0821 30.8716 0 73.2446 0Z" fill="white"/>
</mask>
<g mask="url(#mask2_76_635)">
<path opacity="0.3567" fill-rule="evenodd" clip-rule="evenodd" d="M-21.9629 52.8347C-20.318 56.1903 -18.7389 59.9407 -15.9754 62.5725C-8.47459 69.8102 8.82991 71.5209 18.5678 70.3365C45.1496 66.9809 66.0071 48.8211 65.8097 20.9233C65.7439 12.5671 63.9674 4.14518 58.9669 -2.69766C48.6368 -17.0413 26.3976 -21.4497 10.8696 -13.5541C-8.80357 -3.55301 -17.2913 15.528 -19.1994 36.9119" fill="white"/>
</g>
</g>
<g opacity="0.5">
<mask id="mask3_76_635" style="mask-type:luminance" maskUnits="userSpaceOnUse" x="0" y="0" width="150" height="147">
<path d="M73.2446 0C115.618 0 149.963 32.0429 149.963 74.4159C149.963 116.789 115.947 146.2 73.5078 146.2C31.1348 146.2 -2.48722 115.276 0.144639 73.0342C2.8423 29.0821 30.8716 0 73.2446 0Z" fill="white"/>
</mask>
<g mask="url(#mask3_76_635)">
<path opacity="0.3567" fill-rule="evenodd" clip-rule="evenodd" d="M-2.68457 15.528C-0.250097 22.305 4.22407 25.9239 10.8695 28.2925C22.9103 32.6351 37.254 33.7536 47.0576 24.2131C57.0587 14.4753 57.3219 -4.27678 46.3339 -13.5541C42.4519 -16.8439 37.4513 -18.4888 32.385 -18.9494C26.7265 -19.4758 20.5416 -18.752 15.1463 -16.5807C7.64549 -13.5541 2.64495 -8.15877 -1.76342 -1.51332" fill="white"/>
</g>
</g>
</svg>
