<svg width="162" height="106" viewBox="0 0 162 106" fill="none" xmlns="http://www.w3.org/2000/svg">
<path fill-rule="evenodd" clip-rule="evenodd" d="M85.3608 0.429901C115.29 3.84025 132.929 24.7727 133.576 58.5235C134.164 89.8634 103.53 108.62 73.6009 105.21C43.6722 101.8 20.2701 75.8692 27.914 45.4701C35.7343 14.0713 55.432 -2.98045 85.3608 0.429901Z" fill="#6AF6FF"/>
<mask id="mask0_76_528" style="mask-type:luminance" maskUnits="userSpaceOnUse" x="26" y="0" width="108" height="106">
<path d="M85.3608 0.429901C115.29 3.84025 132.929 24.7727 133.576 58.5235C134.164 89.8634 103.53 108.62 73.6009 105.21C43.6722 101.8 20.2701 75.8692 27.914 45.4701C35.7343 14.0713 55.432 -2.98045 85.3608 0.429901Z" fill="white"/>
</mask>
<g mask="url(#mask0_76_528)">
<path fill-rule="evenodd" clip-rule="evenodd" d="M85.5372 -1.98086C90.7115 5.66303 98.2966 11.249 105.646 16.6585C107.881 18.3049 110.174 19.8336 112.585 21.1272C113.467 21.5976 114.349 22.068 115.231 22.5384C115.642 22.7736 115.642 22.7736 116.113 23.0088C116.289 23.1264 116.76 23.4204 116.583 23.3028C107.881 15.8353 100.825 6.01583 97.7674 -5.15601L85.5372 -1.98086ZM51.7276 3.48746C56.6668 11.4254 63.4875 17.7757 70.8962 23.4792C73.3657 25.4196 76.0117 27.1247 78.7753 28.6535C79.6573 29.1239 80.5392 29.5355 81.3624 30.0059C81.774 30.1823 82.1268 30.4175 82.4796 30.6527C82.5972 30.7115 82.95 30.8291 82.8324 30.8879C81.9504 31.4171 79.8924 30.5351 79.0105 30.2999C75.9529 29.3003 73.1305 27.7715 70.2494 26.3603C62.4291 22.5384 54.7852 19.0104 48.3761 12.9541C45.5537 10.2494 43.2018 7.01541 40.9086 3.84026L51.7276 3.48746ZM137.339 42.0009C132.106 41.0013 126.932 38.767 121.993 36.7678C114.937 33.8866 107.528 30.4763 101.707 25.4784C98.2378 22.5384 95.0626 19.128 92.1227 15.6001C91.1231 14.4241 90.0647 13.1893 89.2415 11.8957C89.0063 11.5429 88.7711 11.1314 88.5359 10.7786C88.4183 10.6022 88.0067 10.1318 88.1831 10.2494C89.3003 10.8374 90.3587 12.3661 91.2995 13.2481C94.1218 15.8353 96.8266 18.7164 100.002 20.8332C110.703 27.7715 123.757 31.4759 136.34 33.0634L137.339 42.0009ZM55.9024 0.547506C66.545 13.7185 78.8341 25.1256 93.2987 34.063C97.9438 36.9442 102.824 39.6489 107.94 41.5305C109.762 42.1773 111.585 42.6477 113.467 43.0593C113.996 43.1769 114.584 43.2945 115.113 43.4121C115.407 43.4709 116.172 43.8237 116.054 43.5885C114.76 41.6481 111.232 40.1781 109.351 38.767C105.117 35.5918 101.001 32.1227 97.1206 28.5359C86.478 18.6576 77.1877 5.95703 71.543 -7.39038L55.9024 0.547506ZM138.692 65.1678C133.694 66.9318 127.343 64.9914 122.404 64.1094C107.94 61.5222 95.2978 57.1123 83.0676 48.998C77.6581 45.4113 72.9541 41.4717 68.3678 36.9442C67.0154 35.5918 65.8394 34.1806 64.6047 32.7694C64.1931 32.2991 63.7815 31.8287 63.3699 31.3583C63.1347 31.1231 62.3703 30.5351 62.7231 30.5939C64.7811 31.0643 66.7214 33.1222 68.4854 34.1218C72.7777 36.5326 77.3641 38.2966 82.0092 40.0017C97.4734 45.7053 117.818 50.8208 134.458 48.2924C138.162 47.7632 141.338 46.2345 144.866 45.1173L138.692 65.1678ZM40.6146 13.4833C42.0846 19.5984 46.9061 24.5964 50.6693 29.4767C58.8423 40.0605 67.5446 49.9388 77.5405 58.9351C81.7152 62.6982 86.4779 66.0498 91.2995 68.8721C92.8283 69.7541 94.357 70.5185 95.8858 71.4593C96.415 71.7533 96.8854 72.1061 97.4146 72.4589C97.6498 72.6353 98.3554 72.7529 98.1202 72.9293C97.1206 73.4585 94.357 72.6941 93.4163 72.5177C88.3595 71.6357 83.3028 69.5189 78.5401 67.6962C64.0755 62.169 50.4929 55.5835 38.8506 45.2349C34.3819 41.2365 29.9132 37.0618 26.6204 31.9463L40.6146 13.4833ZM137.398 74.3405C132.165 74.3993 127.167 72.5177 122.169 71.1653C115.76 69.4013 109.41 67.461 103.236 64.8738C99.7078 63.4038 96.3562 61.8162 93.0047 60.0523C92.0051 59.5231 91.0055 58.9939 90.0059 58.4647C89.5943 58.2295 89.2415 58.0531 88.8299 57.8179C88.6535 57.7003 88.0655 57.3475 88.2419 57.5239C89.4767 58.9939 91.4171 60.0523 93.0047 61.1106C96.709 63.5802 100.531 65.8146 104.529 67.8137C115.819 73.5173 126.991 78.28 139.162 81.6315L137.398 74.3405ZM26.0912 41.4717C28.1492 44.0001 29.7956 46.7636 31.9123 49.2332C34.8523 52.7024 38.2626 55.6423 41.4966 58.8175C48.3761 65.4618 55.6084 71.9885 63.2523 77.692C67.6622 80.9848 72.3662 84.1011 77.1289 86.8647C78.8929 87.8643 80.5392 89.0402 82.362 89.981C83.0088 90.3338 83.7144 90.6866 84.3612 91.0394C84.5964 91.157 85.1256 91.2158 85.008 91.3922C84.5376 92.0978 81.6564 91.0982 81.1272 90.9218C76.6585 89.4518 72.6014 87.0411 68.4854 84.8655C62.8407 81.8667 57.49 78.4564 52.1392 74.9872C41.4966 68.0489 31.7947 61.0518 23.4453 51.4676L26.0912 41.4717ZM127.99 86.5119C121.816 88.2171 114.819 85.6299 108.88 84.0423C98.179 81.1612 87.8303 77.986 77.5405 73.6937C72.4837 71.5769 67.5446 69.4013 62.7819 66.7554C61.2531 65.8734 59.6655 64.9914 58.1956 64.0506C57.6664 63.6978 57.49 63.5802 56.9608 63.2862C56.7844 63.1686 56.2552 62.757 56.3728 62.9334C57.0784 63.9918 58.4308 64.8738 59.2539 65.8734C61.7823 68.7545 64.1343 71.6357 66.8978 74.2816C80.304 87.0999 100.413 97.5073 118.229 102.446L127.99 86.5119ZM99.649 105.328C97.1206 105.21 94.8862 103.975 92.5343 103.034C88.2419 101.388 84.0672 100.036 79.8924 98.0365C76.3645 96.3313 72.6601 95.0966 69.0146 93.509C63.0171 90.9218 57.1372 87.6291 51.4337 84.3951C46.9649 81.8667 42.9078 78.9268 38.8506 75.7516C37.557 74.752 36.3811 73.6936 35.0287 72.7529C34.5583 72.4001 34.0879 72.0473 33.5587 71.7533C33.2647 71.5769 32.6767 70.8125 32.6179 71.1653C32.5003 72.1649 34.3819 73.8113 34.9699 74.4581C37.7334 77.4568 40.6734 80.338 43.6134 83.2191C56.02 95.2142 69.5438 105.739 85.302 113.03L99.649 105.328Z" fill="#2CB7E3"/>
</g>
<g opacity="0.6">
<mask id="mask1_76_528" style="mask-type:luminance" maskUnits="userSpaceOnUse" x="26" y="0" width="108" height="106">
<path d="M85.3608 0.429901C115.29 3.84025 132.929 24.7727 133.576 58.5235C134.164 89.8634 103.53 108.62 73.6009 105.21C43.6722 101.8 20.2701 75.8692 27.914 45.4701C35.7343 14.0713 55.432 -2.98045 85.3608 0.429901Z" fill="white"/>
</mask>
<g mask="url(#mask1_76_528)">
<path opacity="0.3567" fill-rule="evenodd" clip-rule="evenodd" d="M18.3297 14.2477C20.5641 25.3607 30.1484 32.4754 40.3206 36.121C55.726 41.6481 72.4837 39.5901 86.6544 31.5346C93.7103 27.5363 99.8842 21.8916 102.53 13.9537C109.233 -6.09682 91.5935 -22.5018 72.7189 -23.913C50.7869 -25.5005 31.7359 -13.7995 21.2109 5.19262" fill="white"/>
</g>
</g>
<g opacity="0.5">
<mask id="mask2_76_528" style="mask-type:luminance" maskUnits="userSpaceOnUse" x="26" y="0" width="108" height="106">
<path d="M85.3608 0.429901C115.29 3.84025 132.929 24.7727 133.576 58.5235C134.164 89.8634 103.53 108.62 73.6009 105.21C43.6722 101.8 20.2701 75.8692 27.914 45.4701C35.7343 14.0713 55.432 -2.98045 85.3608 0.429901Z" fill="white"/>
</mask>
<g mask="url(#mask2_76_528)">
<path opacity="0.3567" fill-rule="evenodd" clip-rule="evenodd" d="M41.1438 -8.86037C40.5558 -4.62683 40.497 -0.0993004 41.967 4.01664C44.2013 10.1906 50.4341 14.1301 56.4316 16.0117C69.5438 20.0688 88.5947 15.5413 91.0055 -0.275698C91.4171 -2.86286 91.2995 -5.50882 90.8291 -8.09599C90.1823 -11.5063 88.8299 -14.7403 86.8895 -17.6802C84.5376 -21.2082 81.186 -23.619 77.3053 -25.1477C72.3074 -27.0881 66.6626 -27.5585 61.3707 -26.9117C53.7856 -25.9709 46.9061 -22.737 40.6734 -18.4446" fill="white"/>
</g>
</g>
<g opacity="0.7">
<mask id="mask3_76_528" style="mask-type:luminance" maskUnits="userSpaceOnUse" x="26" y="0" width="108" height="106">
<path d="M85.3608 0.429901C115.29 3.84025 132.929 24.7727 133.576 58.5235C134.164 89.8634 103.53 108.62 73.6009 105.21C43.6722 101.8 20.2701 75.8692 27.914 45.4701C35.7343 14.0713 55.432 -2.98045 85.3608 0.429901Z" fill="white"/>
</mask>
<g mask="url(#mask3_76_528)">
<path opacity="0.2852" fill-rule="evenodd" clip-rule="evenodd" d="M16.213 23.7732C18.3297 30.2999 18.0945 35.2978 21.5049 42.1773C25.0916 49.4684 30.5599 55.7011 36.0871 61.5222C41.967 67.6961 48.0233 73.9288 56.3728 76.6336C63.5463 78.9856 71.4842 78.8092 78.9517 78.1624C85.8312 77.5744 92.6519 75.928 98.7082 72.5177C113.996 63.933 122.404 45.1173 123.698 28.2419C124.109 22.5384 123.698 16.9525 122.404 11.4253C121.875 9.19097 121.169 7.0154 120.405 4.83983C120.346 4.72223 118.876 1.13548 119.699 2.31147C132.988 21.9504 146.571 43.5885 146.159 68.1665C146.042 76.81 143.748 85.3947 140.22 93.2738C137.104 100.153 132.518 106.562 127.226 111.913C121.64 117.558 115.054 122.85 107.587 125.849C94.7686 130.964 79.8336 129.67 67.0742 125.202C40.1442 115.794 16.0366 92.039 10.333 63.639" fill="black"/>
</g>
</g>
<path fill-rule="evenodd" clip-rule="evenodd" d="M32.0887 32.593C32.0887 32.593 -2.36759 27.2423 0.572372 40.5309C6.45229 67.0493 93.5926 103.622 143.69 98.9773C179.498 95.6845 152.98 72.4001 133.341 62.463L132.87 66.9906C132.87 66.9906 153.921 78.4564 152.921 87.8643C152.215 94.391 122.228 87.4527 117.935 86.8647C91.4759 83.3367 43.8486 66.5202 29.678 59.1115C21.4461 54.8191 7.09908 46.2344 8.51026 40.8837C10.1566 34.5922 30.7363 36.121 30.7363 36.121L32.0887 32.593Z" fill="#5E38BC"/>
<mask id="mask4_76_528" style="mask-type:luminance" maskUnits="userSpaceOnUse" x="0" y="31" width="162" height="69">
<path d="M32.0887 32.593C32.0887 32.593 -2.36759 27.2423 0.572372 40.5309C6.45229 67.0493 93.5926 103.622 143.69 98.9773C179.498 95.6845 152.98 72.4001 133.341 62.463L132.87 66.9906C132.87 66.9906 153.921 78.4564 152.921 87.8643C152.215 94.391 122.228 87.4527 117.935 86.8647C91.4759 83.3367 43.8486 66.5202 29.678 59.1115C21.4461 54.8191 7.09908 46.2344 8.51026 40.8837C10.1566 34.5922 30.7363 36.121 30.7363 36.121L32.0887 32.593Z" fill="white"/>
</mask>
<g mask="url(#mask4_76_528)">
<path opacity="0.2852" fill-rule="evenodd" clip-rule="evenodd" d="M2.39516 51.7028C8.68667 56.9947 16.0954 60.9342 23.2689 64.8738C46.3769 77.5156 70.7198 85.5123 95.8858 92.921C112.056 97.6837 135.928 100.624 151.098 91.2746C166.798 81.5727 147.57 66.1086 138.809 59.8758C135.399 57.4651 131.93 55.1131 128.578 52.6435C126.932 51.4088 126.932 51.4676 125.521 50.2328C124.991 49.7624 123.345 49.1744 123.933 48.8216C124.168 48.704 125.403 48.6452 125.579 48.6452C130.401 48.7628 135.575 51.1148 139.985 52.8787C143.866 54.4663 147.629 56.1715 151.333 57.9943C163.27 63.9918 186.907 78.1036 174.089 94.0382C172.442 96.0961 170.443 97.7425 168.209 99.0949C159.448 104.387 148.687 106.445 138.692 107.503C114.937 109.973 93.1811 105.328 70.4846 98.6833" fill="black"/>
</g>
<mask id="mask5_76_528" style="mask-type:luminance" maskUnits="userSpaceOnUse" x="0" y="31" width="162" height="69">
<path d="M32.0887 32.593C32.0887 32.593 -2.36759 27.2423 0.572372 40.5309C6.45229 67.0493 93.5926 103.622 143.69 98.9773C179.498 95.6845 152.98 72.4001 133.341 62.463L132.87 66.9906C132.87 66.9906 153.921 78.4564 152.921 87.8643C152.215 94.391 122.228 87.4527 117.935 86.8647C91.4759 83.3367 43.8486 66.5202 29.678 59.1115C21.4461 54.8191 7.09908 46.2344 8.51026 40.8837C10.1566 34.5922 30.7363 36.121 30.7363 36.121L32.0887 32.593Z" fill="white"/>
</mask>
<g mask="url(#mask5_76_528)">
<path opacity="0.3567" fill-rule="evenodd" clip-rule="evenodd" d="M30.6776 32.0639C21.2109 30.4763 10.3918 33.769 4.74712 41.8245C3.39474 43.7649 2.33635 45.9405 1.63076 48.1748C0.689978 51.2912 0.748777 57.2887 -4.13155 56.1127C-6.42472 55.5835 -8.36509 53.3492 -9.65867 51.5264C-14.7742 44.1177 -13.069 34.8274 -7.6595 27.9479C-1.42679 20.0688 8.62786 18.0109 17.9769 16.3645C23.3865 15.4237 28.796 14.1301 34.3231 14.2477" fill="white"/>
</g>
</svg>
