<svg width="104" height="100" viewBox="0 0 104 100" fill="none" xmlns="http://www.w3.org/2000/svg">
<path fill-rule="evenodd" clip-rule="evenodd" d="M67.7643 3.03067C95.4148 12.0703 108.31 34.6692 102.726 65.4437C97.5418 94.0912 65.1721 105.058 37.5216 96.0188C9.87108 86.9792 -7.47696 58.7305 5.21834 32.6087C18.4454 5.55644 40.1138 -6.00892 67.7643 3.03067Z" fill="#F1BF09"/>
<mask id="mask0_76_599" style="mask-type:luminance" maskUnits="userSpaceOnUse" x="0" y="0" width="105" height="100">
<path d="M67.7643 3.03067C95.4148 12.0703 108.31 34.6692 102.726 65.4437C97.5418 94.0912 65.1721 105.058 37.5216 96.0188C9.87108 86.9792 -7.47696 58.7305 5.21834 32.6087C18.4454 5.55644 40.1138 -6.00892 67.7643 3.03067Z" fill="white"/>
</mask>
<g mask="url(#mask0_76_599)">
<path fill-rule="evenodd" clip-rule="evenodd" d="M23.0981 4.82529C22.5664 8.68041 25.1586 12.4026 28.6149 13.9314C30.2102 14.6625 32.1377 15.1278 33.7994 14.2637C35.8599 13.2002 36.3252 9.67743 38.718 9.21215C40.3132 8.94628 41.9084 9.41156 43.5037 9.47803C46.1624 9.67743 48.954 8.74688 50.6822 6.68639C53.1415 3.82828 49.951 0.903708 47.7576 -0.890917C46.6941 -1.755 45.4312 -2.81848 44.0354 -2.95141L23.0981 4.82529ZM92.0915 9.01275C89.9645 10.8074 86.2423 10.0762 84.78 12.6685C83.1848 15.3936 86.1759 18.4511 88.8346 18.7835C92.3573 19.2488 95.9466 16.5901 98.5388 14.4631L92.0915 9.01275ZM76.671 13.3331C75.4081 14.9284 73.8793 17.4541 73.6135 19.9134C73.3476 22.5057 73.7464 26.0285 70.4895 26.7596C66.2356 27.7566 62.9122 23.835 61.9817 20.0464C61.5828 18.2517 61.7822 16.2577 60.7188 14.6625C58.4589 11.2726 52.2109 15.5266 52.078 10.1427C52.078 9.34509 52.1445 8.54748 52.3439 7.74987C52.6097 6.81932 53.0085 5.95524 53.4073 5.09116C53.9391 4.02768 54.6702 3.03067 55.4678 2.10012C60.3864 -3.08435 69.426 -4.4137 75.6075 -0.691515C79.7285 1.76779 83.916 5.55644 80.9914 10.3421C80.9914 10.475 77.7345 12.0038 76.671 13.3331ZM5.15188 24.4332C2.82551 26.8261 4.4872 31.0135 7.01297 32.6752C8.34232 33.5393 10.3363 34.4034 11.9316 34.2704C13.3939 34.1375 14.6567 33.4064 16.1855 33.6058C19.8412 34.204 23.8957 38.0591 26.7538 33.6722C27.6844 32.2099 28.0832 30.4153 28.4155 28.6872C29.0802 25.2308 28.0167 20.5781 25.358 18.0523C23.6963 16.4571 21.237 15.3272 19.1765 14.3302C15.8532 12.7349 12.9286 12.4691 11.7986 8.41454L5.15188 24.4332ZM103.989 30.6147C105.252 33.9381 102.394 37.2615 99.3364 38.3914C96.8771 39.322 94.0855 38.8567 91.4933 39.3884C86.9735 40.3854 80.9914 44.5729 77.7345 38.7902C77.2027 37.8597 76.8704 36.8627 76.6045 35.8657C75.4081 31.7447 75.7404 28.3548 78.8644 25.1644C80.0608 23.968 81.2573 22.7051 82.9854 22.5057C85.6441 22.1069 88.3028 23.4362 90.9615 23.1703C95.4813 22.7715 99.4029 18.9164 103.391 23.1039C103.923 23.7021 104.454 24.3668 104.853 25.0314C105.385 25.962 105.717 26.959 106.05 28.0225L103.989 30.6147ZM34.1317 28.7536C34.5305 26.4273 34.6635 23.968 36.0593 21.9739C39.0503 17.4541 46.5612 17.0553 51.081 19.1158C53.5403 20.2458 56.199 21.4422 58.193 23.3033C61.9817 26.959 63.8428 33.2734 63.1116 38.3914C62.8457 40.186 61.5828 41.5154 60.187 42.5124C59.3894 43.1106 58.4589 43.5759 57.5283 43.9082C56.2654 44.3735 54.8696 44.8388 53.5403 44.7058C52.0115 44.5729 50.7486 43.5094 49.5522 42.5789C46.7606 40.4519 44.7666 37.4609 41.7755 35.7327C38.9839 34.1375 35.0623 35.201 33.9988 31.3459C33.6 30.6147 34.0653 29.5512 34.1317 28.7536ZM1.03089 35.7327L2.49317 26.6267C1.76203 27.8231 1.09735 29.086 0.698549 30.4818C0.233276 32.077 0.299743 34.071 1.03089 35.7327L-3.02364 61.4557C-2.02662 60.5916 -1.62782 59.1958 -0.830205 58.1323C0.366211 56.4706 2.09437 55.4071 4.0884 54.9418C6.14889 54.4766 7.94352 55.0748 9.93754 55.3407C11.134 55.4736 12.3968 55.2742 13.5933 55.4736C16.252 55.8724 18.6448 57.3347 20.3729 54.2772C20.5724 53.9448 20.8382 53.3466 20.9047 52.9478C21.37 50.8209 20.373 48.4945 19.243 46.7663C16.4514 42.5789 12.5298 40.7178 7.74411 39.322C6.28182 38.8567 4.55367 38.8567 3.15785 38.192C2.2273 37.5938 1.49616 36.7297 1.03089 35.7327ZM22.3005 55.9389C24.361 53.8784 25.7568 50.555 24.4939 48.0957C23.0981 45.3041 21.1041 42.5789 24.2281 40.186C25.0257 39.5878 25.8233 39.1226 26.7538 38.7238C27.6844 38.325 28.6814 37.9926 29.6784 37.7932C33.4671 37.195 37.4551 39.5214 39.5821 42.6453C40.9779 44.6394 41.4432 46.9657 43.3707 48.561C46.827 51.4191 51.8121 52.8149 54.3379 56.67C56.1325 59.3287 57.0631 63.1838 54.6038 65.8425C53.075 67.5042 50.5492 68.7671 48.2893 68.5012C43.9025 67.9695 40.9779 63.6491 37.0563 61.9874C35.7934 61.4557 34.5305 61.3892 33.2012 61.3892C30.4096 61.4557 27.7509 62.9844 24.9592 62.4527C22.1676 61.9209 20.7718 58.3317 22.3005 55.9389ZM62.9787 48.428C67.6314 47.5639 70.8218 43.7753 75.7404 43.8418C78.7979 43.9082 81.3902 45.8358 83.3842 47.9627C87.9705 52.8814 88.9675 59.9269 84.78 65.3773C83.916 66.5072 82.9189 67.5042 81.8555 68.3683C81.1908 68.9 80.4596 69.4318 79.5956 69.6977C78.9309 69.8971 78.2662 69.9635 77.6015 69.9635C72.2841 69.6312 71.8189 63.8485 67.9637 61.4557C64.3745 59.2622 58.9906 60.3257 56.9301 56.1383C56.3319 54.8754 55.8002 53.2137 56.1325 51.8179C56.8637 48.9598 60.4529 47.7634 62.9787 48.428ZM108.044 81.4624C107.844 81.1965 106.781 80.7977 106.316 80.6648C104.654 80.1331 102.926 79.8007 101.198 79.6678C96.4783 79.2025 90.1639 80.8642 86.907 76.145C83.1848 70.8941 90.7621 66.9725 93.6202 64.1808C94.2849 63.5162 94.9496 62.8515 95.4148 62.0539C97.9406 57.9329 91.8921 54.2772 95.2819 50.4221C99.4029 45.7693 105.385 47.2316 108.974 51.552C112.896 56.3377 113.627 62.4527 113.361 68.4348L108.044 81.4624C108.11 81.5289 108.11 81.5953 107.977 81.6618L108.044 81.4624ZM4.02193 74.0845C3.82253 69.1659 3.29078 63.9814 7.1459 60.3257C8.67466 58.8634 10.4693 57.8 12.6627 58.1988C17.0496 58.9299 18.8442 62.918 22.4334 64.8455C24.6269 66.0419 27.1526 65.7096 29.479 66.3743C32.7359 67.3048 35.0623 70.0965 35.9264 73.2869C37.9204 80.7977 31.8718 89.3721 23.9622 89.505C18.5783 89.5715 12.131 85.9822 8.74112 81.9277L4.02193 74.0845ZM72.2841 97.6805C72.8823 96.75 73.3476 95.8194 73.6799 94.7559C74.0123 93.7589 74.2117 92.7619 74.1452 91.6984C74.0123 84.6529 65.7038 83.8552 62.9787 78.4714C62.6463 77.7402 62.314 77.0091 61.9817 76.2779C61.0511 73.9516 57.9271 69.2324 61.4499 67.6371C62.6463 67.1054 64.1751 67.3048 65.438 67.6371C68.4955 68.4348 71.0212 70.5617 72.3506 73.4198C73.4805 75.8791 73.7464 78.8702 75.7404 80.9307C77.8674 83.0576 80.9914 82.5259 83.7166 82.5259C87.0399 82.5259 89.898 83.4564 91.7591 86.381C92.4238 87.4445 92.7561 88.508 92.7561 89.7044C92.7561 90.8343 92.4903 91.8978 92.025 92.9613C91.4933 94.2242 90.7621 95.3541 89.7651 96.3511L72.2841 97.6805ZM30.2102 95.0883C32.603 95.5535 34.4641 92.629 35.727 90.9673C37.3886 88.8403 39.4491 86.3145 40.0474 83.6558C40.712 80.6648 37.8539 76.145 42.0414 74.6162C42.7725 74.3504 43.5037 74.2174 44.3013 74.0845C45.2318 73.8851 46.1624 73.8186 47.0929 74.018C49.2864 74.6163 50.4163 76.8761 52.2774 78.0061C55.0026 79.6678 58.3924 79.0031 60.2535 81.9942C62.314 85.1846 61.317 88.9068 59.0571 91.7649C55.202 96.6835 49.2199 99.0763 43.1713 99.4087L30.2102 95.0883ZM59.3894 103.995C59.3894 100.804 59.7882 97.0823 61.6493 94.3571C62.7128 92.7619 65.1056 91.6984 66.6344 93.3601C67.9637 94.8224 68.2296 96.8164 68.429 98.6775C68.6284 100.738 68.4955 102.599 68.1631 104.66L59.3894 103.995Z" fill="#FF9C27"/>
</g>
<g opacity="0.5">
<mask id="mask1_76_599" style="mask-type:luminance" maskUnits="userSpaceOnUse" x="0" y="0" width="105" height="100">
<path d="M67.7643 3.03067C95.4148 12.0703 108.31 34.6692 102.726 65.4437C97.5418 94.0912 65.1721 105.058 37.5216 96.0188C9.87108 86.9792 -7.47696 58.7305 5.21834 32.6087C18.4454 5.55644 40.1138 -6.00892 67.7643 3.03067Z" fill="white"/>
</mask>
<g mask="url(#mask1_76_599)">
<path opacity="0.2852" fill-rule="evenodd" clip-rule="evenodd" d="M-10.4015 48.6939C-7.47696 51.4191 -5.21706 54.676 -2.29249 57.4011C4.2878 63.4497 12.9286 68.7006 21.1041 72.2234C39.2497 80.0001 65.1721 77.6073 77.8674 61.1233C88.7681 46.8993 88.1699 27.0255 83.7165 10.608C82.3872 5.55644 80.3932 0.571371 78.2662 -4.14783C77.9339 -4.94544 76.4716 -7.93648 76.0063 -8.86703C75.541 -9.86404 75.0093 -10.8611 74.4776 -11.7916C74.4776 -11.8581 74.4111 -11.9245 74.4111 -11.9245C80.3932 -8.53469 86.7741 1.63485 91.2939 6.88579C102.128 19.6476 114.425 32.6752 119.21 49.1592C121.404 56.6035 121.603 64.779 118.479 71.9575C110.569 90.1697 80.7255 107.917 61.5828 109.312C41.3767 110.841 19.5089 102.533 1.96143 93.4266" fill="black"/>
</g>
</g>
<g opacity="0.5">
<mask id="mask2_76_599" style="mask-type:luminance" maskUnits="userSpaceOnUse" x="0" y="0" width="105" height="100">
<path d="M67.7643 3.03067C95.4148 12.0703 108.31 34.6692 102.726 65.4437C97.5418 94.0912 65.1721 105.058 37.5216 96.0188C9.87108 86.9792 -7.47696 58.7305 5.21834 32.6087C18.4454 5.55644 40.1138 -6.00892 67.7643 3.03067Z" fill="white"/>
</mask>
<g mask="url(#mask2_76_599)">
<path opacity="0.3567" fill-rule="evenodd" clip-rule="evenodd" d="M-13.9243 27.4243C-11.3321 38.5244 -3.55537 44.44 7.01297 48.2286C14.5903 50.9538 22.6993 52.6155 30.8084 51.552C45.4977 49.558 58.1265 37.7932 61.2505 23.3697C66.302 0.305498 46.6941 -26.2815 21.7023 -20.3659C4.22133 -16.1785 -6.47995 -0.226238 -11.6644 15.9254" fill="white"/>
</g>
</g>
<g opacity="0.5">
<mask id="mask3_76_599" style="mask-type:luminance" maskUnits="userSpaceOnUse" x="0" y="0" width="105" height="100">
<path d="M67.7643 3.03067C95.4148 12.0703 108.31 34.6692 102.726 65.4437C97.5418 94.0912 65.1721 105.058 37.5216 96.0188C9.87108 86.9792 -7.47696 58.7305 5.21834 32.6087C18.4454 5.55644 40.1138 -6.00892 67.7643 3.03067Z" fill="white"/>
</mask>
<g mask="url(#mask3_76_599)">
<path opacity="0.3567" fill-rule="evenodd" clip-rule="evenodd" d="M1.0309 1.03664C0.100349 8.68041 5.9495 14.729 12.4633 17.6535C23.4305 22.6386 37.7875 21.1763 44.1684 9.74389C50.6157 -1.755 41.3102 -13.2539 29.612 -15.5803C19.9742 -17.5078 11.8651 -12.988 5.75009 -5.87599" fill="white"/>
</g>
</g>
</svg>
