<svg width="124" height="124" viewBox="0 0 124 124" fill="none" xmlns="http://www.w3.org/2000/svg">
<path fill-rule="evenodd" clip-rule="evenodd" d="M9.06609 31.5198C24.5668 6.57001 50.4269 -0.262409 80.4308 13.3256C108.286 25.9157 112.046 60.7687 96.5454 85.7953C81.0447 110.745 48.3551 120.571 24.7203 101.072C0.318151 81.0356 -6.43464 56.5464 9.06609 31.5198Z" fill="#6218DA"/>
<mask id="mask0_76_557" style="mask-type:luminance" maskUnits="userSpaceOnUse" x="0" y="6" width="106" height="106">
<path d="M9.06609 31.5198C24.5668 6.57001 50.4269 -0.262409 80.4308 13.3256C108.286 25.9157 112.046 60.7687 96.5454 85.7953C81.0447 110.745 48.3551 120.571 24.7203 101.072C0.318151 81.0356 -6.43464 56.5464 9.06609 31.5198Z" fill="white"/>
</mask>
<g mask="url(#mask0_76_557)">
<path fill-rule="evenodd" clip-rule="evenodd" d="M8.60579 50.9423C12.9798 50.9423 16.5864 54.2433 16.5864 58.6959C16.5864 63.0717 13.0565 66.1425 8.68252 66.1425C4.30855 66.1425 0.778684 62.9182 1.08563 58.5424C1.31584 53.9363 4.23182 50.9423 8.60579 50.9423Z" fill="#A366FF"/>
<path fill-rule="evenodd" clip-rule="evenodd" d="M73.7548 -8.3999C78.1288 -8.3999 81.7354 -5.09885 81.7354 -0.646265C81.7354 3.72955 78.2055 6.8003 73.8316 6.8003C69.4576 6.8003 65.9277 3.57601 66.2347 -0.799802C66.4649 -5.40592 69.3809 -8.3999 73.7548 -8.3999Z" fill="#A366FF"/>
<path fill-rule="evenodd" clip-rule="evenodd" d="M86.0327 41.5765C90.4066 41.5765 94.0132 44.8776 94.0132 49.3301C94.0132 53.706 90.4834 56.7767 86.1094 56.7767C81.7354 56.7767 78.2056 53.5524 78.5125 49.1766C78.7427 44.6473 81.6587 41.5765 86.0327 41.5765Z" fill="#A366FF"/>
<path fill-rule="evenodd" clip-rule="evenodd" d="M67.8462 13.3256C76.2872 13.3256 83.1935 19.7742 83.1935 28.2187C83.1935 36.6633 76.3639 42.5745 67.9229 42.5745C59.4819 42.5745 52.7291 36.3562 53.2663 27.9117C53.8035 19.16 59.4052 13.3256 67.8462 13.3256Z" fill="#A366FF"/>
<path fill-rule="evenodd" clip-rule="evenodd" d="M46.9739 47.0271C55.4149 47.0271 62.3211 53.4757 62.3211 61.9202C62.3211 70.3648 55.4916 76.276 47.0506 76.276C38.6096 76.276 31.8568 70.0577 32.394 61.6132C32.9311 52.8615 38.5329 47.0271 46.9739 47.0271Z" fill="#A366FF"/>
<path fill-rule="evenodd" clip-rule="evenodd" d="M15.3585 74.8941C23.7995 74.8941 30.7058 81.3427 30.7058 89.7872C30.7058 98.2318 23.8762 104.143 15.4353 104.143C6.99427 104.143 0.241474 97.9247 0.778628 89.4801C1.31578 80.7285 6.91753 74.8941 15.3585 74.8941Z" fill="#A366FF"/>
<path fill-rule="evenodd" clip-rule="evenodd" d="M39.377 -1.18365C45.9763 -1.18365 51.3478 3.80631 51.3478 10.4084C51.3478 17.0105 46.053 21.6166 39.4537 21.6166C32.8544 21.6166 27.6363 16.7802 28.02 10.2549C28.4804 3.3457 32.7777 -1.18365 39.377 -1.18365Z" fill="#A366FF"/>
<path fill-rule="evenodd" clip-rule="evenodd" d="M73.9083 66.6799C81.0448 66.6799 86.8768 72.1304 86.8768 79.2699C86.8768 86.4094 81.1983 91.4762 73.9851 91.4762C66.8486 91.4762 61.0934 86.2559 61.5538 79.1164C62.0142 71.5931 66.7719 66.6799 73.9083 66.6799Z" fill="#A366FF"/>
<path fill-rule="evenodd" clip-rule="evenodd" d="M20.8068 22.8449C26.869 22.8449 31.7801 27.4511 31.7801 33.5158C31.7801 39.5805 26.869 43.8028 20.8068 43.8028C14.7446 43.8028 9.91026 39.3502 10.2939 33.2855C10.7544 26.9904 14.7446 22.8449 20.8068 22.8449Z" fill="#A366FF"/>
<path fill-rule="evenodd" clip-rule="evenodd" d="M102.684 15.3216C108.747 15.3216 113.658 19.9277 113.658 25.9925C113.658 32.0572 108.823 36.2795 102.684 36.2795C96.6222 36.2795 91.7878 31.8269 92.1715 25.7622C92.6319 19.5439 96.6222 15.3216 102.684 15.3216Z" fill="#A366FF"/>
<path fill-rule="evenodd" clip-rule="evenodd" d="M102.761 64.1465C108.823 64.1465 113.734 68.7526 113.734 74.8173C113.734 80.8821 108.823 85.1043 102.761 85.1043C96.699 85.1043 91.8646 80.6518 92.2483 74.587C92.632 68.292 96.6223 64.1465 102.761 64.1465Z" fill="#A366FF"/>
<path fill-rule="evenodd" clip-rule="evenodd" d="M44.5183 88.7125C49.5829 88.7125 53.7266 92.5509 53.7266 97.6176C53.7266 102.684 49.6596 106.216 44.595 106.216C39.5304 106.216 35.4634 102.531 35.7703 97.4641C36.0773 92.1671 39.4537 88.7125 44.5183 88.7125Z" fill="#A366FF"/>
</g>
<g opacity="0.6">
<mask id="mask1_76_557" style="mask-type:luminance" maskUnits="userSpaceOnUse" x="0" y="6" width="106" height="106">
<path d="M9.06609 31.5198C24.5668 6.57001 50.4269 -0.262409 80.4308 13.3256C108.286 25.9157 112.046 60.7687 96.5454 85.7953C81.0447 110.745 48.3551 120.571 24.7203 101.072C0.318151 81.0356 -6.43464 56.5464 9.06609 31.5198Z" fill="white"/>
</mask>
<g mask="url(#mask1_76_557)">
<path opacity="0.3567" fill-rule="evenodd" clip-rule="evenodd" d="M-6.81836 96.4661C3.92472 99.153 14.2074 93.7025 21.6508 86.2559C33.0078 74.9709 38.2258 59.3101 36.9981 43.4957C36.4609 35.5118 34.0053 27.7582 28.1734 22.0773C13.3633 7.79831 -8.58329 16.4732 -17.6382 32.5946C-28.2278 51.3262 -25.9257 72.9749 -13.5712 90.2479" fill="white"/>
</g>
</g>
<g opacity="0.5">
<mask id="mask2_76_557" style="mask-type:luminance" maskUnits="userSpaceOnUse" x="0" y="6" width="106" height="106">
<path d="M9.06609 31.5198C24.5668 6.57001 50.4269 -0.262409 80.4308 13.3256C108.286 25.9157 112.046 60.7687 96.5454 85.7953C81.0447 110.745 48.3551 120.571 24.7203 101.072C0.318151 81.0356 -6.43464 56.5464 9.06609 31.5198Z" fill="white"/>
</mask>
<g mask="url(#mask2_76_557)">
<path opacity="0.3567" fill-rule="evenodd" clip-rule="evenodd" d="M-17.6381 66.6799C-14.185 68.9829 -10.1947 70.9789 -5.9742 71.3628C0.394911 71.9769 6.53381 68.1385 10.6776 63.6091C19.7325 53.706 23.7227 35.0512 10.7543 26.2996C8.68243 24.841 6.22687 23.843 3.77131 23.2288C0.471647 22.3844 -2.98149 22.2308 -6.28115 22.6914C-10.3482 23.3056 -13.878 25.2248 -16.8708 28.0652C-20.7076 31.6734 -23.3933 36.433 -25.0815 41.423C-27.3836 48.3322 -27.3836 55.7787 -26.2326 63.0718" fill="white"/>
</g>
</g>
<g opacity="0.5">
<mask id="mask3_76_557" style="mask-type:luminance" maskUnits="userSpaceOnUse" x="0" y="6" width="106" height="106">
<path d="M9.06609 31.5198C24.5668 6.57001 50.4269 -0.262409 80.4308 13.3256C108.286 25.9157 112.046 60.7687 96.5454 85.7953C81.0447 110.745 48.3551 120.571 24.7203 101.072C0.318151 81.0356 -6.43464 56.5464 9.06609 31.5198Z" fill="white"/>
</mask>
<g mask="url(#mask3_76_557)">
<path opacity="0.2852" fill-rule="evenodd" clip-rule="evenodd" d="M0.701782 102.301C7.3011 103.145 11.6751 105.448 19.1185 105.371C27.0223 105.218 34.8494 103.068 42.2929 100.612C50.1967 98.0015 58.1773 95.2378 64.086 89.0963C69.2273 83.7225 72.3735 76.6598 74.9058 69.8274C77.2079 63.5324 78.6659 56.7767 78.2054 50.0211C77.0544 32.9784 63.9325 17.6247 49.5828 9.41043C44.7484 6.64676 39.6838 4.72754 34.2355 3.49924C32.0102 3.03863 29.8616 2.73156 27.6362 2.50125C27.4827 2.50125 23.7227 2.27095 25.1039 2.04064C47.9713 -1.49072 72.7572 -4.40793 94.2433 6.26292C101.84 10.0246 108.44 15.5519 113.888 22.0005C118.645 27.6046 122.329 34.3603 124.861 41.2694C127.47 48.5625 129.389 56.5464 128.928 64.3768C128.084 77.8113 120.717 90.4782 111.432 99.8439C91.8645 119.65 60.7863 131.012 33.3914 124.103" fill="black"/>
</g>
</g>
<path fill-rule="evenodd" clip-rule="evenodd" d="M15.1282 92.0135C15.1282 92.0135 -3.97912 120.188 8.98931 123.105C34.8494 129.016 103.528 67.4476 120.41 21.3096C132.458 -11.6242 100.843 2.04064 83.8839 15.1681L87.644 17.4711C87.644 17.4711 106.521 3.65278 114.425 8.56598C119.873 11.9438 101.226 35.5118 98.9242 39.0431C84.728 60.8455 49.9665 95.852 37.5352 105.295C30.2453 110.745 16.7397 119.804 12.5959 116.349C7.6848 112.28 17.7372 94.7772 17.7372 94.7772L15.1282 92.0135Z" fill="#F1BF09"/>
<mask id="mask4_76_557" style="mask-type:luminance" maskUnits="userSpaceOnUse" x="4" y="0" width="120" height="124">
<path d="M15.1282 92.0135C15.1282 92.0135 -3.97912 120.188 8.98931 123.105C34.8494 129.016 103.528 67.4476 120.41 21.3096C132.458 -11.6242 100.843 2.04064 83.8839 15.1681L87.644 17.4711C87.644 17.4711 106.521 3.65278 114.425 8.56598C119.873 11.9438 101.226 35.5118 98.9242 39.0431C84.728 60.8455 49.9665 95.852 37.5352 105.295C30.2453 110.745 16.7397 119.804 12.5959 116.349C7.6848 112.28 17.7372 94.7772 17.7372 94.7772L15.1282 92.0135Z" fill="white"/>
</mask>
<g mask="url(#mask4_76_557)">
<path opacity="0.2852" fill-rule="evenodd" clip-rule="evenodd" d="M19.579 126.176C26.8689 122.875 33.4682 117.961 39.9141 113.278C60.7096 98.1551 77.9753 80.1144 95.0107 60.9222C105.984 48.6393 118.569 28.8329 116.65 11.4832C114.655 -6.4039 93.0156 4.03664 83.8072 9.18014C80.2774 11.1761 76.7475 13.2489 73.1409 15.1681C71.376 16.0893 71.376 16.0893 69.7645 16.857C69.1506 17.1641 67.9228 18.3924 67.8461 17.7015C67.8461 17.4712 68.3065 16.3196 68.3833 16.1661C70.5319 12.0206 74.7524 8.33569 78.1288 5.26494C81.1215 2.50127 84.1909 -0.108868 87.4139 -2.56547C97.6965 -10.5494 120.027 -25.5193 128.698 -7.55543C129.772 -5.25237 130.463 -2.79577 130.693 -0.262404C131.691 9.64076 129.005 20.0045 125.705 29.2935C117.955 51.2494 104.756 68.5223 89.409 85.7953" fill="black"/>
</g>
<mask id="mask5_76_557" style="mask-type:luminance" maskUnits="userSpaceOnUse" x="4" y="0" width="120" height="124">
<path d="M15.1282 92.0135C15.1282 92.0135 -3.97912 120.188 8.98931 123.105C34.8494 129.016 103.528 67.4476 120.41 21.3096C132.458 -11.6242 100.843 2.04064 83.8839 15.1681L87.644 17.4711C87.644 17.4711 106.521 3.65278 114.425 8.56598C119.873 11.9438 101.226 35.5118 98.9242 39.0431C84.728 60.8455 49.9665 95.852 37.5352 105.295C30.2453 110.745 16.7397 119.804 12.5959 116.349C7.6848 112.28 17.7372 94.7772 17.7372 94.7772L15.1282 92.0135Z" fill="white"/>
</mask>
<g mask="url(#mask5_76_557)">
<path opacity="0.3567" fill-rule="evenodd" clip-rule="evenodd" d="M14.054 93.0116C8.68242 100.688 7.07095 111.59 11.8286 120.034C12.9796 122.03 14.4376 123.873 16.1258 125.408C18.5047 127.557 23.7995 130.014 20.73 133.853C19.272 135.618 16.5095 136.463 14.3609 136.77C5.6897 138.152 -1.83045 132.778 -5.59053 125.178C-9.88776 116.349 -7.50894 106.676 -5.05338 97.6945C-3.59539 92.551 -2.44435 87.1771 -0.0655208 82.4175" fill="white"/>
</g>
</svg>
