<svg width="48" height="48" viewBox="0 0 48 48" fill="none" xmlns="http://www.w3.org/2000/svg">
<path fill-rule="evenodd" clip-rule="evenodd" d="M42.4341 9.39243C50.5831 20.2153 49.0551 35.1126 38.2323 43.3252C27.4095 51.5378 13.3398 48.4819 5.19087 37.6591C-2.95809 26.8363 -1.55749 12.321 9.71099 4.87231C21.4888 -2.89466 34.2852 -1.36673 42.4341 9.39243Z" fill="#F1BF09"/>
<mask id="mask0_76_617" style="mask-type:luminance" maskUnits="userSpaceOnUse" x="0" y="0" width="48" height="48">
<path d="M42.4341 9.39243C50.5831 20.2153 49.0551 35.1126 38.2323 43.3252C27.4095 51.5378 13.3398 48.4819 5.19087 37.6591C-2.95809 26.8363 -1.55749 12.321 9.71099 4.87231C21.4888 -2.89466 34.2852 -1.36673 42.4341 9.39243Z" fill="white"/>
</mask>
<g mask="url(#mask0_76_617)">
<path fill-rule="evenodd" clip-rule="evenodd" d="M26.1362 -1.68503C26.3909 0.543196 28.4918 2.38944 29.9561 3.85371C33.5212 7.35521 37.0864 10.9204 41.0336 14.0399C42.6888 15.3768 44.4714 16.7138 46.3176 17.7961C46.6996 18.0507 47.5272 18.6237 47.9729 18.6874C48.1639 18.6874 48.5459 18.369 48.4822 18.178C48.3549 17.8597 48.0366 17.7324 47.7819 17.5414C47.4636 17.3504 47.1453 17.2231 46.827 17.0321C46.3813 16.7138 45.9357 16.3955 45.49 16.0771C44.7897 15.5678 44.0894 14.9949 43.3891 14.4855C42.1795 13.5943 40.9699 12.6393 39.8239 11.6843C37.723 9.96542 35.6858 8.18284 33.7759 6.27293C31.9296 4.55401 30.1471 2.77143 28.6191 0.797851C27.4732 -0.602751 26.5819 -2.38533 25.3086 -3.65861L26.1362 -1.68503ZM20.4065 -1.17572C22.3801 1.88013 25.4359 4.36302 28.1735 6.71858C32.7573 10.7294 37.5321 14.6765 42.7525 17.9871C43.5164 18.4327 43.5164 18.4327 44.2804 18.8783C44.7897 19.1967 45.2354 19.4513 45.7447 19.7696C46.1903 20.0243 46.5723 20.2153 47.0179 20.4063C47.5909 20.6609 47.5273 20.6609 48.1002 20.9156C48.5459 21.1066 48.4822 21.1066 48.9278 21.2976C49.3735 21.4886 51.1561 22.3798 51.3471 21.1702C51.3471 21.0429 50.7741 20.8519 50.7104 20.8519C50.0738 20.5973 49.4372 20.4063 48.8005 20.0243C45.9357 18.4327 43.0708 16.4591 40.3969 14.4855C37.5321 12.3846 34.5399 10.4111 31.9296 7.99185C29.3831 5.63629 26.9639 2.96242 24.863 0.161214C23.7807 -1.36672 22.8257 -2.95831 21.7435 -4.48624L20.4065 -1.17572ZM18.051 -1.30305C22.9531 6.90957 31.102 13.2123 39.251 18.0507C42.0522 19.706 45.0444 21.0429 48.0366 22.3162C48.7369 22.5708 49.3735 22.8892 50.0738 23.0801L50.6468 23.2711C50.9014 24.3534 49.7555 26.0723 49.5008 27.091C49.1825 28.3642 48.9279 29.6375 48.6732 30.8471C48.3549 32.375 48.2276 33.3937 46.3176 32.757C45.9993 32.6297 45.3627 32.3751 45.108 32.2477C44.3441 31.8657 43.5801 31.4201 42.8161 30.9744C41.5429 30.2105 40.2696 29.3192 38.9963 28.4916C31.7387 23.6531 25.4996 17.8597 19.8972 11.1114C17.287 7.99185 14.7404 4.745 12.7669 1.11617L18.051 -1.30305ZM8.6924 3.91737C9.96567 8.18284 13.0215 11.8753 15.8864 15.1222C21.2341 21.2339 27.4732 26.8363 34.0942 31.4838C37.1501 33.6483 40.3969 35.3672 43.7074 37.0862C44.5351 37.4682 45.3627 37.8501 46.1903 38.2321C46.3813 38.2958 46.827 38.4231 46.827 38.6778C46.8906 39.2507 46.3813 39.8237 46.1267 40.2694C45.9357 40.524 45.7447 41.479 45.4263 41.6063C44.7897 41.9246 43.7074 41.479 43.1345 41.288C41.2245 40.6513 39.3146 39.951 37.4684 38.9961C36.9591 38.7414 36.1314 38.2321 35.5585 37.9775C34.5399 37.4045 33.5212 36.8315 32.5026 36.1949C24.481 31.2928 16.7777 25.2447 10.7296 18.0507C8.24675 15.0585 5.06357 11.557 4.36327 7.5462L8.6924 3.91737ZM1.68939 10.3474C2.45335 11.1114 2.77167 12.13 3.15365 13.0849C3.72663 14.6129 4.2996 16.1408 5.25456 17.5414C7.8011 21.3612 11.2389 24.6717 14.6131 27.7276C18.3056 31.0381 22.3164 34.2213 26.4546 36.9588C29.7651 39.1871 33.3302 41.1606 36.9591 42.8159C38.3597 43.4525 39.7603 43.9618 41.2245 44.4075C41.5429 44.4712 42.4342 44.5985 42.6251 44.8531C43.0708 45.4261 42.0522 46.6357 41.4792 46.6357C39.8876 46.6994 38.2324 45.6171 36.8954 44.8531C35.5585 44.0892 34.1579 43.3252 32.8209 42.5612C30.4017 41.2243 27.9825 39.8874 25.5633 38.4231C21.9344 36.2585 18.7513 33.521 15.5044 30.9108C9.07438 25.6267 3.5993 19.8333 -0.666167 12.5756L1.68939 10.3474ZM-1.87578 13.7216C-0.53884 15.7588 -0.02953 18.1144 1.37107 20.088C6.90981 27.9823 13.3398 34.7306 21.4888 39.951C25.245 42.3703 29.3194 44.5985 33.5849 45.9991C34.7945 46.3811 36.0678 46.6994 37.3411 47.0814C37.4684 47.145 38.4233 47.336 38.487 47.527C38.678 47.9727 38.1687 48.5456 37.9777 48.864C37.0227 50.2009 36.7044 50.3919 34.9218 50.0099C34.6672 49.9462 33.9669 49.7552 33.7759 49.6916C30.4017 48.5456 27.1549 46.3811 24.099 44.4712C15.8227 39.3144 8.05576 33.33 1.88038 25.8177C-0.53884 22.8892 -2.8944 19.8333 -4.54965 16.3955L-1.87578 13.7216ZM-1.74845 23.7804C-0.22052 27.6003 2.45335 30.6561 5.38188 33.4573C8.88339 36.8952 12.7032 39.951 16.6504 42.7522C18.8149 44.2802 21.1068 45.6808 23.2714 47.2087C23.7807 47.527 24.2263 47.909 24.7356 48.2273L25.1813 48.482C25.3086 49.2459 23.5897 50.1372 23.0804 50.3282C20.6612 51.2195 17.4143 49.1186 15.4407 48.0363C11.1116 45.6171 6.84615 42.9432 3.5993 39.1871C1.88038 37.1498 0.670771 34.7943 -0.793494 32.566C-1.93944 30.7835 -3.21271 29.1282 -4.48599 27.4729L-1.74845 23.7804Z" fill="#A366FF"/>
</g>
<g opacity="0.5">
<mask id="mask1_76_617" style="mask-type:luminance" maskUnits="userSpaceOnUse" x="0" y="0" width="48" height="48">
<path d="M42.4341 9.39243C50.5831 20.2153 49.0551 35.1126 38.2323 43.3252C27.4095 51.5378 13.3398 48.4819 5.19087 37.6591C-2.95809 26.8363 -1.55749 12.321 9.71099 4.87231C21.4888 -2.89466 34.2852 -1.36673 42.4341 9.39243Z" fill="white"/>
</mask>
<g mask="url(#mask1_76_617)">
<path opacity="0.2852" fill-rule="evenodd" clip-rule="evenodd" d="M1.11638 6.40022C0.861723 8.69211 0.416077 10.8567 0.670732 13.1486C1.94401 24.2897 10.9206 37.3408 23.335 36.8315C25.3086 36.7678 27.1548 36.3222 29.0011 35.6219C37.6593 32.4387 42.6251 24.0351 44.4713 15.3131C45.1716 12.13 45.1716 9.07409 44.6623 5.89091C44.4714 4.80863 44.535 4.80863 44.2804 3.79001C44.153 3.34436 44.0894 3.08971 43.962 2.64406C43.8984 2.51673 43.771 2.13475 43.8347 2.26208C46.3176 4.99962 47.7819 8.8831 49.3098 12.1936C53.5116 21.4249 55.6762 32.566 52.1747 42.3702C47.9729 54.0207 32.4389 62.5516 20.4065 58.9864C11.7482 56.3762 4.99986 49.3732 -0.857198 42.9432C-6.14128 37.0225 -11.2344 30.0195 -10.6614 21.6795C-10.5341 19.6423 -10.0248 17.796 -9.38813 15.8861" fill="black"/>
</g>
</g>
<g opacity="0.5">
<mask id="mask2_76_617" style="mask-type:luminance" maskUnits="userSpaceOnUse" x="0" y="0" width="48" height="48">
<path d="M42.4341 9.39243C50.5831 20.2153 49.0551 35.1126 38.2323 43.3252C27.4095 51.5378 13.3398 48.4819 5.19087 37.6591C-2.95809 26.8363 -1.55749 12.321 9.71099 4.87231C21.4888 -2.89466 34.2852 -1.36673 42.4341 9.39243Z" fill="white"/>
</mask>
<g mask="url(#mask2_76_617)">
<path opacity="0.3567" fill-rule="evenodd" clip-rule="evenodd" d="M1.49832 2.07105C1.62565 4.55394 1.8803 7.10048 2.89892 9.39238C6.08211 16.459 15.377 21.6795 23.0803 20.4062C29.4467 19.3876 34.9854 13.8488 37.2773 7.92811C41.0971 -2.19442 34.0941 -13.5266 23.335 -14.7362C18.6239 -15.2455 14.0401 -13.6539 9.83826 -11.744C5.06349 -9.64307 0.225047 -6.71454 -2.83081 -2.44907" fill="white"/>
</g>
</g>
<g opacity="0.5">
<mask id="mask3_76_617" style="mask-type:luminance" maskUnits="userSpaceOnUse" x="0" y="0" width="48" height="48">
<path d="M42.4341 9.39243C50.5831 20.2153 49.0551 35.1126 38.2323 43.3252C27.4095 51.5378 13.3398 48.4819 5.19087 37.6591C-2.95809 26.8363 -1.55749 12.321 9.71099 4.87231C21.4888 -2.89466 34.2852 -1.36673 42.4341 9.39243Z" fill="white"/>
</mask>
<g mask="url(#mask3_76_617)">
<path opacity="0.3567" fill-rule="evenodd" clip-rule="evenodd" d="M8.69246 -5.75953C3.15372 4.68132 19.4516 16.6501 28.7465 11.0477C34.9219 7.29153 38.9327 -5.05923 31.8024 -9.89767C25.9453 -13.8448 17.3507 -11.6166 11.621 -8.6244" fill="white"/>
</g>
</g>
</svg>
