<svg width="66" height="62" viewBox="0 0 66 62" fill="none" xmlns="http://www.w3.org/2000/svg">
<path fill-rule="evenodd" clip-rule="evenodd" d="M27.8415 0.418797C45.9279 -2.13615 59.4422 7.0751 64.7537 25.9682C69.7292 43.5166 54.534 58.6446 36.4477 61.1995C18.4286 63.7545 0.812942 52.5934 0.812942 34.3726C0.745707 15.4795 9.75524 2.97374 27.8415 0.418797Z" fill="#A366FF"/>
<mask id="mask0_76_667" style="mask-type:luminance" maskUnits="userSpaceOnUse" x="0" y="0" width="66" height="62">
<path d="M27.8415 0.418797C45.9279 -2.13615 59.4422 7.0751 64.7537 25.9682C69.7292 43.5166 54.534 58.6446 36.4477 61.1995C18.4286 63.7545 0.812942 52.5934 0.812942 34.3726C0.745707 15.4795 9.75524 2.97374 27.8415 0.418797Z" fill="white"/>
</mask>
<g mask="url(#mask0_76_667)">
<path opacity="0.2852" fill-rule="evenodd" clip-rule="evenodd" d="M3.16618 13.7986C3.973 16.0846 6.46071 17.4293 8.81395 17.4293C9.88971 17.4293 11.0999 17.1604 11.8395 16.2191C12.7136 15.0761 11.974 12.9246 13.1842 12.0505C13.9911 11.4454 15.0668 11.2437 16.0081 10.9075C17.5545 10.3024 18.832 8.95768 19.3027 7.34404C19.9078 5.05803 17.2856 4.31844 15.5375 3.8478C14.7307 3.64609 13.7221 3.37715 12.8481 3.71333L3.16618 13.7986ZM43.2384 -2.87574C42.5661 -1.26209 40.2128 -0.65697 40.1456 1.22562C40.0111 3.17544 42.4988 4.11674 44.1125 3.57886C46.264 2.83927 47.5415 0.35156 48.4156 -1.53103L43.2384 -2.87574ZM35.7081 3.8478C35.4391 5.05803 35.2374 6.94062 35.7753 8.4198C36.3132 9.96621 37.5234 11.8488 35.9098 13.1935C33.7583 14.9416 30.8671 13.6642 29.2535 11.7816C28.5139 10.9075 28.1105 9.69727 27.0347 9.09215C24.816 7.81468 22.4627 11.916 20.9163 8.95768C20.7146 8.48704 20.5129 8.01639 20.4457 7.54574C20.3112 6.94062 20.3112 6.33551 20.3112 5.73039C20.3112 4.9908 20.4457 4.18397 20.6474 3.44439C21.9921 -0.858676 26.7658 -4.08597 31.2033 -3.68256C34.2289 -3.41362 37.5907 -2.47232 37.2545 1.09115C37.389 1.02391 35.977 2.77203 35.7081 3.8478ZM-1.5403 29.8006C-2.21265 31.8177 -0.128353 33.7003 1.75424 33.902C2.76277 34.0365 4.10747 33.9692 4.98153 33.4313C5.78836 32.9607 6.259 32.1539 7.2003 31.8849C9.41906 31.2126 12.7808 32.2883 13.1842 28.9938C13.3187 27.918 13.0498 26.775 12.7808 25.7665C12.2429 23.615 10.2931 21.329 8.14159 20.5894C6.79689 20.1187 5.04877 20.186 3.63682 20.186C1.35082 20.186 -0.397296 20.8583 -2.14541 18.9085L-1.5403 29.8006ZM55.9459 5.99933C57.5596 7.54574 56.8872 10.1679 55.4753 11.6471C54.3323 12.8573 52.6514 13.3952 51.3739 14.4037C49.0879 16.2191 46.8691 20.2532 43.4401 17.9C42.9023 17.4966 42.4316 17.0932 41.961 16.5553C40.1456 14.5382 39.406 12.5884 40.2801 9.89898C40.6163 8.89045 40.9524 7.88192 41.8937 7.20956C43.3057 6.26827 45.121 6.26827 46.6002 5.39421C49.0207 3.91503 50.1637 0.687737 53.5927 1.96521C54.0633 2.16691 54.534 2.36862 54.9374 2.63756C55.4753 3.04097 55.9459 3.51162 56.4166 3.98227L55.9459 5.99933ZM16.0081 24.2873C15.6047 22.8754 14.9996 21.4635 15.2013 19.917C15.6047 16.5553 19.7733 14.2693 22.8661 14.1348C24.547 14.0676 26.4296 14.0676 28.0432 14.5382C31.2033 15.5467 33.96 18.5723 34.9685 21.7324C35.3047 22.8082 34.9685 23.8839 34.4306 24.8925C34.1617 25.4303 33.7583 25.9682 33.3548 26.4389C32.7497 27.044 32.0774 27.7163 31.3378 27.9853C30.4637 28.3215 29.4552 28.0525 28.5139 27.918C26.3624 27.5146 24.4125 26.3716 22.1938 26.2372C20.1767 26.1027 18.2269 27.7836 16.6132 25.901C16.2098 25.4303 16.2098 24.758 16.0081 24.2873ZM-0.733472 37.331L-2.41436 31.7505C-2.48159 32.6245 -2.48159 33.4986 -2.34712 34.4399C-2.14541 35.4484 -1.60753 36.5914 -0.733472 37.331L4.04024 52.9296C4.37641 52.19 4.17471 51.2487 4.37641 50.4419C4.64535 49.1644 5.31771 48.0886 6.259 47.2818C7.26753 46.4078 8.47777 46.2733 9.688 45.8699C10.4276 45.6009 11.0327 45.1975 11.7723 44.9286C13.3859 44.4579 15.1341 44.5924 15.2685 42.3736C15.2685 42.1047 15.2685 41.7013 15.2013 41.4324C14.8651 40.0876 13.6549 39.0791 12.5791 38.4068C9.82247 36.7931 7.13306 36.8603 4.04024 37.3982C3.09894 37.5327 2.09041 38.0033 1.14912 38.0033C0.476763 38.0033 -0.195589 37.7344 -0.733472 37.331ZM16.8822 42.8443C17.4873 41.0962 17.3528 38.8774 15.9409 37.8016C14.3945 36.6586 12.5119 35.5829 13.5877 33.4313C13.8566 32.8935 14.1928 32.3556 14.5962 31.8849C14.9996 31.4143 15.4702 30.9436 16.0081 30.5402C17.958 29.1283 20.8491 29.33 22.9334 30.5402C24.2781 31.2798 25.1521 32.49 26.6985 32.8262C29.4552 33.4986 32.6153 32.8935 35.103 34.3726C36.8511 35.3812 38.4647 37.331 37.7924 39.4825C37.389 40.8272 36.3132 42.2392 34.9685 42.7098C32.3463 43.6511 29.5224 41.9702 26.833 42.1719C25.959 42.2392 25.2866 42.5081 24.4798 42.9115C22.9334 43.7183 21.8576 45.332 20.1095 45.8026C18.4286 46.2733 16.6805 44.5924 16.8822 42.8443ZM37.7251 27.3802C40.0784 25.632 40.8852 22.6065 43.6418 21.2617C45.39 20.4549 47.3398 20.7911 49.0879 21.4635C53.0548 22.9426 55.5425 26.6406 54.6684 30.8764C54.4667 31.7505 54.1978 32.6245 53.8616 33.3641C53.6599 33.8348 53.391 34.3726 52.9876 34.7088C52.7186 34.9778 52.3152 35.2467 51.9118 35.3812C48.819 36.6586 46.9364 33.4986 44.1125 33.2296C41.4903 32.9607 38.7337 35.1122 36.4477 33.2969C35.7753 32.759 34.9685 31.9522 34.834 31.0781C34.3634 29.33 36.1115 27.6491 37.7251 27.3802ZM72.2169 33.5658C72.0152 33.4986 71.3428 33.5658 71.0066 33.5658C69.9309 33.7003 68.8551 34.0365 67.8466 34.3726C65.0227 35.3812 61.9971 38.0706 58.837 36.3225C55.2736 34.3726 58.4336 30.0696 59.3077 27.7163C59.5094 27.1785 59.7111 26.5733 59.7111 26.0355C59.98 23.0099 55.5425 22.6065 56.4166 19.5136C57.4251 15.7485 61.2575 14.9416 64.4176 16.3536C67.981 17.9672 70.0653 21.2617 71.5445 24.6908L72.2169 33.5658C72.2841 33.5658 72.2841 33.633 72.2169 33.7003V33.5658ZM11.5706 58.1067C10.0914 55.4173 8.41053 52.5934 9.55353 49.5006C10.0242 48.2231 10.7638 47.1474 12.0412 46.7439C14.7307 45.9371 16.815 47.6852 19.3699 47.8197C20.9163 47.8869 22.261 47.0129 23.8074 46.7439C25.8917 46.3405 27.976 47.2818 29.3207 48.8282C32.548 52.5262 31.4723 59.048 27.0347 61.2668C24.0091 62.8132 19.4371 62.5442 16.3443 61.1995L11.5706 58.1067ZM56.551 52.5934C56.6183 51.8538 56.6183 51.2487 56.551 50.5764C56.4166 49.904 56.2821 49.2989 55.9459 48.6938C53.9289 44.7269 49.0207 46.6095 45.9951 44.3235C45.5917 43.9873 45.1883 43.7183 44.8521 43.3149C43.7091 42.2392 40.6163 40.4911 42.1627 38.6085C42.7006 37.9361 43.5746 37.6672 44.3814 37.4655C46.3313 37.062 48.3483 37.5999 49.8947 38.8102C51.2394 39.8859 52.1807 41.4996 53.8616 42.1047C55.677 42.7098 57.2234 41.5668 58.837 40.8272C60.7196 39.9532 62.535 39.617 64.4176 40.76C65.0899 41.1634 65.5606 41.7013 65.8967 42.3736C66.2329 43.046 66.3674 43.7183 66.3674 44.3907C66.4346 45.2648 66.3002 46.0716 66.0312 46.9456L56.551 52.5934ZM32.0774 62.7459C33.5565 62.3425 33.7583 60.191 34.0272 58.9135C34.3634 57.2327 34.834 55.2828 34.4306 53.6019C33.96 51.7194 31.1361 49.9712 33.0859 47.9542C33.4221 47.618 33.8255 47.2818 34.2289 47.0129C34.6995 46.6767 35.2374 46.3405 35.7753 46.2061C37.1873 45.9371 38.4647 46.9456 39.8094 47.0129C41.7593 47.2146 43.5074 45.8699 45.39 47.0801C47.407 48.3576 47.8777 50.7108 47.407 52.9296C46.6002 56.762 43.8436 59.7876 40.549 61.6702L32.0774 62.7459ZM51.0377 59.7204C50.1637 57.905 49.3569 55.6862 49.6258 53.6692C49.7603 52.4589 50.836 51.1815 52.1807 51.7194C53.3237 52.19 54.0633 53.1985 54.6684 54.2071C55.3408 55.2828 55.8114 56.4258 56.1476 57.6361L51.0377 59.7204Z" fill="#270874"/>
</g>
<g opacity="0.5">
<mask id="mask1_76_667" style="mask-type:luminance" maskUnits="userSpaceOnUse" x="0" y="0" width="66" height="62">
<path d="M27.8415 0.418797C45.9279 -2.13615 59.4422 7.0751 64.7537 25.9682C69.7292 43.5166 54.534 58.6446 36.4477 61.1995C18.4286 63.7545 0.812942 52.5934 0.812942 34.3726C0.745707 15.4795 9.75524 2.97374 27.8415 0.418797Z" fill="white"/>
</mask>
<g mask="url(#mask1_76_667)">
<path opacity="0.2852" fill-rule="evenodd" clip-rule="evenodd" d="M-3.6246 47.7525C-1.20412 48.492 0.947407 49.7023 3.36788 50.3746C8.74671 51.921 15.0668 52.5262 20.6474 52.2572C33.0187 51.6521 47.0036 43.1132 49.5586 30.3385C51.7773 19.3119 45.9951 8.28532 38.9354 0.217084C36.7838 -2.27062 34.2961 -4.48939 31.8084 -6.64092C31.405 -6.9771 29.7914 -8.25457 29.2535 -8.65798C28.7156 -9.06139 28.1777 -9.4648 27.5726 -9.93545L27.5054 -10.0027C31.8757 -9.59927 38.263 -5.63239 42.2299 -3.88427C51.8446 0.284319 62.4005 4.25121 69.6619 12.2522C72.9565 15.8157 75.3097 20.3877 75.5786 25.2959C76.1837 37.7344 64.2159 55.9552 53.7944 62.0736C42.835 68.5282 28.1777 69.8729 15.8064 69.5367" fill="#270874"/>
</g>
</g>
<g opacity="0.5">
<mask id="mask2_76_667" style="mask-type:luminance" maskUnits="userSpaceOnUse" x="0" y="0" width="66" height="62">
<path d="M27.8415 0.418797C45.9279 -2.13615 59.4422 7.0751 64.7537 25.9682C69.7292 43.5166 54.534 58.6446 36.4477 61.1995C18.4286 63.7545 0.812942 52.5934 0.812942 34.3726C0.745707 15.4795 9.75524 2.97374 27.8415 0.418797Z" fill="white"/>
</mask>
<g mask="url(#mask2_76_667)">
<path opacity="0.3567" fill-rule="evenodd" clip-rule="evenodd" d="M-11.4239 36.7259C-6.85189 42.2392 -0.867945 43.4494 6.12453 42.7098C11.1672 42.1719 16.2098 40.8945 20.4457 38.0033C28.1777 32.8262 32.0101 22.7409 29.8586 13.6642C26.2951 -0.724198 7.87265 -10.2716 -4.56589 -0.0518441C-13.2392 7.14234 -14.8529 19.1102 -13.3065 29.6662" fill="white"/>
</g>
</g>
<g opacity="0.5">
<mask id="mask3_76_667" style="mask-type:luminance" maskUnits="userSpaceOnUse" x="0" y="0" width="66" height="62">
<path d="M27.8415 0.418797C45.9279 -2.13615 59.4422 7.0751 64.7537 25.9682C69.7292 43.5166 54.534 58.6446 36.4477 61.1995C18.4286 63.7545 0.812942 52.5934 0.812942 34.3726C0.745707 15.4795 9.75524 2.97374 27.8415 0.418797Z" fill="white"/>
</mask>
<g mask="url(#mask3_76_667)">
<path opacity="0.3567" fill-rule="evenodd" clip-rule="evenodd" d="M-10.2809 17.7655C-8.66724 22.3375 -3.75906 24.0856 0.745705 24.0184C8.3433 23.7495 15.9409 18.9757 16.4115 10.773C16.8822 2.50309 8.41053 -1.39656 1.21635 0.553261C-4.70036 2.09967 -8.06213 6.94062 -9.5413 12.5884" fill="white"/>
</g>
</g>
</svg>
