<svg width="1440" height="600" viewBox="0 0 1440 600" fill="none" xmlns="http://www.w3.org/2000/svg">
<path opacity="0.2" fill-rule="evenodd" clip-rule="evenodd" d="M-156.417 157.373C-97.7664 106.936 -17.4535 84.3762 59.9984 56.6601C456.863 -85.4654 824.504 76.1581 1210.95 146.093C1301.48 162.529 1401.41 167.847 1492.14 149.155C1524.23 142.548 1552.43 128.367 1579.81 114.026C1587.99 109.836 1595.96 105.486 1603.93 101.296C1607.4 99.3623 1612.51 92.2721 1614.15 95.3338C1620.89 108.708 1592.07 277.905 1576.95 284.029C1569.8 286.929 1393.23 242.777 1369.94 239.554C1252.84 223.601 1136.36 200.236 1023.34 168.652C915.648 138.519 820.621 96.9452 709.041 74.869C415.582 17.1808 21.3747 169.136 -240 265.498" fill="#000721"/>
<path opacity="0.2" fill-rule="evenodd" clip-rule="evenodd" d="M-140.273 164.946C-76.5132 103.23 179.139 126.756 270.283 136.263C528.593 163.174 736.834 198.141 997.187 155.117C1066.67 143.676 1130.02 118.216 1198.68 104.358C1327.63 78.414 1456.38 61.172 1577.97 114.509C1593.51 121.277 1675.04 163.657 1679.74 177.837C1682.61 186.378 1660.53 213.449 1657.67 224.085C1657.06 226.341 1653.79 257.924 1651.54 258.246C1642.55 259.697 1562.24 211.032 1544.25 204.264C1463.74 174.292 1373.82 167.524 1286.15 162.69C1163.13 155.922 1049.09 169.942 932.405 200.88C844.735 224.085 754 258.246 660.2 261.791C558.429 265.659 458.498 235.203 362.653 212.16C169.739 165.752 -36.6633 171.231 -192.589 284.19" fill="#000721"/>
<path opacity="0.2" fill-rule="evenodd" clip-rule="evenodd" d="M-125.559 473.368C-66.9082 422.931 13.4046 400.372 90.8566 372.656C487.517 230.369 855.362 392.154 1241.6 461.927C1332.13 478.364 1432.06 483.681 1522.8 464.989C1554.88 458.382 1583.08 444.202 1610.47 429.86C1618.64 425.671 1626.61 421.32 1634.58 417.13C1638.06 415.197 1643.16 408.107 1644.8 411.168C1651.54 424.543 1622.73 593.74 1607.61 599.863C1600.45 602.764 1423.89 558.611 1400.59 555.389C1283.49 539.436 1167.01 516.07 1054 484.487C946.302 454.354 851.275 412.78 739.695 390.703C446.441 333.015 52.2328 485.131 -209.142 581.493" fill="#000721"/>
</svg>
